<?xml version="1.0" standalone="no"?>
<!DOCTYPE svg PUBLIC "-//W3C//DTD SVG 1.1//EN" "http://www.w3.org/Graphics/SVG/1.1/DTD/svg11.dtd" >
<svg xmlns="http://www.w3.org/2000/svg">
<metadata>
Created by FontForge 20120731 at Tue Dec 13 15:11:57 2016
 By admin
</metadata>
<defs>
<font id="iconfont" horiz-adv-x="1024" >
  <font-face 
    font-family="iconfont"
    font-weight="500"
    font-stretch="normal"
    units-per-em="1024"
    panose-1="2 0 6 3 0 0 0 0 0 0"
    ascent="896"
    descent="-128"
    x-height="792"
    bbox="-0.494949 -128 1593 896"
    underline-thickness="0"
    underline-position="0"
    unicode-range="U+0078-E752"
  />
<missing-glyph 
 />
    <glyph glyph-name=".notdef" 
 />
    <glyph glyph-name=".notdef" 
 />
    <glyph glyph-name=".null" horiz-adv-x="0" 
 />
    <glyph glyph-name="nonmarkingreturn" horiz-adv-x="341" 
 />
    <glyph glyph-name="x" unicode="x" horiz-adv-x="1001" 
d="M281 543q-27 -1 -53 -1h-83q-18 0 -36.5 -6t-32.5 -18.5t-23 -32t-9 -45.5v-76h912v41q0 16 -0.5 30t-0.5 18q0 13 -5 29t-17 29.5t-31.5 22.5t-49.5 9h-133v-97h-438v97zM955 310v-52q0 -23 0.5 -52t0.5 -58t-10.5 -47.5t-26 -30t-33 -16t-31.5 -4.5q-14 -1 -29.5 -0.5
t-29.5 0.5h-32l-45 128h-439l-44 -128h-29h-34q-20 0 -45 1q-25 0 -41 9.5t-25.5 23t-13.5 29.5t-4 30v167h911zM163 247q-12 0 -21 -8.5t-9 -21.5t9 -21.5t21 -8.5q13 0 22 8.5t9 21.5t-9 21.5t-22 8.5zM316 123q-8 -26 -14 -48q-5 -19 -10.5 -37t-7.5 -25t-3 -15t1 -14.5
t9.5 -10.5t21.5 -4h37h67h81h80h64h36q23 0 34 12t2 38q-5 13 -9.5 30.5t-9.5 34.5q-5 19 -11 39h-368zM336 498v228q0 11 2.5 23t10 21.5t20.5 15.5t34 6h188q31 0 51.5 -14.5t20.5 -52.5v-227h-327z" />
    <glyph glyph-name="close" unicode="&#xe601;" 
d="M179 -23h1l332 332l337 -336q15 -16 37 -16t37.5 15.5t15.5 37.5t-16 37l-336 337l341 341h-1q13 15 12 35.5t-15.5 35t-35 15.5t-35.5 -12v0h-1l-3.5 -3.5l-3.5 -3.5l-333 -333l-337 336q-15 16 -37 16t-37.5 -15.5t-15.5 -37.5t16 -37l336 -337l-332 -333l-4 -4
q-16 -15 -16 -37t15.5 -37.5t37.5 -15.5t37 16l4 4v0z" />
    <glyph glyph-name="icon_baohu" unicode="&#xe731;" 
d="M0 641l4 74q2 23 19.5 39.5t39.5 18.5q5 0 35.5 1.5t46.5 3.5q67 7 155 38t145 68q30 18 59 8q8 -2 16 -8q51 -32 129.5 -62t137.5 -40q51 -8 110 -9q29 0 47 -18t20 -47q5 -78 -2 -154q-27 -282 -192 -480q-44 -53 -119.5 -110t-138.5 -85q-14 -7 -28 -7q-16 0 -30 7
q-56 26 -126 76.5t-112 97.5q-127 140 -181 334q-14 52 -24 126.5t-11 127.5zM68 708q0 -4 -0.5 -11.5t-1 -13.5t-0.5 -11q-3 -92 12 -178q24 -147 92 -267q110 -196 308 -288q2 -1 5.5 -1t5.5 1q182 84 289 255q135 216 123 497q-1 3 -1.5 9t-0.5 8l-6 1q-60 1 -120 11
q-64 10 -147 42t-137 66q-5 4 -11 1q-34 -21 -49 -29q-59 -32 -149.5 -58t-157.5 -31q-12 -1 -54 -3v0zM420 303q1 2 2.5 4t2.5 3l226 226q14 14 30 11q19 -2 25 -20q3 -6 3 -12q0 -12 -8 -20l-6 -6l-249 -249q-27 -27 -54 0l-123 123q-10 10 -10.5 23t7.5 22q10 11 24 11
t23 -10q14 -12 59 -58z" />
    <glyph glyph-name="icon_rexian" unicode="&#xe733;" 
d="M652 805h12q47 0 105 -23t93 -55q36 -33 63.5 -92.5t29.5 -110.5q1 -13 11 -23t24 -10t24 10.5t10 24.5v1q-2 62 -36 135.5t-80 115.5q-42 40 -113.5 68t-130.5 28q-7 0 -15 -1q-14 0 -23.5 -10t-9.5 -24t10 -24.5t24 -10.5h2v1zM651 553h3q19 0 34 -14t16 -35
q1 -14 11 -23.5t24 -9.5t24 10t10 24v2q-1 20 -12 44.5t-26 38.5q-15 13 -38.5 22t-42.5 9h-5q-14 0 -23.5 -10t-9.5 -24t10 -24t24 -10h1zM667 736q-13 0 -23 -10.5t-10 -23.5q0 -15 10.5 -25t24.5 -10h1h6q56 0 97.5 -39.5t43.5 -95.5q1 -14 11 -23.5t24 -9.5t24 10t10 24
v2q-4 83 -65.5 142t-144.5 59h-9v0zM832 328q-61 23 -118.5 24t-98.5 -20q-35 -18 -52 -49q-35 26 -79.5 67.5t-72.5 75.5q41 26 54 81q20 83 -27 185q-42 90 -110 137t-132 29l-4 -1l-9 -2q-1 0 -2 -1q-72 -26 -113 -69q-19 -20 -36.5 -53t-23.5 -60q-29 -122 41 -278
t212 -289q89 -82 187 -137.5t193 -76.5q55 -13 105 -13q132 0 209 82q20 21 38 57t23 65q2 5 3 11l1 2q15 65 -38 130.5t-150 102.5v0zM961 109v0v-1l-2 -6l-2 -6q-11 -57 -47 -95q-40 -44 -106.5 -57t-149.5 6q-87 19 -178 71t-174 129q-131 121 -195.5 261.5t-39.5 246.5
v1q5 20 18 44.5t27 39.5q30 33 88 54l7 2l5 1q41 11 90 -27t81 -106q38 -83 23 -146q-9 -38 -36 -49q-5 -2 -9 -6q-13 -11 -18 -28q-1 -5 -1 -9q0 -15 10 -26q34 -43 89.5 -95.5t100.5 -84.5q2 -2 5 -3q27 -11 44 -3q14 7 19 23q7 25 33 38q29 15 74.5 13t93.5 -20
q73 -27 116.5 -74t33.5 -88v0z" />
    <glyph glyph-name="icon_shiting" unicode="&#xe734;" horiz-adv-x="1297" 
d="M991 -89q-1 -1 -2 -1q-12 0 -23 1l-40 4v468l29 11q26 10 60 9q29 0 62.5 -16.5t51.5 -39.5q10 -12 10 -28q0 -19 -13 -32t-32 -13q-22 0 -35 18q-7 9 -20 15.5t-24 7.5v-315q78 6 119 44q40 37 40 106q0 73 -7.5 138.5t-18 112t-28.5 90t-32 69.5t-35.5 53.5t-33 38.5
t-29.5 29q-68 65 -161.5 95.5t-179.5 30.5q-45 0 -83.5 -5t-87.5 -19t-98.5 -45.5t-96.5 -78.5q-50 -51 -84 -113.5t-49.5 -132t-21 -129.5t-5.5 -134q0 -58 36 -94q40 -40 122 -52v315q-5 1 -10 1q-7 0 -14 -2q-8 -3 -13 -14q-5 -12 -17 -20.5t-25 -8.5q-18 0 -31 13
t-13 32q0 10 5 20q20 45 64 62q18 6 39 7t38 -3.5t26 -7.5t14 -6l26 -12v-468l-44 -1q-7 0 -18.5 0.5t-40.5 5t-55.5 12t-59 24.5t-56.5 40q-62 62 -62 157q0 177 34 301q44 161 152 271q100 100 220 142q93 32 209 32q105 0 208 -36q115 -40 194 -115q88 -84 134 -181
q78 -165 78 -414q0 -109 -69 -172q-75 -67 -203 -67v0z" />
    <glyph glyph-name="icon_xiala" unicode="&#xe736;" horiz-adv-x="1592" 
d="M896 0l655 655q18 18 30 47t12 53q0 58 -41.5 99.5t-99.5 41.5h-1311v0q-58 0 -99.5 -41.5t-41.5 -99.5t41 -100l656 -655q17 -17 46 -29t53.5 -12t53.5 12t46 29v0z" />
    <glyph glyph-name="icon_zaixianzixun" unicode="&#xe737;" horiz-adv-x="1151" 
d="M1047 348v0q-7 -13 -18 -39.5t-18 -40.5v-4q14 -33 14 -71q0 -50 -28 -94t-75 -71l-9 -5q-8 -9 -8 -17v-41l-36 27l-9 5q-4 4 -13 4h-9q-18 -4 -54 -4q-62 0 -115 26q-53 -13 -107 -13q44 -37 102 -58.5t120 -21.5q45 0 67 4l85 -58q2 0 4 -2t5 -2q7 0 12 5.5t5 12.5v84
q62 38 100 98.5t38 128.5q0 81 -53 147v0zM535 896q-136 0 -251.5 -58.5t-183.5 -160.5t-68 -222q0 -108 57.5 -203.5t156.5 -156.5v-134q0 -13 8 -22t18 -9q9 0 14 4l138 94q35 -9 107 -9q101 0 194 34.5t160.5 93t108 139.5t40.5 169q1 90 -38 172t-106 140.5t-160 93.5
t-195 35v0zM535 90q-31 0 -93 9l-14 5q-18 0 -26 -5l-14 -9l-67 -44v75q0 10 -5 19t-12 12l-18 5q-85 51 -134 130t-49 168q0 99 57.5 183t157 133t217.5 49q116 0 215.5 -49t158 -133t58.5 -182.5t-58.5 -183t-158 -133.5t-215.5 -49v0zM250 442q0 -24 18.5 -43.5
t44.5 -19.5q24 0 43 18.5t19 44.5q0 24 -18 43t-44 19h-2q-25 0 -43 -17.5t-18 -43.5v-1zM477 442q0 -24 18.5 -43.5t44.5 -19.5q24 0 43 18.5t19 44.5q0 24 -18 43t-44 19h-2q-25 0 -43 -17.5t-18 -43.5v-1zM700 442q0 -24 18 -43.5t44 -19.5q24 0 43.5 18.5t19.5 44.5
q0 24 -18.5 43t-44.5 19h-1q-25 0 -43 -17.5t-18 -43.5v-1z" />
    <glyph glyph-name="icon_nianji" unicode="&#xe738;" 
d="M320 725q-17 0 -43 -8q-8 -4 -34 -22q-17 -25 -21 -38q-9 -26 -9 -38v-465q0 -17 9 -43q0 -2 2 -4t2 -5q10 -20 21 -25q3 -2 9 -6.5t9 -6.5h4q4 -4 13 -4q25 -9 42 -9h504v674h-508zM375 687h107v-243l-38 38q-7 7 -15.5 7t-14.5 -7l-39 -38v243zM785 81h-465
q-29 0 -48.5 20t-19.5 48.5t19.5 48.5t48.5 20h461v-137h4zM320 260q-17 0 -43 -8q-17 -9 -25 -17v384q0 28 19.5 48t48.5 20h13v-290q5 -16 17 -22q11 -5 21 5l60 59l60 -59q4 -5 12 -5h9q13 7 13 18v294h260v-427h-465z" />
    <glyph glyph-name="icon_shouji" unicode="&#xe739;" 
d="M516 107q14 0 24 9.5t10 24.5t-10 22.5t-24 7.5q-13 0 -23.5 -9.5t-10.5 -24.5t10 -22.5t24 -7.5zM299 619v21q0 19 11.5 31t30.5 12h354q20 0 31.5 -12t11.5 -31v-21h-439zM299 576h439v-341h-439v341zM695 85h-354q-19 0 -30.5 12t-11.5 31v64h439v-64q0 -18 -13 -30.5
t-30 -12.5zM341 725q-35 0 -60 -25t-25 -60v-512q0 -35 25 -60t60 -25h354q36 0 61 25t25 60v512q0 35 -25 60t-61 25h-354z" />
    <glyph glyph-name="icon_shebeixuanze" unicode="&#xe73a;" 
d="M819 691h-554q-36 0 -61 -25t-25 -60v-469q0 -36 25 -61t61 -25h554q35 0 60.5 25t25.5 61v469q0 35 -25.5 60t-60.5 25zM862 137q0 -20 -12 -31.5t-31 -11.5h-554q-20 0 -31.5 11.5t-11.5 31.5v469q0 19 11.5 31t31.5 12h554q19 0 31 -12t12 -31v-469zM542 559
q-7 4 -19 9.5t-49 15t-73 9.5q-70 0 -132 -34v-410q7 4 19 9.5t49 15t73 9.5q69 0 132 -34q62 34 132 34q36 0 71.5 -8.5t52.5 -16.5l17 -9v410q-57 34 -128 34q-38 0 -74.5 -8.5t-53.5 -17.5zM525 201q-57 21 -111 21q-51 0 -103 -17v333q50 21 94 21q29 0 58 -5.5
t44 -11.5t18 -9v-332zM777 205q-52 17 -103 17q-54 0 -111 -21v328q3 3 18 8.5t44 11.5t58 6q51 0 94 -22v-328z" />
    <glyph glyph-name="icon_jiantou_down" unicode="&#xe73b;" 
d="M249 896v-537h-167l430 -487l430 487h-167v537h-526z" />
    <glyph glyph-name="icon_dengji" unicode="&#xe73d;" 
d="M576 6q-85 -64 -166 -64q-54 0 -114 32.5t-111 83.5t-93.5 110.5t-67 119t-24.5 102.5v346q0 3 3 9.5t3 9.5q13 13 26 13q53 0 116 9.5t135 37t107 68.5q13 13 20 13q19 0 19 -6q-1 0 8 -7t26 -17.5t40 -23.5t54.5 -26t66 -24t77.5 -17.5t86 -6.5q15 0 23.5 -9t8.5 -23
v-307q88 -20 146.5 -90t58.5 -160q0 -105 -75 -180.5t-181 -75.5q-109 0 -192 83zM275 602q-4 13 -16.5 18.5t-21.5 0.5q-28 -19 -19 -45l166 -333q10 -19 26 -19t25 19l167 333q4 10 0 22t-13 16q-10 10 -22 6t-17 -18l-140 -282zM768 -26q86 0 145.5 59.5t59.5 146
t-59.5 145.5t-145.5 59t-145.5 -59t-59.5 -145.5t59.5 -146t145.5 -59.5z" />
    <glyph glyph-name="icon_star" unicode="&#xe740;" horiz-adv-x="1088" 
d="M730 -115l-205 115l-205 -115q-25 -14 -53.5 -11.5t-48.5 17.5q-23 14 -33.5 42.5t-5.5 53.5l39 243l-173 180q-20 20 -27.5 46t1.5 56q9 28 30.5 46.5t46.5 23.5l237 39l102 217q16 26 39 42t51 16t54 -16.5t35 -41.5l103 -217l237 -39q28 -4 50.5 -21.5t32.5 -42.5
q9 -29 1.5 -55.5t-27.5 -46.5l-173 -179l39 -243q4 -28 -7 -54.5t-32 -41.5q-28 -20 -57 -20q-5 -1 -9.5 -1.5t-8 -0.5t-9 1t-7.5 1.5t-9 3t-8 3.5z" />
    <glyph glyph-name="icon_gerendefenshuai" unicode="&#xe741;" 
d="M657 478q0 8 -7 16.5t-19 8.5q-11 0 -14 -5t-3 -20q0 -45 -33 -78t-77.5 -33t-77.5 33t-33 78q0 8 -7.5 16.5t-18.5 8.5q-8 0 -17 -7t-9 -18q0 -64 45 -109t109 -45q70 0 116 44.5t46 109.5zM503 811q-140 0 -236 -96t-96 -237q0 -110 65 -197t174 -119l-69 -205
q0 -25 17 -25h9q6 0 11.5 5t5.5 12l77 222v17q0 8 -17 8q-102 26 -166.5 105.5t-64.5 176.5q0 121 84.5 205.5t205.5 84.5t201.5 -84t80.5 -206v-34q-13 -84 -67.5 -149t-137.5 -90q-4 0 -8.5 -4.5t-8.5 -4.5v-17l77 -230q0 -7 5.5 -12t11.5 -5h9q6 0 11.5 9t5.5 16l-69 214
q85 32 143 105t71 168v42q0 89 -43.5 163.5t-118 118t-163.5 43.5z" />
    <glyph glyph-name="icon_pingjundefenshuai" unicode="&#xe742;" 
d="M828 247q-26 0 -43 -8l-179 316q51 38 51 111q0 57 -43.5 101t-101.5 44q-59 0 -102 -41.5t-43 -103.5q0 -73 51 -111l-179 -316q8 0 26 -17q-26 25 -69 25q-59 0 -102 -41t-43 -104q0 -59 41.5 -102t103.5 -43q50 0 91 32.5t54 78.5h350q7 -45 46.5 -78t90.5 -33
q59 0 102 41.5t43 103.5q0 60 -41.5 102.5t-103.5 42.5zM512 751q32 0 58.5 -26.5t26.5 -58.5t-26.5 -59t-58.5 -27q-34 0 -59.5 24.5t-25.5 61.5t25.5 61t59.5 24zM196 17q-32 0 -58.5 26.5t-26.5 58.5t26.5 59t58.5 27q34 0 60 -24.5t26 -61.5t-26 -61t-60 -24zM691 128
h-358q0 43 -43 85l179 316q-8 0 -25 17q25 -25 68 -25q26 0 77 17q-3 0 -14 -4.5t-20 -4.5l179 -316q-21 -21 -32 -41t-11 -44zM828 17q-32 0 -59 26.5t-27 58.5t27 59t59 27t58.5 -27t26.5 -59q0 -38 -23.5 -61.5t-61.5 -23.5z" />
    <glyph glyph-name="icon-test" unicode="&#xe744;" 
d="M576 6q-85 -64 -166 -64q-54 0 -114 32.5t-111 83.5t-93.5 110.5t-67 119t-24.5 102.5v346q0 3 3 9.5t3 9.5q13 13 26 13q53 0 116 9.5t135 37t107 68.5q13 13 20 13q19 0 19 -6q-1 0 8 -7t26 -17.5t40 -23.5t54.5 -26t66 -24t77.5 -17.5t86 -6.5q15 0 23.5 -9t8.5 -23
v-307q88 -20 146.5 -90t58.5 -160q0 -105 -75 -180.5t-181 -75.5q-109 0 -192 83zM275 602q-4 13 -16.5 18.5t-21.5 0.5q-28 -19 -19 -45l166 -333q10 -19 26 -19t25 19l167 333q4 10 0 22t-13 16q-10 10 -22 6t-17 -18l-140 -282zM768 -26q86 0 145.5 59.5t59.5 146
t-59.5 145.5t-145.5 59t-145.5 -59t-59.5 -145.5t59.5 -146t145.5 -59.5zM838 307v-25h-108l-7 -77q13 13 26 19q6 6 32 6q32 0 51 -19t19 -57q0 -41 -25 -58q-20 -19 -58 -19q-32 0 -51 19q-11 11 -18.5 24.5t-7.5 26.5h26q0 -22 19 -32q13 -13 32 -13q10 0 22 4t16 9
q13 13 13 39q0 19 -13 44q-6 13 -38 13q-19 0 -32 -6l-19 -19h-26l13 128h134v-7z" />
    <glyph glyph-name="icon-test1" unicode="&#xe745;" 
d="M576 6q-85 -64 -166 -64q-54 0 -114 32.5t-111 83.5t-93.5 110.5t-67 119t-24.5 102.5v346q0 3 3 9.5t3 9.5q13 13 26 13q53 0 116 9.5t135 37t107 68.5q13 13 20 13q19 0 19 -6q-1 0 8 -7t26 -17.5t40 -23.5t54.5 -26t66 -24t77.5 -17.5t86 -6.5q15 0 23.5 -9t8.5 -23
v-307q88 -20 146.5 -90t58.5 -160q0 -105 -75 -180.5t-181 -75.5q-109 0 -192 83zM275 602q-4 13 -16.5 18.5t-21.5 0.5q-28 -19 -19 -45l166 -333q10 -19 26 -19t25 19l167 333q4 10 0 22t-13 16q-10 10 -22 6t-17 -18l-140 -282zM768 -26q86 0 145.5 59.5t59.5 146
t-59.5 145.5t-145.5 59t-145.5 -59t-59.5 -145.5t59.5 -146t145.5 -59.5zM800 307v-230h-26v198q-22 -22 -51 -32v26q6 0 10.5 1.5t11.5 5.5t10 6q17 8 26 25h19z" />
    <glyph glyph-name="icon-test2" unicode="&#xe746;" 
d="M576 -10q-85 -64 -166 -64q-54 0 -114 32.5t-111 83.5t-93.5 110.5t-67 119t-24.5 102.5v346q0 3 3 9.5t3 9.5q13 13 26 13q53 0 116 9.5t135 37t107 68.5q13 13 20 13q19 0 19 -6q6 -5 17 -13.5t48 -29.5t76 -37t98.5 -29t118.5 -13q15 0 23.5 -9t8.5 -23v-307
q88 -20 146.5 -90t58.5 -160q0 -105 -75 -180.5t-181 -75.5q-109 0 -192 83zM275 586q-4 13 -16.5 18.5t-21.5 0.5q-28 -19 -19 -45l166 -333q10 -19 26 -19t25 19l167 333q4 10 0 22t-13 16q-10 10 -22 6t-17 -18l-140 -282zM768 -42q86 0 145.5 59.5t59.5 146t-59.5 145.5
t-145.5 59t-145.5 -59t-59.5 -145.5t59.5 -146t145.5 -59.5zM826 278q19 -19 19 -51t-19 -51q-2 -2 -18 -14.5t-27 -23.5q-37 -22 -51 -52h121v-25h-153q0 32 25 57q9 17 51 39l39 25q19 20 19 39t-13 32q-6 6 -22 12.5t-29 6.5t-38 -13q-13 -25 -13 -45h-26q0 36 19 64
q26 26 58 26q14 -7 33.5 -15t24.5 -11z" />
    <glyph glyph-name="icon-test3" unicode="&#xe747;" 
d="M576 -42q-85 -64 -166 -64q-54 0 -114 32.5t-111 83.5t-93.5 110.5t-67 119t-24.5 102.5v346q0 3 3 9.5t3 9.5q13 13 26 13q53 0 116 9.5t135 37t107 68.5q13 13 20 13q19 0 19 -6q6 -5 17 -13.5t48 -29.5t76 -37t98.5 -29t118.5 -13q15 0 23.5 -9t8.5 -23v-307
q88 -20 146.5 -90t58.5 -160q0 -105 -75 -180.5t-181 -75.5q-109 0 -192 83zM275 554q-4 13 -16.5 18.5t-21.5 0.5q-28 -19 -19 -45l166 -333q10 -19 26 -19t25 19l167 333q4 10 0 22t-13 16q-10 10 -22 6t-17 -18l-140 -282zM768 -74q86 0 145.5 59.5t59.5 146t-59.5 145.5
t-145.5 59t-145.5 -59t-59.5 -145.5t59.5 -146t145.5 -59.5zM819 259v-153h39v-26h-39v-51h-25v51h-116v26l116 153h25zM704 99h96v122z" />
    <glyph glyph-name="icon-test4" unicode="&#xe748;" 
d="M576 -26q-85 -64 -166 -64q-54 0 -114 32.5t-111 83.5t-93.5 110.5t-67 119t-24.5 102.5v346q0 3 3 9.5t3 9.5q13 13 26 13q53 0 116 9.5t135 37t107 68.5q13 13 20 13q19 0 19 -6q6 -5 17 -13.5t48 -29.5t76 -37t98.5 -29t118.5 -13q15 0 23.5 -9t8.5 -23v-307
q88 -20 146.5 -90t58.5 -160q0 -105 -75 -180.5t-181 -75.5q-109 0 -192 83zM275 570q-4 13 -16.5 18.5t-21.5 0.5q-28 -19 -19 -45l166 -333q10 -19 26 -19t25 19l167 333q4 10 0 22t-13 16q-10 10 -22 6t-17 -18l-140 -282zM768 -58q86 0 145.5 59.5t59.5 146t-59.5 145.5
t-145.5 59t-145.5 -59t-59.5 -145.5t59.5 -146t145.5 -59.5zM826 262q19 -19 19 -44q0 -42 -39 -52q26 -12 32 -19q13 -13 13 -32q0 -32 -19 -51t-58 -19q-32 0 -51 19q-25 17 -25 58h25q0 -29 19 -39q3 -1 9 -4.5t8.5 -4.5t8.5 -2.5t13 -1.5q25 0 38 13t13 32t-13 32
t-38 13h-19v19h6q19 0 32 13t13 32t-13 32t-32 13q-13 0 -38 -13q-13 -13 -13 -38h-26q0 13 7.5 26.5t18.5 24.5q19 19 51 19q10 -5 30 -11.5t28 -14.5z" />
    <glyph glyph-name="icon_daxuesheng" unicode="&#xe74e;" 
d="M330 208q83 -58 188.5 -58t187.5 58v175l-188 -100l-188 100v-175zM782 451l35 17l-299 150l-299 -148l299 -149l226 113v-62q-19 -10 -19 -32q0 -16 11 -27t26.5 -11t26.5 11t11 27q0 20 -18 30v81z" />
    <glyph glyph-name="icon_xin" unicode="&#xe74f;" 
d="M630 603q-55 0 -125 -83q-70 83 -125 83q-66 0 -113.5 -45t-47.5 -109q0 -24 8.5 -47.5t16.5 -36t22 -32.5q27 -37 84 -86.5t85.5 -70.5t48.5 -34q9 -7 21 -7v0q11 0 20 7q20 13 48.5 33.5t86 70.5t84.5 87q14 20 21.5 32.5t16 36t8.5 47.5q0 64 -47 109t-113 45z" />
    <glyph glyph-name="icon_zan" unicode="&#xe750;" 
d="M704 482q-7 0 -24.5 -2t-39.5 -5t-32 -4q0 7 14 55q2 5 7 20.5t6 21l4 22t0 23.5q-4 26 -22.5 40t-39.5 7.5t-31 -31.5l-27 -65q-3 -3 -7.5 -11t-6 -10t-5.5 -8t-7 -8.5t-8 -7.5t-10.5 -9t-13 -9.5t-16.5 -12.5q-38 -26 -63 -46q-12 -9 -12 -20v-221q0 -12 10 -19
q25 -17 96 -30t121 -13h29t20.5 3t24.5 9q8 5 14 14t8 10q13 12 18.5 28t6.5 28.5t4 14.5q15 15 22 33.5t8 34t2 18.5q6 14 8.5 21.5t3.5 15t3 15.5q15 51 -3 73t-62 25zM288 462q-16 0 -27.5 -11t-11.5 -26v-226q0 -16 11.5 -27t27.5 -11t27.5 11t11.5 27v226
q0 15 -11.5 26t-27.5 11z" />
    <glyph glyph-name="icon_laoshi" unicode="&#xe751;" 
d="M478 630q-28 -6 -47 -22.5t-24 -40.5q-6 -27 1 -65q3 -15 -1 -22t-3 -22q4 -49 21 -54q5 -2 6 -3l3 -23q2 -22 9 -31q11 -15 2 -17q-5 -1 -13 -16q-7 -14 -12.5 -19.5t-15.5 -7.5q-9 -3 -58 -23q-47 -20 -65 -26q-25 -9 -34 -20t-11 -36q-2 -20 -2 -40v-21h248l9 60l9 61
l-12 16l-11 16q1 1 3 2.5t7 4.5t9 6l18 11l19 -12q18 -11 17 -14q0 -1 -11 -16l-10 -14l8 -60l9 -61h249l-1 34q-2 46 -10 59t-42 25q-18 7 -63 26q-46 19 -55 22q-9 2 -14.5 7.5t-13.5 19.5q-7 15 -12 16q-10 2 1 17q7 9 9 32q3 22 3 23t4 1q15 0 21 38q5 29 -1 40
q-4 6 -1 21q7 38 1 65q-11 50 -72 63q-36 7 -71 0z" />
    <glyph glyph-name="icon_guihua" unicode="&#xe752;" 
d="M331 618q16 0 27.5 -11t11.5 -27v-29q0 -16 -12 -27q-10 -11 -26 -11h-1h-30v0q-16 0 -27 11t-11 27v0v29q0 16 11 27t27 11v0h30v0zM723 618q15 0 26.5 -11t11.5 -27v-29v0q0 -16 -11 -27t-27 -11v0h-244h-1q-15 0 -26 11t-11 27v0v29q0 16 11 27t27 11h244v0zM331 440
q16 0 27.5 -11t11.5 -27v-29q0 -15 -12 -26q-10 -12 -26 -12h-1h-30v0q-16 0 -27 12q-11 10 -11 26v0v29q0 16 11 27t27 11v0h30v0zM723 440q15 0 26.5 -11t11.5 -27v-29q0 -15 -11 -26q-11 -12 -27 -12v0h-244q-16 0 -27 12q-11 10 -11 26v0v29q0 16 11 27t26 11h1h244v0z
M331 262q16 0 27 -11q12 -11 12 -26v0v-29q0 -17 -12 -28q-10 -11 -26 -11h-1h-30v0q-16 0 -27 11t-11 27v1v29q0 15 11 26t27 11v0h30zM723 262q15 0 26.5 -11t11.5 -26v-29q0 -17 -11 -28t-27 -11v0h-244q-16 0 -27 11t-11 27v1v29q0 15 11 26t26 11h1h244z" />
  </font>
</defs>
</svg>
