<?xml version="1.0" encoding="UTF-8"?>
<svg width="89px" height="68px" viewBox="0 0 89 68" version="1.1" xmlns="http://www.w3.org/2000/svg" xmlns:xlink="http://www.w3.org/1999/xlink">
    <defs></defs>
    <g id="切图" stroke="none" stroke-width="1" fill="none" fill-rule="evenodd">
        <g id="银行卡-copy" fill-rule="nonzero" fill="#0BCEFF">
            <g id="支付宝-(2)" transform="translate(16.000000, 6.000000)">
                <path d="M16.948,31.0004 C21.9754,31.0004 25.7716,33.0695 29.678,34.6465 C25.5626,39.653 21.4396,43.5556 16.948,43.5556 C12.9751,43.5556 6.3897,42.199 6.3897,37.3559 C6.3897,33.1398 12.2246,31.0004 16.948,31.0004 L16.948,31.0004 Z M57,4.9932 L57,51.9992 C56.9958148,54.7593302 54.7593302,56.9958148 51.9992,57 L4.9932,57 C2.23560504,56.9926761 0.00312986208,54.7568029 0,51.9992 L0,4.9932 C0.00834613945,2.23899628 2.23899628,0.00834613945 4.9932,0 L51.9992,0 C54.7563712,0.00417120843 56.9916354,2.2360383 57,4.9932 L57,4.9932 Z M56.9791,38.2128 C53.0043,37.2913 45.3891,34.5306 38.1463,32.0055 C39.7968133,29.1379615 41.0792885,26.0738097 41.9634,22.8855 L42.142,22.2205 C42.3206,21.5441 42.484,20.6093 42.6341,19.9101 L31.293,19.9101 L31.293,17.043 L45.543,17.043 L45.543,14.2044 L31.293,14.2044 L31.293,8.46260002 L25.5664,8.46260002 L25.5664,14.2044 L11.3164,14.2044 L11.3164,17.043 L25.5664,17.043 L25.5664,19.9101 L14.1664,19.9101 L14.1664,22.7487 L35.4369,22.7487 C34.9247109,25.343774 34.0126085,27.8435627 32.7332,30.1587 C27.5710102,28.5357254 22.233496,27.5349415 16.834,27.1776 C12.1277,27.1776 4.31679998,30.7781 4.31679998,37.3483 C4.31679998,43.8254 8.81029996,47.4696 16.834,47.4696 C24.5385,47.4696 30.2081,43.6183 34.7947,36.7916 C43.5347,40.5916 51.6363,44.7887 56.9658,47.1922 L56.9658,38.2052 L56.9791,38.2128 Z" id="Shape"></path>
            </g>
        </g>
    </g>
</svg>