<?xml version="1.0" encoding="UTF-8"?>
<svg width="200px" height="200px" viewBox="0 0 200 200" version="1.1" xmlns="http://www.w3.org/2000/svg" xmlns:xlink="http://www.w3.org/1999/xlink">
    <!-- Generator: Sketch 45.2 (43514) - http://www.bohemiancoding.com/sketch -->
    <title>缺省图</title>
    <desc>Created with Sketch.</desc>
    <defs></defs>
    <g id="切图" stroke="none" stroke-width="1" fill="none" fill-rule="evenodd">
        <g id="缺省图">
            <g id="Group-3" transform="translate(34.000000, 49.000000)">
                <rect id="Rectangle-6" fill="#DCE8EE" x="97" y="32" width="6" height="19"></rect>
                <rect id="Rectangle-6" fill="#B9D6E4" x="103" y="32" width="6" height="19"></rect>
                <g id="Group" transform="translate(93.500000, 63.500000) scale(-1, 1) translate(-93.500000, -63.500000) translate(85.000000, 47.000000)" fill="#DCE8EE">
                    <circle id="Oval-5" cx="1" cy="32" r="1"></circle>
                    <path d="M1,0.00743111437 C9.88139106,0.27176267 17,7.55456123 17,16.5 C17,25.4454388 9.88139106,32.7282373 1,32.9925689 L1,30.9883049 C6.5668168,30.7273284 11,26.1313769 11,20.5 C11,14.8686231 6.5668168,10.2726716 1,10.0116951 L1,0.00743111437 Z" id="Combined-Shape"></path>
                </g>
                <g id="金币" transform="translate(97.000000, 74.000000)">
                    <ellipse id="Oval-4" fill="#F5A623" cx="4.58333333" cy="5" rx="4.58333333" ry="5"></ellipse>
                    <path d="M5.41666667,10 C7.94797177,10 10,7.76142375 10,5 C10,2.23857625 7.94797177,0 5.41666667,0 C2.88536156,0 0.833333333,2.23857625 0.833333333,5 C0.833333333,7.76142375 2.88536156,10 5.41666667,10 Z" id="Oval-4" fill="#FFDC00"></path>
                    <polygon id="¥" fill="#FFFFFF" points="3.17659372 2.51885543 4.87659372 5.21139275 3.64326038 5.42840816 3.64326038 5.84507483 5.10992705 5.58700245 5.10992705 6.40366912 3.64326038 6.66174149 3.64326038 7.07840816 5.10992705 6.82033579 5.10992705 8.12866912 5.84326038 7.99963293 5.84326038 6.6912996 7.31826038 6.43176091 7.31826038 6.01509424 5.84326038 6.27463293 5.84326038 5.45796627 7.31826038 5.19842757 7.31826038 4.78176091 6.07659372 5.00024263 7.77659372 1.70944662 6.95159372 1.85461233 5.47659372 4.84748436 4.00159372 2.37368972"></polygon>
                </g>
                <g id="Group" transform="translate(105.000000, 47.000000)" fill="#B9D6E4">
                    <circle id="Oval-5" cx="1" cy="32" r="1"></circle>
                    <path d="M1,0.00743111437 C9.88139106,0.27176267 17,7.55456123 17,16.5 C17,25.4454388 9.88139106,32.7282373 1,32.9925689 L1,30.9883049 C6.5668168,30.7273284 11,26.1313769 11,20.5 C11,14.8686231 6.5668168,10.2726716 1,10.0116951 L1,0.00743111437 Z" id="Combined-Shape"></path>
                </g>
                <rect id="Rectangle-7" fill="#DCE8EE" x="100" y="47" width="3" height="10"></rect>
                <rect id="Rectangle-7" fill="#B9D6E4" x="103" y="47" width="3" height="10"></rect>
                <path d="M20,95 L64,95 L64,95 C66.209139,95 68,96.790861 68,99 L68,111 L16,111 L16,99 L16,99 C16,96.790861 17.790861,95 20,95 Z" id="Rectangle-4" fill="#F2C000"></path>
                <path d="M20,95 L63,95 L63,95 C65.209139,95 67,96.790861 67,99 L67,110 L16,110 L16,99 L16,99 C16,96.790861 17.790861,95 20,95 Z" id="Rectangle-4" fill="#F9D000"></path>
                <rect id="Rectangle-5" fill="#FFDC00" transform="translate(69.762367, 21.216744) rotate(-265.000000) translate(-69.762367, -21.216744) " x="58.2623672" y="-28.0332562" width="23" height="98.5" rx="11.5"></rect>
                <path d="M38.7318825,6.96159413 L29.5,6.5 L44.5,30.5 L39.6600508,7.75223882 L39.6600508,7.75223882 C39.5656898,7.30874203 39.1847409,6.98423704 38.7318825,6.96159413 Z" id="Path-2" fill="#FFC000"></path>
                <rect id="Rectangle-5" fill="#FFDC00" transform="translate(31.804410, 39.251104) rotate(-17.000000) translate(-31.804410, -39.251104) " x="15.8044098" y="3.25110434" width="32" height="72" rx="16"></rect>
                <rect id="Rectangle-5" fill="#FFBC4C" opacity="0.5" transform="translate(41.982924, 68.144210) rotate(-17.000000) translate(-41.982924, -68.144210) " x="23.4829238" y="50.6442098" width="37" height="35" rx="17.5"></rect>
                <path d="M35,53 L49,53 L49,53 C56.7319865,53 63,59.2680135 63,67 L63,95 L21,95 L21,67 L21,67 C21,59.2680135 27.2680135,53 35,53 Z" id="Rectangle-4" fill="#FFBF09"></path>
                <path d="M35,53 L48,53 L48,53 C55.7319865,53 62,59.2680135 62,67 L62,93 L21,93 L21,67 L21,67 C21,59.2680135 27.2680135,53 35,53 Z" id="Rectangle-4" fill="#FFDC00"></path>
                <ellipse id="Oval-7" fill="#F5A623" cx="41.7949724" cy="73" rx="13.7949724" ry="14"></ellipse>
                <ellipse id="Oval-7" fill="#FFC000" cx="41.2201819" cy="72.4166667" rx="13.2201819" ry="13.4166667"></ellipse>
                <circle id="Oval-7" fill="#F5A623" cx="24.5834531" cy="16.5834531" r="7.58345309"></circle>
                <circle id="Oval-7" fill="#FFC000" cx="24.2674759" cy="16.2674759" r="7.26747587"></circle>
                <circle id="Oval-7" fill="#F5A623" cx="106" cy="24" r="6"></circle>
                <circle id="Oval-7" fill="#FFC000" cx="105.75" cy="23.75" r="5.75"></circle>
                <ellipse id="Oval-3" fill="#E6E1E1" cx="77.5" cy="125" rx="77.5" ry="5"></ellipse>
                <path d="M11,111 L73,111 L73,111 C74.1045695,111 75,111.895431 75,113 L75,125 L9,125 L9,113 L9,113 C9,111.895431 9.8954305,111 11,111 Z" id="Rectangle" fill="#B4B0AA"></path>
                <rect id="Rectangle-2" fill="#9C9B99" x="9" y="122" width="66" height="3"></rect>
                <ellipse id="Oval-6" fill="#CCCCCC" cx="128.5" cy="124.5" rx="18.5" ry="2.5"></ellipse>
                <g id="存钱罐" transform="translate(105.000000, 90.000000)" fill-rule="nonzero" fill="#F5A623">
                    <path d="M35.9879338,29.5952204 C34.9431838,30.0889559 36.0246838,33.3372158 34.7751838,34.3870534 C34.0296838,35.2809745 30.5594338,34.7456613 30.1814338,34.9171694 C29.1104338,34.6780974 30.6434338,32.7291415 29.3781838,32.9266357 C27.3516838,33.5035267 25.9499338,33.5814849 23.5926838,33.5814849 C22.7526838,33.5814849 21.9284338,33.5399072 21.1146838,33.461949 C20.8889338,33.4411601 21.1146838,34.6832947 20.3481838,34.9171694 C18.9411838,34.9691415 17.5814338,35.005522 17.0196838,34.8963805 C15.2346838,34.9431555 16.2531838,32.7135499 15.7964338,32.3705336 C15.5234338,32.282181 15.2556838,32.1886311 14.9931838,32.0950812 C14.5469338,32.20942 15.1979338,32.9682135 14.5469338,33.5035267 C13.4496838,33.9816705 9.83243379,33.8673318 9.41243379,33.0201856 C8.74568379,30.764594 10.2104338,29.7927146 9.82718379,29.4185151 C8.35193379,28.3790719 7.06043379,27.1681206 5.99993379,25.8324362 C3.86318379,23.5040835 2.54018379,25.4010673 0.597683788,23.6703944 C-0.594066212,22.0800464 0.298433788,17.7923434 0.692183788,17.2882135 C1.51118379,16.2383759 2.08868379,17.5948492 2.76593379,15.8174014 C3.04943379,11.9038979 5.00243379,8.34900232 8.05793379,5.60487239 C6.57218379,4.09767981 3.74768379,1.88366589 6.89768379,0.106218097 C9.95318379,-0.507053364 15.8699338,2.40858469 15.8699338,2.40858469 C15.8699338,2.40858469 19.3926838,1.33276102 23.2671838,1.33276102 C34.2869338,1.33276102 41.9781838,8.52051044 41.9781838,17.3817633 C41.9729338,22.7089095 40.8021838,26.5444548 35.9879338,29.5952204 L35.9879338,29.5952204 Z M11.1449338,9.18575406 C9.89543379,9.18575406 8.88218379,10.1888167 8.88218379,11.4257541 C8.88218379,12.6626914 9.89543379,13.6709513 11.1449338,13.6709513 C12.3944338,13.6709513 13.4076838,12.6678886 13.4076838,11.4257541 C13.4076838,10.1888167 12.3944338,9.18575406 11.1449338,9.18575406 L11.1449338,9.18575406 Z M31.5044338,7.83967517 C31.5044338,7.83967517 27.0471838,6.3324826 22.3746838,6.55076566 C21.6554338,6.55076566 21.0674338,7.12765661 21.0674338,7.83967517 C21.0674338,8.55169374 21.6501838,9.1337819 22.3746838,9.1337819 C22.3746838,9.1337819 27.1574338,8.70241299 31.5044338,10.4226914 C32.2236838,10.4226914 32.8116838,9.84580046 32.8116838,9.1337819 C32.8064338,8.41656613 32.2236838,7.83967517 31.5044338,7.83967517 L31.5044338,7.83967517 Z" id="Shape"></path>
                </g>
            </g>
            <ellipse id="Oval-8" fill="#D8D8D8" cx="124" cy="171.5" rx="11" ry="3.5"></ellipse>
            <g id="金币-(1)" transform="translate(113.000000, 160.000000)" fill-rule="nonzero" fill="#F5A623">
                <path d="M12.9789432,8.25685975 C12.758232,7.08828846 10.7152933,6.47814713 8.69473313,6.47814713 C8.66614651,6.47814713 8.6378555,6.47920374 8.60884023,6.4795145 L8.60884023,5.53129145 L8.60884023,3.76443454 L8.60884021,1.99754656 C8.60884021,0.69121295 6.44348449,0.00776205857 4.30442435,0.00776205857 C2.16520161,0.00776205857 0.000304113333,0.691197416 0.000304113333,1.99754656 L0.000304113333,3.764419 L0.000304113333,5.53127591 L0.000304113333,7.29859897 L0.000304113333,9.06547141 C0.000304113333,10.3716652 2.16521639,11.0549451 4.30442435,11.0549451 C4.33329182,11.0549451 4.36187844,11.0544945 4.39089372,11.0541838 L4.39089372,12.0021116 C4.39089372,13.3083054 6.555806,13.9921913 8.69473312,13.9921913 C10.8339559,13.9921913 12.9997254,13.3082898 12.9997254,12.0021116 L12.9997254,10.2349439 L12.9997255,8.46793163 L12.9997255,8.25685975 L12.9789432,8.25685975 Z M8.69473313,13.2184786 C6.51668046,13.2184786 5.12705112,12.4980155 5.12705112,12.0021271 C5.12705112,11.8685912 5.23097696,11.7183672 5.42122437,11.5707226 C6.25135992,12.0028885 7.47702264,12.2250237 8.69471836,12.2250237 C9.91300531,12.2250237 11.1388011,12.002873 11.9692175,11.5707226 C12.1596127,11.7183672 12.2633907,11.8685912 12.2633907,12.0021271 C12.2634055,12.4980155 10.8733475,13.2184786 8.69473313,13.2184786 Z M0.736180654,9.06548696 C0.736180654,8.93179566 0.840402117,8.78188242 1.0303539,8.63439315 C1.86078507,9.06593757 3.08671386,9.28808825 4.30442435,9.28808825 C4.33329182,9.28808825 4.36187844,9.28732688 4.39089372,9.28732688 L4.39089372,10.2349439 L4.39089372,10.2797097 C4.36173063,10.2797097 4.33401609,10.2815277 4.30442435,10.2815277 C2.12637168,10.2815277 0.736180654,9.56137538 0.736180654,9.06548696 Z M11.5683839,10.9086834 C11.4156656,10.9831894 11.2420174,11.0541993 11.0445568,11.1186987 C10.4443707,11.3139837 9.6446842,11.450705 8.69473313,11.450705 C7.74550634,11.450705 6.94583462,11.3139837 6.34591454,11.1186987 C6.16706336,11.0601194 6.00612685,10.9968476 5.86437621,10.930235 C5.84950643,10.9229475 5.83636605,10.9159709 5.8219397,10.9086834 C5.66171269,10.830992 5.52776646,10.7489033 5.42123914,10.6663485 C5.39670254,10.6472364 5.37317104,10.6284196 5.35136894,10.6088414 C5.21019474,10.4835097 5.13253491,10.3584732 5.12864748,10.2446554 C5.12864748,10.2413146 5.1270659,10.2382847 5.1270659,10.2349439 C5.1270659,10.1012526 5.23099174,9.95179 5.42081049,9.80414535 C5.63213573,9.91400094 5.86842623,10.0102139 6.12406516,10.092458 C6.28962815,10.1460184 6.46269992,10.1935189 6.64227538,10.2352392 C6.71415582,10.2522381 6.78705615,10.2677142 6.86081379,10.2825843 C7.09595136,10.3296186 7.33946981,10.3678583 7.58817643,10.3960914 C7.70423754,10.4092989 7.82201326,10.4206729 7.93952292,10.4291724 C8.18953027,10.4485952 8.4422869,10.4583066 8.69474791,10.4583066 C8.94750454,10.4583066 9.20024639,10.4485952 9.45054936,10.4291724 C9.90061875,10.3956408 10.3397206,10.3299294 10.7479299,10.2352547 C11.204636,10.1288797 11.6219505,9.98488655 11.9698235,9.80416092 C12.1596422,9.95180557 12.2634203,10.1012682 12.2634203,10.2349595 C12.2634203,10.3686508 12.1596422,10.5184087 11.969247,10.6663641 C11.8625571,10.7488878 11.7287439,10.830992 11.5683839,10.9086834 Z M1.43120227,7.97218307 C1.27082745,7.89404109 1.1367334,7.81224763 1.0303539,7.72970833 C0.84038734,7.58176845 0.736180654,7.43199504 0.736180654,7.29861452 C0.736180654,7.16492322 0.840402117,7.01516536 1.02992525,6.8675207 C1.37779818,7.04854157 1.79524572,7.19239489 2.25224744,7.29861452 C2.66017595,7.39359998 3.10000206,7.45839457 3.55021926,7.49239231 C3.79994576,7.51165978 4.05211115,7.52137119 4.30442435,7.52137119 C4.49221809,7.52137119 4.68044048,7.51621248 4.86722912,7.50544446 C4.74683715,7.61348207 4.64753779,7.73032988 4.57015878,7.85536635 C4.45511756,8.04093993 4.39087895,8.24503514 4.39087895,8.46794719 L4.39087895,8.46810257 L4.39087895,8.51255757 C4.36171586,8.51286833 4.33400132,8.51453093 4.30440958,8.51453093 C3.35475413,8.51453093 2.55506762,8.3776543 1.9550293,8.18176329 C1.7574209,8.11769897 1.58392048,8.04653369 1.43120227,7.97218307 Z M0.736180654,5.53127591 C0.736180654,5.39805077 0.840402117,5.24812198 1.03007306,5.10047733 C1.37779818,5.28135834 1.79481706,5.42505629 2.25167098,5.53127591 C2.65945167,5.62641675 3.09898216,5.69152211 3.54919936,5.72534892 C3.79863025,5.744461 4.05166772,5.75448318 4.30442435,5.75448318 C4.55703317,5.75448318 4.80992284,5.744461 5.05964934,5.72534892 C5.50986654,5.69150657 5.949264,5.62641674 6.35732553,5.53127591 C6.81389861,5.42505629 7.2310653,5.28135834 7.57836177,5.10047733 C7.76875698,5.24812198 7.87311148,5.39803524 7.87311148,5.53127591 C7.87311148,5.66526243 7.76889002,5.81488046 7.57893824,5.96252511 C7.47241092,6.04537518 7.33844991,6.12716863 7.17823768,6.20515522 C7.02551945,6.27966123 6.85187122,6.35067115 6.65426284,6.41501513 C6.05420973,6.61045551 5.25424238,6.74762738 4.30443913,6.74762738 C3.35420722,6.74762738 2.55452071,6.61045551 1.95433458,6.41501513 C1.75672618,6.35067115 1.5835066,6.27966125 1.43121703,6.20515522 C1.27084221,6.1271531 1.13646732,6.04537517 1.02994001,5.96252511 C0.84038734,5.81488046 0.736180654,5.66526244 0.736180654,5.53127591 Z M0.736180654,3.764419 C0.736180654,3.63103848 0.840402117,3.48126507 1.0303539,3.33348057 C1.37822684,3.51465682 1.79524572,3.65851014 2.2526761,3.764419 C2.66146191,3.85987061 3.10158364,3.9246652 3.55251033,3.95864739 C3.80121694,3.97761963 4.05282065,3.98762627 4.30440958,3.98762627 C4.55556985,3.98762627 4.80730659,3.97760409 5.05616101,3.95864739 C5.50725031,3.92464966 5.94720944,3.85987059 6.35629086,3.764419 C6.81329259,3.65851014 7.23103575,3.51465682 7.57833222,3.33348057 C7.76872743,3.48128062 7.87308193,3.63103848 7.87308193,3.764419 C7.87308193,3.89779952 7.76871265,4.04817893 7.57833222,4.19582358 C7.47195271,4.27867365 7.33813951,4.36015634 7.17776469,4.43845369 C7.02532731,4.51235371 6.85125042,4.58381422 6.65378986,4.64815821 C6.05373675,4.84390935 5.25390243,4.98077045 4.3043948,4.98077045 C3.35473935,4.98077045 2.55505285,4.84390935 1.95501452,4.64815821 C1.75740613,4.58381422 1.58375789,4.51235371 1.43118749,4.43845369 C1.27081267,4.36015634 1.13671863,4.27867364 1.03033912,4.19582358 C0.84038734,4.04817893 0.736180654,3.89779954 0.736180654,3.764419 Z" id="Shape"></path>
            </g>
            <g id="金币-(1)" transform="translate(122.000000, 160.000000)" fill-rule="nonzero" fill="#F5A623">
                <path d="M12.9789432,8.25685975 C12.758232,7.08828846 10.7152933,6.47814713 8.69473313,6.47814713 C8.66614651,6.47814713 8.6378555,6.47920374 8.60884023,6.4795145 L8.60884023,5.53129145 L8.60884023,3.76443454 L8.60884021,1.99754656 C8.60884021,0.69121295 6.44348449,0.00776205857 4.30442435,0.00776205857 C2.16520161,0.00776205857 0.000304113333,0.691197416 0.000304113333,1.99754656 L0.000304113333,3.764419 L0.000304113333,5.53127591 L0.000304113333,7.29859897 L0.000304113333,9.06547141 C0.000304113333,10.3716652 2.16521639,11.0549451 4.30442435,11.0549451 C4.33329182,11.0549451 4.36187844,11.0544945 4.39089372,11.0541838 L4.39089372,12.0021116 C4.39089372,13.3083054 6.555806,13.9921913 8.69473312,13.9921913 C10.8339559,13.9921913 12.9997254,13.3082898 12.9997254,12.0021116 L12.9997254,10.2349439 L12.9997255,8.46793163 L12.9997255,8.25685975 L12.9789432,8.25685975 Z M8.69473313,13.2184786 C6.51668046,13.2184786 5.12705112,12.4980155 5.12705112,12.0021271 C5.12705112,11.8685912 5.23097696,11.7183672 5.42122437,11.5707226 C6.25135992,12.0028885 7.47702264,12.2250237 8.69471836,12.2250237 C9.91300531,12.2250237 11.1388011,12.002873 11.9692175,11.5707226 C12.1596127,11.7183672 12.2633907,11.8685912 12.2633907,12.0021271 C12.2634055,12.4980155 10.8733475,13.2184786 8.69473313,13.2184786 Z M0.736180654,9.06548696 C0.736180654,8.93179566 0.840402117,8.78188242 1.0303539,8.63439315 C1.86078507,9.06593757 3.08671386,9.28808825 4.30442435,9.28808825 C4.33329182,9.28808825 4.36187844,9.28732688 4.39089372,9.28732688 L4.39089372,10.2349439 L4.39089372,10.2797097 C4.36173063,10.2797097 4.33401609,10.2815277 4.30442435,10.2815277 C2.12637168,10.2815277 0.736180654,9.56137538 0.736180654,9.06548696 Z M11.5683839,10.9086834 C11.4156656,10.9831894 11.2420174,11.0541993 11.0445568,11.1186987 C10.4443707,11.3139837 9.6446842,11.450705 8.69473313,11.450705 C7.74550634,11.450705 6.94583462,11.3139837 6.34591454,11.1186987 C6.16706336,11.0601194 6.00612685,10.9968476 5.86437621,10.930235 C5.84950643,10.9229475 5.83636605,10.9159709 5.8219397,10.9086834 C5.66171269,10.830992 5.52776646,10.7489033 5.42123914,10.6663485 C5.39670254,10.6472364 5.37317104,10.6284196 5.35136894,10.6088414 C5.21019474,10.4835097 5.13253491,10.3584732 5.12864748,10.2446554 C5.12864748,10.2413146 5.1270659,10.2382847 5.1270659,10.2349439 C5.1270659,10.1012526 5.23099174,9.95179 5.42081049,9.80414535 C5.63213573,9.91400094 5.86842623,10.0102139 6.12406516,10.092458 C6.28962815,10.1460184 6.46269992,10.1935189 6.64227538,10.2352392 C6.71415582,10.2522381 6.78705615,10.2677142 6.86081379,10.2825843 C7.09595136,10.3296186 7.33946981,10.3678583 7.58817643,10.3960914 C7.70423754,10.4092989 7.82201326,10.4206729 7.93952292,10.4291724 C8.18953027,10.4485952 8.4422869,10.4583066 8.69474791,10.4583066 C8.94750454,10.4583066 9.20024639,10.4485952 9.45054936,10.4291724 C9.90061875,10.3956408 10.3397206,10.3299294 10.7479299,10.2352547 C11.204636,10.1288797 11.6219505,9.98488655 11.9698235,9.80416092 C12.1596422,9.95180557 12.2634203,10.1012682 12.2634203,10.2349595 C12.2634203,10.3686508 12.1596422,10.5184087 11.969247,10.6663641 C11.8625571,10.7488878 11.7287439,10.830992 11.5683839,10.9086834 Z M1.43120227,7.97218307 C1.27082745,7.89404109 1.1367334,7.81224763 1.0303539,7.72970833 C0.84038734,7.58176845 0.736180654,7.43199504 0.736180654,7.29861452 C0.736180654,7.16492322 0.840402117,7.01516536 1.02992525,6.8675207 C1.37779818,7.04854157 1.79524572,7.19239489 2.25224744,7.29861452 C2.66017595,7.39359998 3.10000206,7.45839457 3.55021926,7.49239231 C3.79994576,7.51165978 4.05211115,7.52137119 4.30442435,7.52137119 C4.49221809,7.52137119 4.68044048,7.51621248 4.86722912,7.50544446 C4.74683715,7.61348207 4.64753779,7.73032988 4.57015878,7.85536635 C4.45511756,8.04093993 4.39087895,8.24503514 4.39087895,8.46794719 L4.39087895,8.46810257 L4.39087895,8.51255757 C4.36171586,8.51286833 4.33400132,8.51453093 4.30440958,8.51453093 C3.35475413,8.51453093 2.55506762,8.3776543 1.9550293,8.18176329 C1.7574209,8.11769897 1.58392048,8.04653369 1.43120227,7.97218307 Z M0.736180654,5.53127591 C0.736180654,5.39805077 0.840402117,5.24812198 1.03007306,5.10047733 C1.37779818,5.28135834 1.79481706,5.42505629 2.25167098,5.53127591 C2.65945167,5.62641675 3.09898216,5.69152211 3.54919936,5.72534892 C3.79863025,5.744461 4.05166772,5.75448318 4.30442435,5.75448318 C4.55703317,5.75448318 4.80992284,5.744461 5.05964934,5.72534892 C5.50986654,5.69150657 5.949264,5.62641674 6.35732553,5.53127591 C6.81389861,5.42505629 7.2310653,5.28135834 7.57836177,5.10047733 C7.76875698,5.24812198 7.87311148,5.39803524 7.87311148,5.53127591 C7.87311148,5.66526243 7.76889002,5.81488046 7.57893824,5.96252511 C7.47241092,6.04537518 7.33844991,6.12716863 7.17823768,6.20515522 C7.02551945,6.27966123 6.85187122,6.35067115 6.65426284,6.41501513 C6.05420973,6.61045551 5.25424238,6.74762738 4.30443913,6.74762738 C3.35420722,6.74762738 2.55452071,6.61045551 1.95433458,6.41501513 C1.75672618,6.35067115 1.5835066,6.27966125 1.43121703,6.20515522 C1.27084221,6.1271531 1.13646732,6.04537517 1.02994001,5.96252511 C0.84038734,5.81488046 0.736180654,5.66526244 0.736180654,5.53127591 Z M0.736180654,3.764419 C0.736180654,3.63103848 0.840402117,3.48126507 1.0303539,3.33348057 C1.37822684,3.51465682 1.79524572,3.65851014 2.2526761,3.764419 C2.66146191,3.85987061 3.10158364,3.9246652 3.55251033,3.95864739 C3.80121694,3.97761963 4.05282065,3.98762627 4.30440958,3.98762627 C4.55556985,3.98762627 4.80730659,3.97760409 5.05616101,3.95864739 C5.50725031,3.92464966 5.94720944,3.85987059 6.35629086,3.764419 C6.81329259,3.65851014 7.23103575,3.51465682 7.57833222,3.33348057 C7.76872743,3.48128062 7.87308193,3.63103848 7.87308193,3.764419 C7.87308193,3.89779952 7.76871265,4.04817893 7.57833222,4.19582358 C7.47195271,4.27867365 7.33813951,4.36015634 7.17776469,4.43845369 C7.02532731,4.51235371 6.85125042,4.58381422 6.65378986,4.64815821 C6.05373675,4.84390935 5.25390243,4.98077045 4.3043948,4.98077045 C3.35473935,4.98077045 2.55505285,4.84390935 1.95501452,4.64815821 C1.75740613,4.58381422 1.58375789,4.51235371 1.43118749,4.43845369 C1.27081267,4.36015634 1.13671863,4.27867364 1.03033912,4.19582358 C0.84038734,4.04817893 0.736180654,3.89779954 0.736180654,3.764419 Z" id="Shape"></path>
            </g>
        </g>
    </g>
</svg>