<?xml version="1.0" encoding="UTF-8"?>
<svg width="200px" height="200px" viewBox="0 0 200 200" version="1.1" xmlns="http://www.w3.org/2000/svg" xmlns:xlink="http://www.w3.org/1999/xlink">
    <defs></defs>
    <g id="切图" stroke="none" stroke-width="1" fill="none" fill-rule="evenodd">
        <g id="缺省图">
            <g id="Group-3" transform="translate(34.000000, 49.000000)">
                <rect id="Rectangle-6" fill="#DCE8EE" x="97" y="32" width="6" height="19"></rect>
                <rect id="Rectangle-6" fill="#B9D6E4" x="103" y="32" width="6" height="19"></rect>
                <g id="Group" transform="translate(93.500000, 63.500000) scale(-1, 1) translate(-93.500000, -63.500000) translate(85.000000, 47.000000)" fill="#DCE8EE">
                    <circle id="Oval-5" cx="1" cy="32" r="1"></circle>
                    <path d="M1,0.00743111437 C9.88139106,0.27176267 17,7.55456123 17,16.5 C17,25.4454388 9.88139106,32.7282373 1,32.9925689 L1,30.9883049 C6.5668168,30.7273284 11,26.1313769 11,20.5 C11,14.8686231 6.5668168,10.2726716 1,10.0116951 L1,0.00743111437 Z" id="Combined-Shape"></path>
                </g>
                <g id="金币" transform="translate(97.000000, 74.000000)">
                    <ellipse id="Oval-4" fill="#F5A623" cx="4.58333333" cy="5" rx="4.58333333" ry="5"></ellipse>
                    <path d="M5.41666667,10 C7.94797177,10 10,7.76142375 10,5 C10,2.23857625 7.94797177,0 5.41666667,0 C2.88536156,0 0.833333333,2.23857625 0.833333333,5 C0.833333333,7.76142375 2.88536156,10 5.41666667,10 Z" id="Oval-4" fill="#FFDC00"></path>
                    <polygon id="¥" fill="#FFFFFF" points="3.17659372 2.51885543 4.87659372 5.21139275 3.64326038 5.42840816 3.64326038 5.84507483 5.10992705 5.58700245 5.10992705 6.40366912 3.64326038 6.66174149 3.64326038 7.07840816 5.10992705 6.82033579 5.10992705 8.12866912 5.84326038 7.99963293 5.84326038 6.6912996 7.31826038 6.43176091 7.31826038 6.01509424 5.84326038 6.27463293 5.84326038 5.45796627 7.31826038 5.19842757 7.31826038 4.78176091 6.07659372 5.00024263 7.77659372 1.70944662 6.95159372 1.85461233 5.47659372 4.84748436 4.00159372 2.37368972"></polygon>
                </g>
                <g id="Group" transform="translate(105.000000, 47.000000)" fill="#BAD6E5">
                    <circle id="Oval-5" cx="1" cy="32" r="1"></circle>
                    <path d="M1,0.00743111437 C9.88139106,0.27176267 17,7.55456123 17,16.5 C17,25.4454388 9.88139106,32.7282373 1,32.9925689 L1,30.9883049 C6.5668168,30.7273284 11,26.1313769 11,20.5 C11,14.8686231 6.5668168,10.2726716 1,10.0116951 L1,0.00743111437 Z" id="Combined-Shape"></path>
                </g>
                <rect id="Rectangle-7" fill="#DCE8EE" x="100" y="47" width="3" height="10"></rect>
                <rect id="Rectangle-7" fill="#B9D6E4" x="103" y="47" width="3" height="10"></rect>
                <path d="M20,95 L64,95 L64,95 C66.209139,95 68,96.790861 68,99 L68,111 L16,111 L16,99 L16,99 C16,96.790861 17.790861,95 20,95 Z" id="Rectangle-4" fill="#F2C000"></path>
                <path d="M20,95 L63,95 L63,95 C65.209139,95 67,96.790861 67,99 L67,110 L16,110 L16,99 L16,99 C16,96.790861 17.790861,95 20,95 Z" id="Rectangle-4" fill="#FAD100"></path>
                <rect id="Rectangle-5" fill="#FFDC00" transform="translate(69.762367, 21.216744) rotate(-265.000000) translate(-69.762367, -21.216744) " x="58.2623672" y="-28.0332562" width="23" height="98.5" rx="11.5"></rect>
                <path d="M38.7318825,6.96159413 L29.5,6.5 L44.5,30.5 L39.6600508,7.75223882 L39.6600508,7.75223882 C39.5656898,7.30874203 39.1847409,6.98423704 38.7318825,6.96159413 Z" id="Path-2" fill="#FFC000"></path>
                <rect id="Rectangle-5" fill="#FFDC00" transform="translate(31.804410, 39.251104) rotate(-17.000000) translate(-31.804410, -39.251104) " x="15.8044098" y="3.25110434" width="32" height="72" rx="16"></rect>
                <rect id="Rectangle-5" fill="#FFBC4C" opacity="0.5" transform="translate(41.982924, 68.144210) rotate(-17.000000) translate(-41.982924, -68.144210) " x="23.4829238" y="50.6442098" width="37" height="35" rx="17.5"></rect>
                <path d="M35,53 L49,53 L49,53 C56.7319865,53 63,59.2680135 63,67 L63,95 L21,95 L21,67 L21,67 C21,59.2680135 27.2680135,53 35,53 Z" id="Rectangle-4" fill="#FFBF08"></path>
                <path d="M35,53 L48,53 L48,53 C55.7319865,53 62,59.2680135 62,67 L62,93 L21,93 L21,67 L21,67 C21,59.2680135 27.2680135,53 35,53 Z" id="Rectangle-4" fill="#FFDC00"></path>
                <ellipse id="Oval-7" fill="#F5A623" cx="41.7949724" cy="73" rx="13.7949724" ry="14"></ellipse>
                <ellipse id="Oval-7" fill="#FFC000" cx="41.2201819" cy="72.4166667" rx="13.2201819" ry="13.4166667"></ellipse>
                <circle id="Oval-7" fill="#F5A623" cx="24.5834531" cy="16.5834531" r="7.58345309"></circle>
                <circle id="Oval-7" fill="#FFC000" cx="24.2674759" cy="16.2674759" r="7.26747587"></circle>
                <circle id="Oval-7" fill="#F5A623" cx="106" cy="24" r="6"></circle>
                <circle id="Oval-7" fill="#FFC000" cx="105.75" cy="23.75" r="5.75"></circle>
                <ellipse id="Oval-3" fill="#E6E1E1" cx="77.5" cy="125" rx="77.5" ry="5"></ellipse>
                <path d="M11,111 L73,111 L73,111 C74.1045695,111 75,111.895431 75,113 L75,125 L9,125 L9,113 L9,113 C9,111.895431 9.8954305,111 11,111 Z" id="Rectangle" fill="#B4B0AA"></path>
                <rect id="Rectangle-2" fill="#9C9B99" x="9" y="122" width="66" height="3"></rect>
                <ellipse id="Oval-6" fill="#CCCCCC" cx="128.5" cy="124.5" rx="18.5" ry="2.5"></ellipse>
                <g id="存钱罐" transform="translate(105.000000, 90.000000)" fill-rule="nonzero" fill="#F6A623">
                    <path d="M35.9879338,29.5952204 C34.9431838,30.0889559 36.0246838,33.3372158 34.7751838,34.3870534 C34.0296838,35.2809745 30.5594338,34.7456613 30.1814338,34.9171694 C29.1104338,34.6780974 30.6434338,32.7291415 29.3781838,32.9266357 C27.3516838,33.5035267 25.9499338,33.5814849 23.5926838,33.5814849 C22.7526838,33.5814849 21.9284338,33.5399072 21.1146838,33.461949 C20.8889338,33.4411601 21.1146838,34.6832947 20.3481838,34.9171694 C18.9411838,34.9691415 17.5814338,35.005522 17.0196838,34.8963805 C15.2346838,34.9431555 16.2531838,32.7135499 15.7964338,32.3705336 C15.5234338,32.282181 15.2556838,32.1886311 14.9931838,32.0950812 C14.5469338,32.20942 15.1979338,32.9682135 14.5469338,33.5035267 C13.4496838,33.9816705 9.83243379,33.8673318 9.41243379,33.0201856 C8.74568379,30.764594 10.2104338,29.7927146 9.82718379,29.4185151 C8.35193379,28.3790719 7.06043379,27.1681206 5.99993379,25.8324362 C3.86318379,23.5040835 2.54018379,25.4010673 0.597683788,23.6703944 C-0.594066212,22.0800464 0.298433788,17.7923434 0.692183788,17.2882135 C1.51118379,16.2383759 2.08868379,17.5948492 2.76593379,15.8174014 C3.04943379,11.9038979 5.00243379,8.34900232 8.05793379,5.60487239 C6.57218379,4.09767981 3.74768379,1.88366589 6.89768379,0.106218097 C9.95318379,-0.507053364 15.8699338,2.40858469 15.8699338,2.40858469 C15.8699338,2.40858469 19.3926838,1.33276102 23.2671838,1.33276102 C34.2869338,1.33276102 41.9781838,8.52051044 41.9781838,17.3817633 C41.9729338,22.7089095 40.8021838,26.5444548 35.9879338,29.5952204 L35.9879338,29.5952204 Z M11.1449338,9.18575406 C9.89543379,9.18575406 8.88218379,10.1888167 8.88218379,11.4257541 C8.88218379,12.6626914 9.89543379,13.6709513 11.1449338,13.6709513 C12.3944338,13.6709513 13.4076838,12.6678886 13.4076838,11.4257541 C13.4076838,10.1888167 12.3944338,9.18575406 11.1449338,9.18575406 L11.1449338,9.18575406 Z M31.5044338,7.83967517 C31.5044338,7.83967517 27.0471838,6.3324826 22.3746838,6.55076566 C21.6554338,6.55076566 21.0674338,7.12765661 21.0674338,7.83967517 C21.0674338,8.55169374 21.6501838,9.1337819 22.3746838,9.1337819 C22.3746838,9.1337819 27.1574338,8.70241299 31.5044338,10.4226914 C32.2236838,10.4226914 32.8116838,9.84580046 32.8116838,9.1337819 C32.8064338,8.41656613 32.2236838,7.83967517 31.5044338,7.83967517 L31.5044338,7.83967517 Z" id="Shape"></path>
                </g>
            </g>
        </g>
    </g>
</svg>