<?xml version="1.0" encoding="UTF-8"?>
<svg width="169px" height="225px" viewBox="0 0 169 225" version="1.1" xmlns="http://www.w3.org/2000/svg" xmlns:xlink="http://www.w3.org/1999/xlink">
    <!-- Generator: Sketch 45.2 (43514) - http://www.bohemiancoding.com/sketch -->
    <title>提交页面缺省图 copy</title>
    <desc>Created with Sketch.</desc>
    <defs>
        <path d="M100.425408,24.2533111 L119.831738,34.1413296 C122.292184,35.3949898 123.270478,38.4058682 122.016818,40.8663147 L75.3905807,132.375457 C74.1369205,134.835904 71.1260421,135.814197 68.6655955,134.560537 L48.0390594,124.050792 C48.8636939,122.229207 49.3227987,120.206817 49.3227987,118.077198 C49.3227987,110.069069 42.8309275,103.577198 34.8227987,103.577198 C29.4271136,103.577198 24.7197704,106.524339 22.2226938,110.896697 L2.73111276,100.96524 C0.27066618,99.7115802 -0.707627514,96.7007018 0.546032634,94.2402552 L47.1722696,2.73111276 L47.1722696,2.73111276 C48.4259297,0.27066618 51.4368081,-0.707627514 53.8972547,0.546032634 L53.8972547,0.546032634 L74.6086223,11.0990015 C73.7826771,12.9217823 73.3227987,14.9457849 73.3227987,17.0771979 C73.3227987,25.0853268 79.8146698,31.5771979 87.8227987,31.5771979 C93.2202884,31.5771979 97.9289759,28.6280848 100.425408,24.2533111 Z" id="path-1"></path>
    </defs>
    <g id="补充标注" stroke="none" stroke-width="1" fill="none" fill-rule="evenodd">
        <g id="总收入金额缺省图" transform="translate(-103.000000, -151.000000)">
            <text id="暂无收入" font-family="PingFangSC-Medium, PingFang SC" font-size="18" font-weight="400" letter-spacing="-0.186666697" fill="#C0C0C0">
                <tspan x="154.873333" y="357">暂无收入</tspan>
            </text>
            <g id="缺省图标" transform="translate(110.000000, 154.000000)">
                <g id="阴影" transform="translate(57.000000, 150.000000)" fill="#E6E6E6">
                    <path d="M55.5,10 C66.8218374,10 76,7.76142375 76,5 C76,2.23857625 66.8218374,0 55.5,0 C44.1781626,0 33.5,2.23857625 33.5,5 C33.5,7.76142375 44.1781626,10 55.5,10 Z" id="Oval-5"></path>
                    <path d="M14.5,10 C22.5081289,10 35.5,7.98528137 35.5,5.5 C35.5,3.01471863 22.5081289,1 14.5,1 C6.49187113,1 0,3.01471863 0,5.5 C0,7.98528137 6.49187113,10 14.5,10 Z" id="Oval-5"></path>
                </g>
                <g id="文本页" transform="translate(0.000000, 18.000000)">
                    <g id="Combined-Shape">
                        <use fill="#F0F0F0" fill-rule="evenodd" xlink:href="#path-1"></use>
                        <path stroke="#CCCCCC" stroke-width="2" d="M100.795156,25.5640331 C97.9624473,29.8897228 93.1268756,32.5771979 87.8227987,32.5771979 C79.262385,32.5771979 72.3227987,25.6376116 72.3227987,17.0771979 C72.3227987,15.1709133 72.6675943,13.3118781 73.3299988,11.5698367 L53.4432642,1.43703916 C51.474907,0.43411104 49.0662042,1.21674599 48.0632761,3.18510326 L1.43703916,94.6942457 C0.43411104,96.662603 1.21674599,99.0713057 3.18510326,100.074234 L21.8532254,109.586117 C24.6863865,105.262826 29.5205373,102.577198 34.8227987,102.577198 C43.3832123,102.577198 50.3227987,109.516784 50.3227987,118.077198 C50.3227987,119.981742 49.978633,121.83913 49.3174017,123.579814 L69.119586,133.669531 C71.0879433,134.672459 73.496646,133.889824 74.4995741,131.921467 L121.125811,40.4123242 C122.128739,38.443967 121.346104,36.0352643 119.377747,35.0323361 L100.795156,25.5640331 Z"></path>
                    </g>
                </g>
                <g id="文本行" transform="translate(61.680454, 84.457493) rotate(26.000000) translate(-61.680454, -84.457493) translate(40.180454, 69.957493)" fill="#CCCCCC">
                    <rect id="Rectangle" x="0" y="0" width="43" height="5" rx="2.5"></rect>
                    <rect id="Rectangle" x="0" y="12" width="43" height="5" rx="2.5"></rect>
                    <rect id="Rectangle" x="0" y="24" width="43" height="5" rx="2.5"></rect>
                </g>
                <g id="光" transform="translate(35.000000, 0.000000)" fill="#CCCCCC">
                    <polygon id="Path-4" transform="translate(5.187346, 14.417706) rotate(-8.000000) translate(-5.187346, -14.417706) " points="6.92787477 19.452799 8.92787477 18.452799 4.6959675 9.38261216 1.4468171 10.945629"></polygon>
                    <polygon id="Path-4" transform="translate(19.657391, 8.183665) rotate(-317.000000) translate(-19.657391, -8.183665) " points="21.8746203 13.8887338 23.8746203 12.8887338 18.9077689 2.47859565 15.4401626 4.6251599"></polygon>
                    <polygon id="Path-4" transform="translate(11.134893, 7.154682) rotate(-348.000000) translate(-11.134893, -7.154682) " points="13.0650876 12.705224 15.0650876 11.705224 10.0506238 1.60413953 7.20469802 3.74257063"></polygon>
                </g>
                <g id="脸" transform="translate(94.000000, 85.000000)">
                    <ellipse id="Oval-2" stroke="#CCCCCC" fill="#E5E5E5" transform="translate(27.500000, 28.000000) rotate(25.000000) translate(-27.500000, -28.000000) " cx="27.5" cy="28" rx="19.5" ry="21"></ellipse>
                    <ellipse id="Oval-2" stroke="#CCCCCC" stroke-width="2" fill="#F0F0F0" transform="translate(26.000000, 27.000000) rotate(25.000000) translate(-26.000000, -27.000000) " cx="26" cy="27" rx="18" ry="20"></ellipse>
                    <ellipse id="Oval-2" stroke="#E6E6E6" fill="#F0F0F0" transform="translate(25.997453, 26.907719) rotate(25.000000) translate(-25.997453, -26.907719) " cx="25.9974533" cy="26.9077191" rx="16.0451861" ry="18.1930688"></ellipse>
                </g>
                <g id="五官" transform="translate(108.000000, 99.000000)" fill="#CCCCCC">
                    <ellipse id="Oval-4" transform="translate(6.347284, 2.494300) rotate(33.000000) translate(-6.347284, -2.494300) " cx="6.34728392" cy="2.49429969" rx="1.5" ry="2"></ellipse>
                    <ellipse id="Oval-4-Copy" transform="translate(15.244491, 6.462999) rotate(27.000000) translate(-15.244491, -6.462999) " cx="15.2444908" cy="6.4629988" rx="1.5" ry="2"></ellipse>
                    <path d="M0,20 C1.81047938,20.6789298 3.28149387,21.1315496 4.41304348,21.3578595 C6.11036789,21.6973244 8.82608696,23.0551839 9.16555184,24.7525084 C9.50501672,26.4498328 7.80769231,26.7892977 7.12876254,25.770903 C6.44983278,24.7525084 5.09197324,23.3946488 4.0735786,22.7157191 C3.05518395,22.0367893 1.35785953,21.6973244 0.678929766,21.0183946 C0.226309922,20.5657748 7.45579542e-17,20.2263099 0,20 Z" id="Path-5"></path>
                </g>
                <g id="脚" transform="translate(105.000000, 132.000000)" fill="#CCCCCC">
                    <path d="M10,0.5 C9.39832238,11.1666667 8.93081691,16.8333333 8.59748358,17.5 C8.09748358,18.5 8.09748358,19 7.09748358,19 C6.09748358,19 -0.902516423,19 0.0974835775,21 C1.09748358,23 6.09748358,22.5 7.09748358,22.5 C8.09748358,22.5 10.5974836,22.5 11.0974836,22 C11.5974836,21.5 12.0974836,20.5 12.0974836,20 C12.0974836,19.6666667 12.2641502,13.5 12.5974836,1.5 L10,0.5 Z" id="Path-7"></path>
                    <path d="M16,2 C15.3333333,15 15,21.6666667 15,22 C15,22.5 16,23 17,23.5 C18,24 19.5,25.5 23,25 C26.5,24.5 23,22.5 22,22 C22,22 19.5,21 19,20 C18.6666667,19.3333333 18.5,16.6666667 18.5,12 L18.5,3 L18.5,2 L16,2 Z" id="Path-8"></path>
                </g>
                <polygon id="Star" stroke="#CCCCCC" fill="#F0F0F0" stroke-linecap="round" stroke-linejoin="round" transform="translate(149.333152, 103.929406) rotate(-15.000000) translate(-149.333152, -103.929406) " points="149.727014 105.838281 144.868979 108.354168 147.384866 103.496133 145.752258 99.5213772 149.727014 101.153986 153.797326 99.504643 152.069161 103.496133 153.48095 107.250069"></polygon>
                <g id="手" transform="translate(99.000000, 97.000000)" fill="#CCCCCC">
                    <path d="M26.3271719,23.2512441 C23.6161429,21.4438915 22.5618539,21.5945042 23.1643048,23.7030823 C24.0679811,25.5104349 26.9296228,28.0708512 31.7492298,31.384331 C35.6651605,34.09536 38.6774149,34.9990363 40.785993,34.09536 C42.8945711,33.1916837 43.497022,30.6312674 42.5933457,26.4141113 C41.3884439,23.4018569 40.4847676,22.4981805 39.8823167,23.7030823 C40.3341549,24.1549205 41.6896693,30.0288165 39.8823167,30.4806547 C38.0749641,30.9324929 37.6231259,30.9324929 36.2676114,30.0288165 C35.3639351,29.4263657 32.0504553,27.1671749 26.3271719,23.2512441 Z" id="Path-2"></path>
                    <path d="M4,9 C1.66666667,8.33333333 0.5,7.5 0.5,6.5 C0.5,5 1.5,3.5 0.5,2.5 C-0.5,1.5 1.5,1.24567023e-13 2.5,1 C3.5,2 4,3 3.5,5 C3.16666667,6.33333333 3.66666667,7 5,7 L4,9 Z" id="Path-6"></path>
                </g>
                <g id="金币阴影" transform="translate(121.000000, 99.000000)" stroke="#CCCCCC">
                    <path d="M3.5,32 L4.5,34" id="Path-9" stroke-width="2"></path>
                    <path d="M6.5,30.5 L7.5,32.5" id="Path-10" stroke-width="2"></path>
                    <path d="M12,25.5 L14.5,27.5" id="Path-12" stroke-width="2"></path>
                    <path d="M14.5,23 L16.5,24.5" id="Path-13" stroke-width="2"></path>
                    <path d="M16,20 L18.5,21" id="Path-14" stroke-width="2"></path>
                    <path d="M17,17 L19.5,17.5" id="Path-15" stroke-width="2"></path>
                    <path d="M17.5,10 L20,9.5" id="Path-17" stroke-width="2"></path>
                    <path d="M17,7 L19.5,6.5" id="Path-18" stroke-width="2"></path>
                    <path d="M16.5,4 L18,3.5" id="Path-19" stroke-width="2"></path>
                    <path d="M15,2 L16.5,0.5" id="Path-20" stroke-width="2"></path>
                    <path d="M0,32.5 L1,34.5" id="Path-3"></path>
                    <path d="M9,29 L10.5,31" id="Path-11"></path>
                    <path d="M17.5,13.5 L20.5,13.5" id="Path-16"></path>
                </g>
            </g>
        </g>
    </g>
</svg>