<?xml version="1.0" encoding="UTF-8"?>
<svg width="24px" height="24px" viewBox="0 0 24 24" version="1.1" xmlns="http://www.w3.org/2000/svg" xmlns:xlink="http://www.w3.org/1999/xlink">
    <!-- Generator: Sketch 44.1 (41455) - http://www.bohemiancoding.com/sketch -->
    <title>我的收入 copy</title>
    <desc>Created with Sketch.</desc>
    <defs>
        <linearGradient x1="50%" y1="0%" x2="50%" y2="100%" id="linearGradient-1">
            <stop stop-color="#F7CD3F" offset="0%"></stop>
            <stop stop-color="#F7AC30" offset="100%"></stop>
        </linearGradient>
    </defs>
    <g id="切图" stroke="none" stroke-width="1" fill="none" fill-rule="evenodd">
        <g id="我的收入-copy" fill-rule="nonzero" fill="url(#linearGradient-1)">
            <g id="收入" transform="translate(0.000000, 3.000000)">
                <path d="M12.7856514,5.04566505 C12.7856514,5.24760123 12.5752715,5.41137371 12.31779,5.41137371 L5.09591806,5.41137371 C4.83715087,5.41137371 4.62618665,5.24760123 4.62618665,5.04566505 C4.62618665,4.84330127 4.83715087,4.67931499 5.09591806,4.67931499 L12.3179069,4.67931499 C12.5762066,4.67942189 12.7856514,4.84340818 12.7856514,5.04566505 L12.7856514,5.04566505 Z M11.9704295,4.47000264 L5.3669574,4.48732062 C5.04425812,4.48732062 3.677023,3.05730462 3.677023,1.96114075 C3.677023,0.637277538 4.91183571,0.751768615 5.85994746,0.743537231 C6.67061106,0.736374857 7.51844177,-0.302703824 8.13275086,0.101916835 C8.98864612,0.665927033 9.18897447,1.99673881 9.41069143,1.99673881 C9.78937512,1.99673881 9.4004062,0.262696088 11.2805006,0.262696088 C13.1588418,0.262696088 13.908729,0.654809319 13.6609483,1.89165503 C13.399493,3.19755886 12.2740778,4.43483218 11.9704295,4.47000264 L11.9704295,4.47000264 Z M12.7094471,6.05491833 L4.77298502,6.05491833 C2.19805282,7.49466233 0.00951822621,10.3018852 0.00951822621,13.9957458 C0.00951822621,18.0701742 4.09684763,18.9985034 8.76447473,18.9985034 C13.4306993,18.9985034 17.3155966,18.0243137 17.3155966,13.947961 C17.3155966,10.5265913 15.4269701,7.56831719 12.7094471,6.05491833 L12.7094471,6.05491833 Z M9.20440233,15.9748058 L9.03422842,15.9996069 L9.03422842,17.2518463 L8.06729936,17.2518463 L8.06729936,16.0674891 L7.86521785,16.0602198 C6.99599853,16.0285771 6.08295008,15.8516557 5.48032875,15.6046073 L5.83435125,14.4802215 C6.3473274,14.6898546 7.18183404,14.9486622 8.16407408,14.9486622 L8.21620153,14.9483415 L8.25395302,14.9486622 C9.29685257,14.9486622 9.94540683,14.5853053 9.94540683,13.9982045 C9.94540683,13.3627844 9.23408926,13.0380188 8.1681648,12.7445753 C6.32313372,12.2394676 5.53748194,11.602444 5.53748194,10.6108294 C5.53748194,9.56277099 6.44725781,8.79030365 7.97157654,8.54721055 L8.14186732,8.51984387 L8.14186732,7.35932554 L9.10716009,7.35932554 L9.10716009,8.45559631 L9.30164456,8.46350699 C10.052233,8.49108747 10.686762,8.60194391 11.2308276,8.80259727 L10.9182966,9.83002374 C10.4856155,9.68859358 9.860203,9.5247142 9.00968411,9.5247142 C8.98993178,9.5247142 8.97204949,9.5251418 8.95358282,9.5251418 C8.93371361,9.5251418 8.9133769,9.5247142 8.8939752,9.5247142 C7.51446793,9.5247142 7.40729109,10.1945565 7.40729109,10.3990583 C7.40729109,10.9353811 8.02756095,11.2260452 9.33039647,11.6395386 C11.0047861,12.136308 11.6872349,12.7692695 11.6872349,13.8248109 C11.6892218,14.9267474 10.7369025,15.7500997 9.20440233,15.9748058 L9.20440233,15.9748058 Z" id="Shape"></path>
            </g>
        </g>
    </g>
</svg>