<?xml version="1.0" encoding="UTF-8"?>
<svg width="24px" height="24px" viewBox="0 0 24 24" version="1.1" xmlns="http://www.w3.org/2000/svg" xmlns:xlink="http://www.w3.org/1999/xlink">
    <!-- Generator: Sketch 44.1 (41455) - http://www.bohemiancoding.com/sketch -->
    <title>我的收入 copy 3</title>
    <desc>Created with Sketch.</desc>
    <defs>
        <linearGradient x1="50%" y1="0%" x2="50%" y2="100%" id="linearGradient-1">
            <stop stop-color="#74D3F9" offset="0%"></stop>
            <stop stop-color="#65BDF9" offset="100%"></stop>
        </linearGradient>
    </defs>
    <g id="切图" stroke="none" stroke-width="1" fill="none" fill-rule="evenodd">
        <g id="我的收入-copy-3" fill-rule="nonzero" fill="url(#linearGradient-1)">
            <g id="委托寄售" transform="translate(0.000000, 1.000000)">
                <path d="M21.8351722,17.0458982 C21.5209005,16.7784206 17.2300334,12.927607 16.9486997,12.6367585 C16.667366,12.3451782 16.378503,12.3513112 16.378503,12.3513112 L9.24919278,12.3513112 C9.24919278,12.3513112 8.08686574,12.4545114 8.10887482,13.4928735 C8.12257386,14.1591698 8.53762409,14.7443242 9.23476346,14.8997681 C9.85152177,15.0118523 11.3253757,15.1286813 12.386748,15.2050277 C12.7681802,15.2326386 12.386748,15.4904498 12.386748,15.4904498 L11.0083591,16.4820955 L6.20561688,16.4820955 C6.20561688,16.4820955 4.24887228,15.0564991 2.97672641,14.0635916 C0.917742772,12.5645765 0.125339783,14.0635916 0.125339783,14.0635916 C0.125339783,14.0635916 -0.120361311,14.6000357 0.143168667,14.9052953 C1.27656154,15.9354044 5.23756923,19.5056165 5.54350574,19.7703935 C5.84951779,20.0351453 6.20629681,19.920285 6.20629681,19.920285 C6.20629681,19.920285 13.8001399,19.9113758 14.4395621,19.920285 C15.079085,19.9299261 15.5243033,20.3411369 15.5243033,20.3411369 C15.5243033,20.3411369 16.8265669,21.4874945 17.1394033,21.7501515 C17.7871103,22.2933596 18.1459291,21.7501515 18.1459291,21.7501515 L21.837212,17.718504 C21.8351722,17.7177973 22.1706473,17.3313203 21.8351722,17.0458982 L21.8351722,17.0458982 Z" id="Shape"></path>
                <path d="M11.0564316,0.532478803 C8.21801377,0.532478803 5.91667825,2.83872188 5.91667825,5.68375631 C5.91667825,8.52879076 8.21803895,10.8352862 11.0564316,10.8352862 C13.894774,10.8352862 16.1961599,8.52879074 16.1961599,5.68375631 C16.1961599,2.83872188 13.894774,0.532478803 11.0564316,0.532478803 L11.0564316,0.532478803 Z M13.5454488,5.24738278 L13.5454488,5.84321315 L11.7616544,5.84321315 L11.7616544,7.03520196 L13.5454488,7.03520196 L13.5454488,7.63110804 L11.7616544,7.63110804 L11.7616544,8.82304638 L10.5730374,8.82304638 L10.5730374,7.63110804 L8.78821051,7.63110804 L8.78821051,7.03520196 L10.5730374,7.03520196 L10.5730374,5.84321315 L8.78821051,5.84321315 L8.78821051,5.24738278 L10.5730374,5.24738278 L8.19388937,2.86365753 L9.38346338,2.86365753 L11.1673333,4.65152719 L12.9511781,2.86365753 L14.1402484,2.86365753 L11.7616544,5.24738278 L13.5454488,5.24738278 L13.5454488,5.24738278 Z" id="Shape"></path>
            </g>
        </g>
    </g>
</svg>