<?xml version="1.0" encoding="UTF-8"?>
<svg width="24px" height="24px" viewBox="0 0 24 24" version="1.1" xmlns="http://www.w3.org/2000/svg" xmlns:xlink="http://www.w3.org/1999/xlink">
    <!-- Generator: Sketch 44.1 (41455) - http://www.bohemiancoding.com/sketch -->
    <title>我的收入 copy 2</title>
    <desc>Created with Sketch.</desc>
    <defs>
        <linearGradient x1="50%" y1="0%" x2="50%" y2="100%" id="linearGradient-1">
            <stop stop-color="#76DB91" offset="0%"></stop>
            <stop stop-color="#6ED98B" offset="100%"></stop>
        </linearGradient>
    </defs>
    <g id="切图" stroke="none" stroke-width="1" fill="none" fill-rule="evenodd">
        <g id="我的收入-copy-2" fill-rule="nonzero" fill="url(#linearGradient-1)">
            <path d="M17.9233333,12.1769115 L15.39,12.1769115 C14.7566667,12.1769115 14.3133333,12.6074221 14.3133333,13.2224371 L14.3133333,14.0219566 C14.3133333,14.6369716 14.7566667,15.0059806 15.39,15.0059806 L17.9233333,15.0059806 C18.5566667,15.0059806 19,14.6369716 19,14.0219566 L19,13.2224371 C19,12.6074221 18.5566667,12.1769115 17.9233333,12.1769115 Z M15.7066667,14.3294641 C15.3266667,14.3294641 14.9466667,14.0219566 14.9466667,13.5914461 C14.9466667,13.1609356 15.2633333,12.8534281 15.7066667,12.8534281 C16.0866667,12.8534281 16.4666667,13.1609356 16.4666667,13.5914461 C16.4666667,13.9604551 16.15,14.3294641 15.7066667,14.3294641 Z M13.49,13.9604551 L13.49,13.2224371 C13.49,12.1154101 14.1866667,11.0698845 15.3266667,11.0698845 L18.24,11.0698845 L18.24,7.19528993 C18.24,5.90375839 17.3533333,4.73522987 16.0233333,4.73522987 L16.4033333,6.39577041 C16.5933333,6.45727191 16.7833333,6.64177641 16.7833333,6.88778241 L16.72,7.62580043 C16.72,7.87180643 16.5933333,7.99480944 16.34,7.99480944 L1.71,7.99480944 C1.45666667,7.99480944 1.33,7.93330794 1.33,7.62580043 L1.33,6.88778241 C1.33,6.64177641 1.45666667,6.5187734 1.71,6.5187734 L3.16666667,6.5187734 L6.46,4.73522987 L2.53333333,4.73522987 C1.20333333,4.73522987 0,5.96525991 0,7.25679142 L0,17.5890437 C0,18.8805752 1.07666667,19.9876022 2.40666667,19.9876022 L15.77,19.9876022 C17.1,19.9876022 18.3033333,18.8190737 18.3033333,17.5275422 L18.3033333,16.1130076 L15.39,16.1130076 C14.25,16.0515061 13.49,15.0674821 13.49,13.9604551 Z M15.3266667,7.19528993 L14.3133333,4.85823286 C14.1866667,4.12021485 13.2366667,3.87420885 12.73,4.05871335 L4.75,7.19528993 L15.3266667,7.19528993 L15.3266667,7.19528993 Z" id="Shape"></path>
        </g>
    </g>
</svg>