<?xml version="1.0" encoding="UTF-8"?>
<svg width="24px" height="24px" viewBox="0 0 24 24" version="1.1" xmlns="http://www.w3.org/2000/svg" xmlns:xlink="http://www.w3.org/1999/xlink">
    <!-- Generator: Sketch 44.1 (41455) - http://www.bohemiancoding.com/sketch -->
    <title>我的收入 copy 4</title>
    <desc>Created with Sketch.</desc>
    <defs>
        <linearGradient x1="50%" y1="0%" x2="50%" y2="100%" id="linearGradient-1">
            <stop stop-color="#B497F8" offset="0%"></stop>
            <stop stop-color="#AE97F8" offset="100%"></stop>
        </linearGradient>
    </defs>
    <g id="切图" stroke="none" stroke-width="1" fill="none" fill-rule="evenodd">
        <g id="我的收入-copy-4" fill-rule="nonzero" fill="url(#linearGradient-1)">
            <g id="群蜂提现处理中2" transform="translate(0.000000, 3.000000)">
                <path d="M9.5,2.74664393 C5.77000397,2.74664393 2.7465061,5.77027963 2.7465061,9.50013783 C2.7465061,13.2297204 5.7701418,16.2536317 9.5,16.2536317 C13.2298582,16.2536317 16.2536317,13.2297204 16.2536317,9.50013783 C16.2536317,5.7701418 13.229996,2.74664393 9.5,2.74664393 Z M13.6070891,10.4649227 L9.49324651,10.4649227 C9.34770182,10.4649227 9.21924761,10.3976634 9.13214132,10.2937423 C9.06184985,10.2107708 9.01760759,10.1054714 9.01760759,9.98928373 L9.01760759,9.98487329 C9.01760759,9.9839085 9.01733194,9.98349502 9.01733194,9.98253024 C9.01733194,9.98142763 9.01760759,9.98101415 9.01760759,9.97991154 L9.01733194,5.15143906 C9.01760759,4.8886041 9.23358156,4.67607579 9.50000002,4.67607579 C9.76641848,4.67607579 9.9826681,4.88874193 9.9826681,5.15143906 L9.98239245,9.5 L13.6065378,9.5 C13.8696484,9.5 14.0831415,9.71569832 14.082728,9.98239243 C14.082728,10.2490865 13.8700619,10.4649227 13.6070891,10.4649227 Z" id="Shape"></path>
                <path d="M9.5,0.00582800201 C4.25653221,0.00582800201 0.00582800201,4.25653221 0.00582800201,9.5 C0.00582800201,14.74333 4.25653219,18.994172 9.5,18.994172 C14.7434678,18.994172 18.994172,14.74333 18.994172,9.5 C18.994172,4.25653221 14.7434678,0.00582800201 9.5,0.00582800201 Z M9.5,17.2182787 C5.23702925,17.2182787 1.78172126,13.7628329 1.78172126,9.50013783 C1.78172126,5.23702925 5.23702927,1.78172126 9.5,1.78172126 C13.7629707,1.78172126 17.2182787,5.23702927 17.2182787,9.50013783 C17.2182787,13.7628329 13.7629707,17.2182787 9.5,17.2182787 Z" id="Shape"></path>
            </g>
        </g>
    </g>
</svg>