<?xml version="1.0" encoding="UTF-8"?>
<svg width="36px" height="36px" viewBox="0 0 36 36" version="1.1" xmlns="http://www.w3.org/2000/svg" xmlns:xlink="http://www.w3.org/1999/xlink">
    <!-- Generator: Sketch 44.1 (41455) - http://www.bohemiancoding.com/sketch -->
    <title>预约试听</title>
    <desc>Created with Sketch.</desc>
    <defs>
        <linearGradient x1="-6.71031736%" y1="7.85750401%" x2="78.5825455%" y2="100%" id="linearGradient-1">
            <stop stop-color="#76DB91" offset="0%"></stop>
            <stop stop-color="#6BD3BA" offset="100%"></stop>
        </linearGradient>
    </defs>
    <g id="切图" stroke="none" stroke-width="1" fill="none" fill-rule="evenodd">
        <g id="预约试听" fill-rule="nonzero" fill="url(#linearGradient-1)">
            <g id="预约-(1)" transform="translate(4.000000, 4.000000)">
                <path d="M18.0812047,2.97933051 L18.0812047,1.09775424 C18.0812047,0.560148305 17.5866199,0.0225423729 17.0920351,0.0225423729 C16.5973411,0.0225423729 16.1027563,0.560148305 16.1027563,1.09775424 L16.1027563,2.97933051 L18.0812047,2.97933051 L18.0812047,2.97933051 Z M6.17339961,2.97933051 L6.17339961,1.09775424 C6.17339961,0.560148305 5.67878752,0.0225423729 5.18414815,0.0225423729 C4.68953606,0.0225423729 4.19489669,0.560148305 4.19489669,1.09775424 L4.19489669,2.97933051 L6.17339961,2.97933051 L6.17339961,2.97933051 Z M23.0274893,16.6879703 C20.3070136,16.6879703 18.0812047,19.1071525 18.0812047,22.0638814 C18.0812047,25.0206102 20.3070409,27.4397924 23.0274893,27.4397924 C25.7479376,27.4397924 27.9738285,25.0206102 27.9738285,22.0638814 C27.9738285,19.1071525 25.7479649,16.6879703 23.0274893,16.6879703 L23.0274893,16.6879703 Z M26.2425497,20.719911 L22.7801832,24.4830932 C22.5328499,24.7519407 22.5328499,24.7519407 22.2855984,24.7519407 C22.0382378,24.7519407 22.0382378,24.7519407 21.7909045,24.4830932 L20.0597622,22.3327881 C19.812347,22.063911 19.812347,21.5263644 20.0597622,21.2575763 C20.3070409,20.9887881 20.8016257,20.9887881 21.0489318,21.2575763 L22.5328499,22.8703347 L25.500577,19.6446992 C25.7479376,19.3760297 26.2425497,19.3760297 26.4898558,19.6446992 C26.489883,19.9135763 26.489883,20.4511229 26.2425497,20.719911 L26.2425497,20.719911 Z" id="Shape"></path>
                <path d="M16.3500351,22.0638814 C16.3500351,18.0319407 19.3177622,14.8063941 23.0275166,14.8063941 L23.0275166,5.12969492 C23.0275166,4.05448305 22.2855984,3.24811864 21.2963197,3.24811864 L18.0812047,3.24811864 L18.0812047,5.12969492 C18.0812047,5.66727119 17.5865107,6.20487712 17.0919259,6.20487712 C16.597232,6.20487712 16.1027563,5.66727119 16.1027563,5.12969492 L16.1027563,2.97930085 L6.21013255,2.97930085 L6.21013255,4.86087712 C6.21013255,5.39848305 5.71549318,5.93608898 5.22088109,5.93608898 C4.72624172,5.93608898 4.23160234,5.39851271 4.23160234,4.86087712 L4.23160234,2.97930085 L1.75846004,2.97930085 C0.769181287,2.97930085 0.0272631579,3.78569492 0.0272631579,4.86087712 L0.0272631579,26.095822 C0.0272631579,27.1710042 0.769208577,27.9774576 1.75846004,27.9774576 L19.812347,27.9774576 C17.8338986,27.1710339 16.3500351,24.7519407 16.3500351,22.0638814 L16.3500351,22.0638814 Z M1.75846004,10.2368178 C1.75846004,9.69927119 2.25307212,9.16163559 2.7477115,9.16163559 L20.554347,9.16163559 C21.0489318,9.16163559 21.5436257,9.69927119 21.5436257,10.2368178 C21.5436257,10.7744237 21.0489318,11.3120297 20.554347,11.3120297 L2.50040546,11.3120297 C2.00579337,11.0432119 1.75846004,10.7744237 1.75846004,10.2368178 L1.75846004,10.2368178 Z M11.6510292,24.4830932 L3.9842963,24.4830932 C3.48965692,24.4830932 2.99504483,23.9455169 2.99504483,23.4079703 C2.99504483,22.8703347 3.48965692,22.3327881 3.9842963,22.3327881 L11.6510565,22.3327881 C12.1456959,22.3327881 12.6402807,22.8703347 12.6402807,23.4079703 C12.3929474,23.9455169 12.1456686,24.4830932 11.6510292,24.4830932 L11.6510292,24.4830932 Z M11.6510292,18.5696059 L3.9842963,18.5696059 C3.48965692,18.5696059 2.99504483,18.0319703 2.99504483,17.4943941 C2.99504483,16.9568475 3.48965692,16.4192119 3.9842963,16.4192119 L11.6510565,16.4192119 C12.1456959,16.4192119 12.6402807,16.9568475 12.6402807,17.4943941 C12.3929474,18.3007288 12.1456686,18.5696059 11.6510292,18.5696059 L11.6510292,18.5696059 Z" id="Shape"></path>
            </g>
        </g>
    </g>
</svg>