<?xml version="1.0" encoding="UTF-8"?>
<svg width="40px" height="40px" viewBox="0 0 40 40" version="1.1" xmlns="http://www.w3.org/2000/svg" xmlns:xlink="http://www.w3.org/1999/xlink">
    <!-- Generator: Sketch 44.1 (41455) - http://www.bohemiancoding.com/sketch -->
    <title>喇叭 (1)</title>
    <desc>Created with Sketch.</desc>
    <defs></defs>
    <g id="切图" stroke="none" stroke-width="1" fill="none" fill-rule="evenodd">
        <g id="滚动条-喇叭">
            <g id="喇叭-(1)">
                <rect id="Rectangle" fill="#FFF9E5" x="0" y="0" width="40" height="40"></rect>
                <path d="M24.3136583,12.0783561 C24.0942348,11.9693418 23.8331816,11.9992734 23.6411189,12.1556083 C23.6327971,12.1630964 22.700361,12.9250313 21.6715941,13.7040225 C19.8822583,15.0595557 19.3607301,15.2856963 19.2548798,15.3219304 L16.7192441,15.3219304 C16.7067717,15.3219304 16.6942786,15.3237192 16.6817856,15.3237192 L15.5370501,15.3237192 C15.2486361,15.3237192 15.014923,15.564524 15.014923,15.8613232 L15.014923,24.4423109 C15.014923,24.7394012 15.2486154,24.9796028 15.5370501,24.9796028 L19.669959,24.9796028 C19.7734345,25.0185409 20.2658054,25.252752 21.853559,26.5843233 C22.7776734,27.3588216 23.606634,28.1153693 23.6149352,28.1231486 C23.7338773,28.2315596 23.884909,28.2884484 24.0371384,28.2884484 C24.125168,28.2884484 24.214354,28.2692913 24.2975928,28.2309356 C24.5259782,28.1249166 24.6728387,27.8919119 24.6728387,27.6343213 L24.6728387,12.6671703 C24.6734376,12.4158821 24.5337219,12.1873495 24.3136583,12.0783561 Z M23.6351718,26.5914994 C23.3532831,26.3470962 23.0393048,26.0787934 22.7182023,25.8110314 C20.5976251,24.044568 20.0731439,23.8972188 19.7175358,23.8972188 C19.7104117,23.8972188 19.7038657,23.8984252 19.6973198,23.8984252 C19.690175,23.8984252 19.6830509,23.8972188 19.6765049,23.8972188 L16.5039919,23.8972188 C16.1376872,23.8972188 16.0532301,23.7905758 16.0532301,23.4120316 L16.0532301,16.8272048 C16.0532301,16.5705502 16.0829656,16.4097017 16.3832532,16.4097017 L19.2715441,16.4097017 C19.6176327,16.4097017 20.1492586,16.2635381 22.4684445,14.5162733 C22.8817271,14.2047891 23.2855109,13.8921194 23.6351718,13.6171605 L23.6351718,26.5914994 Z M29.8820914,20.1471577 C29.8820914,18.4804524 29.0031792,17.0266795 27.6967154,16.2443811 C27.6378226,16.2123486 27.497508,16.1500518 27.3999796,16.1500518 C27.1103885,16.1500518 26.8754778,16.3920422 26.8754778,16.6903598 C26.8754778,16.8904168 26.978974,17.0689248 27.1359528,17.1620685 C28.1456807,17.7523803 28.8271613,18.8674207 28.8271613,20.1471786 C28.8271613,21.4497335 28.1224911,22.5818093 27.0824082,23.1640507 C26.9313971,23.2592951 26.8314733,23.4312094 26.8314733,23.6270856 C26.8314733,23.9253824 27.0669416,24.1673936 27.356574,24.1673936 C27.4796667,24.1686 27.6259697,24.093719 27.6259696,24.093719 C28.9716678,23.3221536 29.8820914,21.8444395 29.8820914,20.1471577 L29.8820914,20.1471577 Z M29.2761472,13.4979749 C29.1786188,13.4380701 29.0816893,13.3892519 28.9633666,13.3892519 C28.6749526,13.3892519 28.4406613,13.6297447 28.4406613,13.9268558 C28.4406613,14.1407035 28.5643529,14.312597 28.7391731,14.4105455 C30.6575487,15.56182 31.9479883,17.6990484 31.9479883,20.1486554 C31.9479883,22.5961615 30.6593658,24.7322251 28.7427455,25.8841028 C28.5750701,25.9775169 28.4299648,26.1554216 28.4299648,26.3752597 C28.4299648,26.6723709 28.6642767,26.9125725 28.9520919,26.9125725 C29.0686386,26.9125725 29.1607982,26.8670615 29.2613208,26.8071567 C31.4877276,25.4713837 32.985077,22.9903267 32.985077,20.1486554 C32.9850357,17.3114976 31.4936128,14.8361399 29.2761472,13.4979749 L29.2761472,13.4979749 Z" id="Shape" fill="#F8AA2E" fill-rule="nonzero"></path>
            </g>
        </g>
    </g>
</svg>