<?xml version="1.0" encoding="UTF-8"?>
<svg width="36px" height="36px" viewBox="0 0 36 36" version="1.1" xmlns="http://www.w3.org/2000/svg" xmlns:xlink="http://www.w3.org/1999/xlink">
    <!-- Generator: Sketch 44.1 (41455) - http://www.bohemiancoding.com/sketch -->
    <title>学员反馈</title>
    <desc>Created with Sketch.</desc>
    <defs>
        <linearGradient x1="7.48641867%" y1="0%" x2="90.2473834%" y2="87.0729565%" id="linearGradient-1">
            <stop stop-color="#27CFFD" offset="0%"></stop>
            <stop stop-color="#54CAFD" offset="100%"></stop>
        </linearGradient>
    </defs>
    <g id="切图" stroke="none" stroke-width="1" fill="none" fill-rule="evenodd">
        <g id="学员反馈" fill-rule="nonzero" fill="url(#linearGradient-1)">
            <g id="反馈" transform="translate(4.000000, 5.000000)">
                <path d="M25.1779883,0.00164347826 L2.81996094,0.00164347826 C1.27635156,0.00164347826 0.02515625,1.25517913 0.02515625,2.80147304 L0.02515625,18.1993852 C0.02515625,19.7456243 1.27635156,20.999023 2.81996094,20.999023 L4.21722656,20.999023 L4.21722656,25.1984113 L9.45746484,20.999023 L25.1780156,20.999023 C26.7214609,20.999023 27.9726836,19.745597 27.9726836,18.1993852 L27.9726836,2.80147304 C27.9726836,1.25517913 26.7214609,0.00164347826 25.1780156,0.00164347826 L25.1779883,0.00164347826 Z M21.3754844,15.4159357 L6.59506641,15.4159357 C5.90233984,15.4159357 5.34086328,14.8956652 5.34086328,14.2540239 C5.34086328,13.6123826 5.90233984,13.0922217 6.59506641,13.0922217 L21.3755391,13.0922217 C22.0681289,13.0922217 22.6297148,13.6124374 22.6297148,14.2540239 C22.6296875,14.8956652 22.0681289,15.415963 21.3754844,15.415963 L21.3754844,15.4159357 Z M21.3754844,8.40606261 L6.59506641,8.40606261 C5.90233984,8.40606261 5.34086328,7.88579217 5.34086328,7.24412348 C5.34086328,6.60250957 5.90233984,6.08229391 6.59506641,6.08229391 L21.3755391,6.08229391 C22.0681289,6.08229391 22.6297148,6.60256435 22.6297148,7.24409609 C22.6296875,7.88579217 22.0681289,8.40606261 21.3754844,8.40606261 Z" id="Shape"></path>
            </g>
        </g>
    </g>
</svg>