<?xml version="1.0" encoding="UTF-8"?>
<svg width="36px" height="36px" viewBox="0 0 36 36" version="1.1" xmlns="http://www.w3.org/2000/svg" xmlns:xlink="http://www.w3.org/1999/xlink">
    <!-- Generator: Sketch 44.1 (41455) - http://www.bohemiancoding.com/sketch -->
    <title>精品内容</title>
    <desc>Created with Sketch.</desc>
    <defs>
        <linearGradient x1="21.4698093%" y1="0%" x2="85.5143242%" y2="100%" id="linearGradient-1">
            <stop stop-color="#FBD249" offset="0%"></stop>
            <stop stop-color="#FAB441" offset="100%"></stop>
        </linearGradient>
    </defs>
    <g id="切图" stroke="none" stroke-width="1" fill="none" fill-rule="evenodd">
        <g id="精品内容" fill-rule="nonzero" fill="url(#linearGradient-1)">
            <g id="精品推荐" transform="translate(4.000000, 4.000000)">
                <path d="M5.22666667,23.0533333 C5.04,23.8 4.57333333,24.36 4.01333333,24.5466667 L4.2,26.32 C4.29333333,27.2533333 4.94666667,28 5.69333333,28 L22.3066667,28 C23.1466667,28 23.8,27.2533333 23.8933333,26.2266667 L23.9866667,24.4533333 C23.4266667,24.36 22.96,23.8 22.7733333,23.0533333 L5.22666667,23.0533333 Z M28,6.72 C28,5.41333333 26.9733333,4.38666667 25.6666667,4.38666667 C24.36,4.38666667 23.3333333,5.41333333 23.3333333,6.72 C23.3333333,7.74666667 23.9866667,8.58666667 24.8266667,8.86666667 C24.08,11.48 22.4933333,12.5066667 20.0666667,12.5066667 C17.64,12.5066667 15.5866667,8.86666667 15.4933333,5.13333333 C16.3333333,4.66666667 16.8,3.82666667 16.8,2.8 C16.8,1.21333333 15.4933333,0 14,0 C12.4133333,0 11.2,1.30666667 11.2,2.8 C11.2,3.82666667 11.6666667,4.66666667 12.5066667,5.13333333 C12.4133333,8.86666667 10.36,12.5066667 7.93333333,12.5066667 C5.50666667,12.5066667 3.92,11.48 3.17333333,8.86666667 C4.01333333,8.58666667 4.66666667,7.74666667 4.66666667,6.72 C4.66666667,5.41333333 3.64,4.38666667 2.33333333,4.38666667 C1.02666667,4.38666667 0,5.50666667 0,6.72 C0,7.74666667 0.653333333,8.58666667 1.49333333,8.86666667 L2.8,18.3866667 C2.8,18.76 2.89333333,19.1333333 3.08,19.4133333 C3.26666667,19.32 3.36,19.32 3.54666667,19.32 C4.48,19.32 5.22666667,20.16 5.32,21.28 L22.68,21.28 C22.7733333,20.16 23.52,19.32 24.4533333,19.32 C24.64,19.32 24.7333333,19.32 24.92,19.4133333 C25.0133333,19.1333333 25.1066667,18.76 25.2,18.3866667 L26.5066667,8.96 C27.3466667,8.58666667 28,7.74666667 28,6.72 Z" id="Shape"></path>
            </g>
        </g>
    </g>
</svg>