<?xml version="1.0" encoding="UTF-8"?>
<svg width="36px" height="36px" viewBox="0 0 36 36" version="1.1" xmlns="http://www.w3.org/2000/svg" xmlns:xlink="http://www.w3.org/1999/xlink">
    <!-- Generator: Sketch 44.1 (41455) - http://www.bohemiancoding.com/sketch -->
    <title>公司介绍</title>
    <desc>Created with Sketch.</desc>
    <defs>
        <linearGradient x1="50%" y1="0%" x2="50%" y2="98.7145249%" id="linearGradient-1">
            <stop stop-color="#18D1FD" offset="0%"></stop>
            <stop stop-color="#64C8FE" offset="100%"></stop>
        </linearGradient>
    </defs>
    <g id="切图" stroke="none" stroke-width="1" fill="none" fill-rule="evenodd">
        <g id="公司介绍" fill-rule="nonzero" fill="url(#linearGradient-1)">
            <path d="M15.9999682,30.3827231 C12.0331557,27.9927284 4,28.4300723 4,26.4774146 C4,25.5133531 4,18.5542696 4,5.60016404 L4.00000012,5.60016404 C4.00000012,5.26879326 4.26862922,5.00016416 4.6,5.00016416 C4.60170592,5.00016416 4.60341183,5.00017143 4.60511768,5.00018599 C12.2016847,5.06498304 15.9999682,6.36595021 15.9999682,8.90308751 C15.9999682,10.5778752 15.9999682,28.7738055 15.9999682,30.3827231 Z M19.999924,30.3827231 C23.9667724,27.9927284 32,28.4300723 32,26.4774146 C32,25.5133531 32,18.5542696 32,5.60016404 L31.9999999,5.60016404 C31.9999999,5.26879323 31.7313708,5.00016411 31.4,5.00016411 C31.3982941,5.00016411 31.3965882,5.00017139 31.3948824,5.00018594 C23.7982435,5.06498241 19.999924,6.3659496 19.999924,8.90308751 C19.999924,10.5778752 19.999924,28.7738055 19.999924,30.3827231 Z" id="Shape"></path>
        </g>
    </g>
</svg>