<?xml version="1.0" encoding="UTF-8"?>
<svg width="80px" height="24px" viewBox="0 0 80 24" version="1.1" xmlns="http://www.w3.org/2000/svg" xmlns:xlink="http://www.w3.org/1999/xlink">
    <defs></defs>
    <g id="切图" stroke="none" stroke-width="1" fill="none" fill-rule="evenodd">
        <g id="活动规则" fill="#FFFFFF">
            <g transform="translate(3.000000, 2.000000)">
                <g id="规则-(2)" transform="translate(0.000000, 4.000000)" fill-rule="nonzero">
                    <path d="M6.5,0.00714619883 C2.90759064,0.00714619883 0.00714619883,2.90757797 0.00714619883,6.5 C0.00714619883,10.092422 2.90757797,12.9928538 6.5,12.9928538 C10.0924094,12.9928538 12.9928538,10.092422 12.9928538,6.5 C12.9928538,2.90759064 10.092422,0.00714619883 6.5,0.00714619883 L6.5,0.00714619883 L6.5,0.00714619883 Z M6.29387524,10.4310556 C5.8816384,10.4310556 5.54300487,10.0924347 5.54300487,9.66546199 C5.54300487,9.23850195 5.88162573,8.89986842 6.29387524,8.89986842 C6.70611209,8.89986842 7.04474561,9.23848928 7.04474561,9.66546199 C7.04474561,10.0776988 6.70612476,10.4310556 6.29387524,10.4310556 L6.29387524,10.4310556 L6.29387524,10.4310556 Z M8.39927973,5.60189766 C8.29621735,5.79329922 8.17844444,5.96997758 8.03119981,6.11720955 C7.88396784,6.26444152 7.63367349,6.5 7.26560624,6.8386462 C7.16254386,6.94170858 7.07420468,7.01531189 7.01531189,7.08894055 C6.95643177,7.16255653 6.91224951,7.22144932 6.88280312,7.2950653 C6.85335673,7.35394542 6.823923,7.41285088 6.80918713,7.47173099 C6.79446394,7.53061111 6.76501754,7.63368616 6.73557115,7.79564133 C6.67669103,8.11955166 6.5,8.28150682 6.19082554,8.28150682 C6.02887037,8.28150682 5.89637427,8.22262671 5.79329922,8.11955166 C5.69023684,8.01648928 5.63134405,7.85453411 5.63134405,7.64840936 C5.63134405,7.38339181 5.67551365,7.16254386 5.74912963,6.9711423 C5.82274561,6.77974074 5.92579532,6.61778558 6.05831676,6.47056628 C6.19082554,6.32333431 6.3675039,6.16137914 6.58833918,5.95525439 C6.77974074,5.77858869 6.92696004,5.64606725 7.00057602,5.55772807 C7.0889152,5.46938889 7.16253119,5.36632651 7.22141131,5.2632768 C7.28029142,5.16021442 7.30975049,5.04244152 7.30975049,4.90992008 C7.30975049,4.65962573 7.22141131,4.45351365 7.04473294,4.27682261 C6.86806725,4.10015692 6.6324961,4.02652827 6.35275536,4.02652827 C6.02884503,4.02652827 5.77856335,4.11486745 5.61660819,4.27682261 C5.45465302,4.4534883 5.32215692,4.70378265 5.21908187,5.04241618 C5.11601949,5.3957729 4.9246306,5.5724386 4.63016667,5.5724386 C4.4682115,5.5724386 4.32097953,5.51355848 4.20320663,5.3957729 C4.08542105,5.27798733 4.02654094,5.14547856 4.02654094,4.99824659 C4.02654094,4.70379532 4.11488012,4.40933138 4.30628168,4.10014425 C4.48294737,3.80569298 4.76268811,3.55539864 5.11604483,3.34927388 C5.46940156,3.15787232 5.8816384,3.05482261 6.35276803,3.05482261 C6.79446394,3.05482261 7.17725439,3.14316179 7.51588791,3.30511696 C7.85450877,3.46707212 8.10480312,3.70264327 8.29620468,3.98238402 C8.47287037,4.26212476 8.57594542,4.57129922 8.57594542,4.90993275 C8.54649903,5.17495029 8.50232943,5.41050877 8.39927973,5.60191033 L8.39927973,5.60191033 L8.39927973,5.60191033 L8.39927973,5.60189766 Z" id="Shape"></path>
                </g>
                <text id="邀请规则" font-family="PingFangSC-Regular, PingFang SC" font-size="14" font-weight="normal">
                    <tspan x="17" y="15">邀请规则</tspan>
                </text>
            </g>
        </g>
    </g>
</svg>