<?xml version="1.0" encoding="UTF-8"?>
<svg width="30px" height="30px" viewBox="0 0 30 30" version="1.1" xmlns="http://www.w3.org/2000/svg" xmlns:xlink="http://www.w3.org/1999/xlink">
    <!-- Generator: Sketch 44.1 (41455) - http://www.bohemiancoding.com/sketch -->
    <title>邀请个数</title>
    <desc>Created with Sketch.</desc>
    <defs>
        <linearGradient x1="11.7692184%" y1="0%" x2="100%" y2="100%" id="linearGradient-1">
            <stop stop-color="#F78384" offset="0%"></stop>
            <stop stop-color="#EE6D85" offset="100%"></stop>
        </linearGradient>
    </defs>
    <g id="切图" stroke="none" stroke-width="1" fill="none" fill-rule="evenodd">
        <g id="邀请个数" fill-rule="nonzero" fill="url(#linearGradient-1)">
            <g id="人数" transform="translate(1.000000, 6.000000)">
                <path d="M15.9692308,9.78713826 C17.5446154,9.00514469 18.5292308,7.24565916 18.5292308,5.29067524 C18.5292308,2.55369775 16.56,0.207717042 14,0.207717042 C11.44,0.207717042 9.47076923,2.35819936 9.47076923,5.29067524 C9.47076923,7.24565916 10.4553846,9.00514469 12.0307692,9.78713826 C8.09230769,10.7646302 5.13846154,14.4790997 4.94153846,18.9755627 L23.0584615,18.9755627 C22.8615385,14.4790997 19.9076923,10.7646302 15.9692308,9.78713826 Z" id="Shape"></path>
                <path d="M21.68,8.61414791 C23.0584615,7.83215434 24.0430769,6.46366559 24.0430769,4.50868167 C24.0430769,1.96720257 22.2707692,0.0122186495 19.9076923,0.0122186495 C19.12,0.0122186495 18.5292308,0.207717042 17.9384615,0.598713826 C18.9230769,1.77170418 19.7107692,3.33569132 19.7107692,5.09517685 C19.7107692,6.65916399 19.12,8.22315113 18.1353846,9.20064309 C21.0892308,10.5691318 23.0584615,13.3061093 23.8461538,16.629582 L27.9815385,16.629582 C27.7846154,12.9151125 25.2246154,9.59163987 21.68,8.61414791 Z M9.86461538,9.39614148 C8.88,8.22315113 8.28923077,6.85466238 8.28923077,5.09517685 C8.28923077,3.33569132 8.88,1.77170418 10.0615385,0.598713826 C9.47076923,0.403215434 8.88,0.207717042 8.09230769,0.207717042 C5.92615385,0.207717042 3.95692308,2.16270096 3.95692308,4.70418006 C3.95692308,6.46366559 4.94153846,8.02765273 6.32,8.8096463 C2.77538462,9.59163987 0.215384615,12.9151125 0.0184615385,16.8250804 L4.15384615,16.8250804 C4.74461538,13.5016077 6.91076923,10.7646302 9.86461538,9.39614148 Z" id="Shape"></path>
            </g>
        </g>
    </g>
</svg>