<?xml version="1.0" encoding="UTF-8"?>
<svg width="36px" height="36px" viewBox="0 0 36 36" version="1.1" xmlns="http://www.w3.org/2000/svg" xmlns:xlink="http://www.w3.org/1999/xlink">
    <!-- Generator: Sketch 44.1 (41455) - http://www.bohemiancoding.com/sketch -->
    <title>邀请学员</title>
    <desc>Created with Sketch.</desc>
    <defs>
        <linearGradient x1="25.5051246%" y1="0%" x2="72.4954494%" y2="100%" id="linearGradient-1">
            <stop stop-color="#1BD1FD" offset="0%"></stop>
            <stop stop-color="#5AC9FD" offset="100%"></stop>
        </linearGradient>
    </defs>
    <g id="切图" stroke="none" stroke-width="1" fill="none" fill-rule="evenodd">
        <g id="邀请学员" fill-rule="nonzero" fill="url(#linearGradient-1)">
            <g id="学员" transform="translate(1.000000, 6.000000)">
                <path d="M19.6376763,15.7774424 C21.390184,15.0531134 23.7533348,13.8553634 26.3300599,12.7495186 L26.3300599,21.6276173 C26.3300599,21.6276173 22.9976452,25.1787662 17.1393925,25.1787662 C10.8305078,25.1787662 7.42278049,21.6276173 7.42278049,21.6276173 L7.42278049,13.3408984 C9.41140355,14.1524882 11.6447361,14.850839 14.3472461,15.7774801 C16.0129446,16.3712011 18.126561,16.5764207 19.6376763,15.7774424 L19.6376763,15.7774424 Z M32.534306,8.01421289 L32.534306,13.6368527 L33.7158248,14.8207829 L31.252031,17.3892187 L28.7578182,14.8965651 L30.4658847,13.3408984 L30.4658847,8.90184908 C23.2186075,11.895148 20.895337,12.8254895 19.288102,13.5518196 C17.6808293,14.2781498 16.52351,14.2744872 14.9293925,13.6727614 C13.3352749,13.0710356 5.74656541,10.2967383 1.97848337,8.49023932 C-0.535858093,7.28489977 -0.697716186,6.52073519 2.02179379,5.49784663 C5.57087361,4.14717308 11.4368537,1.98419235 14.5464967,0.803660392 C16.3870953,0.0576955966 17.3603548,-0.349420845 19.0498381,0.501173858 C22.0667162,1.74899217 28.9600089,4.34008329 32.3876763,5.75777889 C35.3714967,7.06234883 33.3655721,7.49136543 32.534306,8.01421289 Z" id="Shape"></path>
            </g>
        </g>
    </g>
</svg>