<?xml version="1.0" encoding="UTF-8"?>
<svg width="36px" height="36px" viewBox="0 0 36 36" version="1.1" xmlns="http://www.w3.org/2000/svg" xmlns:xlink="http://www.w3.org/1999/xlink">
    <!-- Generator: Sketch 44.1 (41455) - http://www.bohemiancoding.com/sketch -->
    <title>邀请会员</title>
    <desc>Created with Sketch.</desc>
    <defs>
        <linearGradient x1="26.3492268%" y1="0%" x2="81.1033053%" y2="100%" id="linearGradient-1">
            <stop stop-color="#FCBA20" offset="0%"></stop>
            <stop stop-color="#F7A334" offset="100%"></stop>
        </linearGradient>
    </defs>
    <g id="切图" stroke="none" stroke-width="1" fill="none" fill-rule="evenodd">
        <g id="邀请会员" fill-rule="nonzero" fill="url(#linearGradient-1)">
            <g id="会员" transform="translate(3.000000, 4.000000)">
                <path d="M28.2046491,7.86521665 C28.0519554,7.6897086 27.6983661,7.27340224 27.2325212,6.72554564 C25.8298102,5.07518828 23.4827926,2.31457287 22.402291,1.14290319 C21.9558562,0.658074363 21.3994303,0.0549472803 20.3247518,0.011635904 C20.246464,0.00905013874 20.0080419,-9.99200722e-16 16.9926662,-9.99200722e-16 C13.5635295,-9.99200722e-16 8.72068275,0.01131268 8.72294725,0.01131268 C8.21019427,0.01131268 7.42893343,0.128318036 6.56647322,1.14257997 C5.93467096,1.88792351 4.95316146,3.02824094 3.95968233,4.18084069 C2.6941368,5.65116495 1.41015157,7.14346812 0.806494113,7.86553984 C-0.243598102,9.0918336 -0.269478387,10.7961686 0.736940882,12.3211169 L0.8039061,12.4103254 C1.99245781,13.8034002 4.57757394,16.7941477 7.62982908,20.3266107 L12.3756248,25.8193982 C13.2523192,26.8355994 13.9442931,26.9726444 14.5058951,26.9726444 C15.0956419,26.9726444 15.762059,26.8326905 16.6361654,25.8200446 L21.5453304,20.1372042 C24.4329222,16.7964103 26.8782849,13.9675956 28.2182362,12.3977198 C29.1130467,11.3117032 29.3679675,9.27703821 28.2046491,7.86521665 Z M22.9160145,10.7987543 L22.8545489,10.7987543 C22.3447074,10.7987543 22.1544874,10.9335367 21.9429161,11.217 C21.9222119,11.2447969 21.8989196,11.2767956 21.8691573,11.3139658 C20.8494744,12.7038085 17.4216318,16.9279605 15.4919336,19.3905678 C15.2527648,19.6951806 14.8867603,19.8730899 14.4992633,19.8730899 C14.1117663,19.8730899 13.7457617,19.6951806 13.5065929,19.3905678 C11.5762478,16.9289301 8.14905212,12.7122121 7.14263288,11.3356215 C7.09443087,11.2755027 7.0701681,11.2431808 7.04946387,11.2147375 C6.83918661,10.9325671 6.64961358,10.7984311 6.13750762,10.7984311 L6.07280693,10.7984311 C6.07280692,10.4641111 6.2057318,10.143484 6.4423396,9.90708413 C6.6789474,9.67068421 6.99985644,9.53787612 7.33447041,9.53787612 L8.78247189,9.53787612 C8.86302424,9.53787612 8.87952292,9.53787612 8.93678305,9.62773108 L13.4900942,15.5238962 C13.728771,15.8320506 14.0966657,16.0126037 14.4866563,16.012983 C14.8766469,16.0133623 15.2448927,15.833525 15.4841695,15.5258355 L20.0455683,9.6484171 C20.1170626,9.53690647 20.1400313,9.53690647 20.2160546,9.53690647 L21.654351,9.53690647 C21.988965,9.53690646 22.309874,9.66971455 22.5464818,9.90611446 C22.7830896,10.1425144 22.9160145,10.4631415 22.9160145,10.7974614 L22.9160145,10.7987543 Z" id="Shape"></path>
            </g>
        </g>
    </g>
</svg>