<?xml version="1.0" encoding="UTF-8"?>
<svg width="36px" height="36px" viewBox="0 0 36 36" version="1.1" xmlns="http://www.w3.org/2000/svg" xmlns:xlink="http://www.w3.org/1999/xlink">
    <!-- Generator: Sketch 44.1 (41455) - http://www.bohemiancoding.com/sketch -->
    <title>每日抽奖</title>
    <desc>Created with Sketch.</desc>
    <defs>
        <linearGradient x1="23.0330601%" y1="8.04925118%" x2="78.8342482%" y2="91.4118383%" id="linearGradient-1">
            <stop stop-color="#F88A8F" offset="0%"></stop>
            <stop stop-color="#F56F83" offset="100%"></stop>
        </linearGradient>
    </defs>
    <g id="切图" stroke="none" stroke-width="1" fill="none" fill-rule="evenodd">
        <g id="每日抽奖" fill-rule="nonzero" fill="url(#linearGradient-1)">
            <g id="抽奖" transform="translate(4.000000, 4.000000)">
                <path d="M14.0107783,0.0131599325 C6.28597547,0.0131599325 0.0239037349,6.27526618 0.0239037349,14 C0.0239037349,21.7246993 6.28600999,27.9868056 14.0107783,27.9868056 C21.7354431,27.9868056 27.9975494,21.7246993 27.9975494,14 C27.9975149,6.27526618 21.7353741,0.0131599325 14.0107783,0.0131599325 Z M24.0351056,6.73080756 L17.8616497,10.9524709 L19.5669611,5.73587283 L15.078173,9.75085784 L17.4517453,2.10283006 C20.130899,2.87631147 22.4364991,4.53004828 24.0351056,6.73080756 Z M15.0402688,9.79151699 C14.7565047,9.71858664 14.461763,9.67506901 14.1592194,9.66424426 C14.4627641,9.67379335 14.7582998,9.71672787 15.0430995,9.78885637 L15.0402688,9.79151699 Z M1.62886212,14 C1.62886212,7.16152826 7.17220304,1.61822185 14.0107783,1.61822185 C14.1632238,1.61822185 14.3149789,1.62108709 14.4660781,1.62657597 C14.3207439,1.62153587 14.1747884,1.61891227 14.0282115,1.61891227 C12.8610161,1.61891227 11.7315524,1.78050587 10.6609473,2.08239353 L13.0465329,9.76922311 C12.1415259,9.97462409 11.3440868,10.4629951 10.7519106,11.1363997 L4.10651576,6.59189437 C2.72618667,8.43746532 1.84893463,10.6811344 1.67750247,13.119572 L9.76526094,13.1031399 C9.70443462,13.3925309 9.67222639,13.6924854 9.67222639,13.9999655 C9.67222639,14.9379403 9.9699715,15.8063549 10.4760174,16.5160067 L3.93874286,21.1797481 C5.31772562,23.1142801 7.23920866,24.6354211 9.48122074,25.5209927 L12.2352509,17.959544 C12.7351865,18.1840698 13.285385,18.316493 13.864236,18.3357213 C13.9186414,18.337758 13.9731848,18.3391388 14.028108,18.3391388 C14.7156662,18.3391388 15.365769,18.1789261 15.9434463,17.8941609 L15.9403048,17.8863591 C16.6350434,17.5407332 17.2239747,17.0143888 17.6455817,16.3687393 L17.6580439,16.3770244 C18.1058526,15.6944027 18.3665219,14.8780806 18.3665219,14.000725 C18.3665219,13.6927271 18.3342101,13.3923238 18.2732112,13.1025186 L18.2553638,13.1024841 C18.1426521,12.5671987 17.9318313,12.0680571 17.6416809,11.6253576 L17.6471698,11.6085113 C17.9432578,12.0554569 18.1590152,12.5601909 18.2732457,13.1025186 L26.3613494,13.1189852 C26.3818205,13.4100332 26.392453,13.7037739 26.392453,14.0000346 C26.392453,16.5186993 25.6404092,18.8615823 24.3487651,20.8166199 L17.6580784,16.3770244 C17.2339167,17.023675 16.641775,17.5500193 15.9434462,17.8941609 L18.9511034,25.356879 C17.4376952,26.0161299 15.7669395,26.3818127 14.0107438,26.3818127 C7.17220304,26.3817782 1.62886212,20.8385063 1.62886212,14 Z M14.9117741,1.65005512 C14.869393,1.64732016 14.8268826,1.64471526 14.7845014,1.6421105 C14.8268826,1.64484559 14.8693929,1.64732003 14.9117741,1.65005512 Z M14.6589134,1.65755401 C14.5974657,1.64596277 14.5359835,1.63515286 14.4742941,1.62681764 C14.5359835,1.63541339 14.5975002,1.64557204 14.6589134,1.65755401 Z" id="Shape"></path>
            </g>
        </g>
    </g>
</svg>