<?xml version="1.0" encoding="UTF-8"?>
<svg width="36px" height="36px" viewBox="0 0 36 36" version="1.1" xmlns="http://www.w3.org/2000/svg" xmlns:xlink="http://www.w3.org/1999/xlink">
    <!-- Generator: Sketch 44.1 (41455) - http://www.bohemiancoding.com/sketch -->
    <title>更多活动</title>
    <desc>Created with Sketch.</desc>
    <defs>
        <linearGradient x1="10.2991946%" y1="9.16270648%" x2="89.2056979%" y2="93.1728894%" id="linearGradient-1">
            <stop stop-color="#F78484" offset="0%"></stop>
            <stop stop-color="#F77189" offset="100%"></stop>
        </linearGradient>
    </defs>
    <g id="切图" stroke="none" stroke-width="1" fill="none" fill-rule="evenodd">
        <g id="更多活动" fill-rule="nonzero" fill="url(#linearGradient-1)">
            <g id="活动-管理" transform="translate(4.000000, 4.000000)">
                <path d="M1.21560298,25.1492983 L1.21560298,27.0690855 C1.21560298,27.4888558 1.55657072,27.8291998 1.97726551,27.8291998 L12.9817866,27.8291998 L12.9817866,13.4724855 L1.21560298,13.4724855 L1.21560298,25.1492983 Z M24.1780347,27.8291652 L25.969062,27.8291652 C26.3897568,27.8291652 26.7306898,27.4888558 26.7306898,27.0690508 L26.7306898,26.8060876 C26.753062,26.7070734 26.7652903,26.6038296 26.7652903,26.4973269 L26.7652903,13.4724508 L15.0002184,13.4724508 L15.0002184,27.8290265 L24.1718511,27.8290265 C24.173866,27.8290265 24.1759504,27.8291652 24.1780347,27.8291652 L24.1780347,27.8291652 Z M2.5786402,5.8222854 L0.787543424,5.8222854 C0.366883375,5.8222854 0.0258808933,6.16259475 0.0258808933,6.5823651 L0.0258808933,12.4354711 L12.8940695,12.4354711 L12.8940695,6.02440475 C13.3677419,5.97853787 13.7870819,5.92292904 14.1287792,5.87706217 C14.1387841,5.87706217 14.1487196,5.86777092 14.1500397,5.86641883 L14.1503871,5.86676552 L14.1948189,5.86676552 L14.1948189,5.85456209 L14.1396873,5.85456209 L14.1390968,5.85414606 L14.1953052,5.85414606 L14.1953052,5.86596814 C14.4592208,5.91034426 14.7685062,5.94646919 15.0884566,5.97853787 L15.0884566,12.4347777 L27.9560199,12.4347777 L27.9560199,8.66363971 C27.9672754,8.61156711 27.9733896,8.55755306 27.9733896,8.50215225 L27.9733896,6.5823651 C27.9733896,6.16259475 27.6324218,5.8222854 27.2117618,5.8222854 L25.4206998,5.8222854 C25.382799,5.8222854 25.3455236,5.82512824 25.3090819,5.83046724 L20.7552605,5.83046724 C22.288139,5.48932583 23.491201,4.78253214 23.6887295,3.48522406 C23.9205112,2.00493383 22.1237519,-0.238868324 19.9497568,0.0456588655 C17.3482581,0.399385065 15.4410968,2.64322188 14.095464,4.38463784 C12.7613995,2.67650397 11.0196675,0.682872189 8.52683375,0.103729177 C6.11202481,-0.454959219 4.45804467,1.99342377 4.50251117,3.5082095 C4.54572705,4.79397286 5.72728536,5.49026189 7.30216377,5.83095261 L2.69397519,5.83095261 C2.655804,5.82516696 2.61724913,5.82226963 2.5786402,5.8222854 Z M19.41067,0.516473363 C21.1528189,-0.752046973 22.7735186,2.67981748 21.9465459,4.32830357 C21.30734,5.57963585 19.2895335,5.69890738 18.1975682,5.76781633 C17.3039653,5.83536696 16.3991067,5.80355077 15.5071712,5.68245073 C16.5435186,3.72468412 17.7449132,1.73625067 19.41067,0.516473363 L19.41067,0.516473363 Z M6.24476427,4.26500024 C5.80482382,3.55738947 6.10149876,2.5949957 6.37746898,1.87126204 C6.88459553,0.58964498 7.58928536,-0.188721724 8.79234739,0.536757738 C10.4679702,1.55003622 11.7025409,3.69417745 12.7067891,5.61388165 C10.5772953,5.95287347 7.40214392,6.08724814 6.24476427,4.26500024 Z" id="Shape"></path>
            </g>
        </g>
    </g>
</svg>