<?xml version="1.0" encoding="UTF-8"?>
<svg width="303px" height="49px" viewBox="0 0 303 49" version="1.1" xmlns="http://www.w3.org/2000/svg" xmlns:xlink="http://www.w3.org/1999/xlink">
    <defs>
        <linearGradient x1="4.91952759%" y1="50%" x2="90.0423342%" y2="50%" id="linearGradient-1">
            <stop stop-color="#A3F130" offset="0%"></stop>
            <stop stop-color="#0FC5BC" offset="100%"></stop>
        </linearGradient>
        <linearGradient x1="7.76283562%" y1="50%" x2="90.0423342%" y2="50%" id="linearGradient-2">
            <stop stop-color="#23E8EF" offset="0%"></stop>
            <stop stop-color="#FB8900" offset="100%"></stop>
        </linearGradient>
        <linearGradient x1="7.76283562%" y1="50%" x2="90.0423342%" y2="50%" id="linearGradient-3">
            <stop stop-color="#FC910E" offset="0%"></stop>
            <stop stop-color="#BA39E2" offset="100%"></stop>
        </linearGradient>
        <linearGradient x1="39.591161%" y1="-77.5129993%" x2="79.1029753%" y2="176.335398%" id="linearGradient-4">
            <stop stop-color="#A2C409" offset="0%"></stop>
            <stop stop-color="#85BD08" offset="100%"></stop>
        </linearGradient>
        <linearGradient x1="21.6913708%" y1="10.1406375%" x2="77.1913274%" y2="86.4139625%" id="linearGradient-5">
            <stop stop-color="#ADE30B" offset="0%"></stop>
            <stop stop-color="#B4F309" offset="100%"></stop>
        </linearGradient>
        <linearGradient x1="21.9981474%" y1="7.89528766%" x2="81.9199426%" y2="91.5098212%" id="linearGradient-6">
            <stop stop-color="#96D204" offset="0%"></stop>
            <stop stop-color="#85BF00" offset="91.9084128%"></stop>
            <stop stop-color="#83BD00" offset="100%"></stop>
        </linearGradient>
        <linearGradient x1="29.2622687%" y1="0%" x2="63.8765442%" y2="100%" id="linearGradient-7">
            <stop stop-color="#FFFFFF" offset="0%"></stop>
            <stop stop-color="#ACEC1C" offset="100%"></stop>
        </linearGradient>
        <path d="M13.4568514,15.4812049 C12.528407,13.8336748 12.9075475,11.3762724 13.8882591,9.84873398 C14.0255169,9.62920919 14.3133038,9.56773846 14.5223719,9.71532533 C14.6200886,9.78726323 14.6858996,9.89022196 14.7118059,9.99984162 L14.7181688,9.99984162 C14.7380757,10.0961394 14.7576191,10.1712175 14.7736173,10.2469616 C14.8753336,9.90040365 15.0122278,9.56041144 15.1823911,9.23802309 C15.711788,8.26990647 16.5616047,7.46679025 17.4701423,7.09615783 C17.712116,7.00014548 17.973633,7.12403852 18.061987,7.37087306 C18.1108908,7.49790625 18.0978922,7.63188583 18.0553514,7.74150548 C17.9669973,7.96103026 17.8885513,8.17417958 17.8201042,8.38675797 C18.496667,7.74150548 19.3527557,7.17884835 20.2284787,6.83229039 C22.0460083,6.1144339 24.11142,6.32729776 24.8926987,8.49666309 C24.9841433,8.74730386 24.8631565,9.02544471 24.6279093,9.12145705 L24.5787329,9.13506436 C23.0396275,9.56041144 22.4610541,10.617594 21.9183858,11.6167315 C21.1632861,13.0102904 20.4574538,14.3110722 17.9343645,14.2698697 C18.1045278,14.348754 18.3265946,14.4378199 18.6076549,14.530597 C18.8526283,14.6094813 18.9866137,14.8806757 18.915076,15.1347421 C18.8755349,15.2617753 18.7874536,15.3612133 18.6828286,15.4229695 C17.5223184,16.1095196 15.4898122,16.5970036 14.1824089,16.0581354 C13.9959746,16.3325652 13.7180958,16.9331895 13.910893,17.8701902 L13.910893,17.8701902 L15.1823911,17.8701902 C15.3359198,17.8701902 15.4569067,17.9972234 15.4569067,18.1619383 C15.4569067,18.3197069 15.3359198,18.4502608 15.1823911,18.4502608 L13.816176,18.4502608 L13.548296,18.4502608 L13.5091185,18.4502608 C13.2804161,18.4743353 13.0611672,18.313046 13.0122634,18.0691613 C12.7573821,16.809582 13.1558842,15.927296 13.4568514,15.4812049 L13.4568514,15.4812049 L13.4568514,15.4812049 Z M16.8263941,18.4502608 L16.8263941,18.4502608 L24.6421805,18.4502608 C24.7957093,18.4502608 24.9232409,18.3197069 24.9232409,18.1619383 C24.9232409,17.9972234 24.7957093,17.8701902 24.6421805,17.8701902 L16.8263941,17.8701902 C16.6725926,17.8701902 16.5486061,17.9972234 16.5486061,18.1619383 C16.5486061,18.3197069 16.6725926,18.4502608 16.8263941,18.4502608 L16.8263941,18.4502608 L16.8263941,18.4502608 Z" id="path-8"></path>
        <filter x="-10.8%" y="-9.2%" width="121.7%" height="121.7%" filterUnits="objectBoundingBox" id="filter-9">
            <feOffset dx="0" dy="0.2" in="SourceAlpha" result="shadowOffsetOuter1"></feOffset>
            <feGaussianBlur stdDeviation="0.4" in="shadowOffsetOuter1" result="shadowBlurOuter1"></feGaussianBlur>
            <feColorMatrix values="0 0 0 0 0.401591058   0 0 0 0 0.566911139   0 0 0 0 0.0185995349  0 0 0 1 0" type="matrix" in="shadowBlurOuter1"></feColorMatrix>
        </filter>
        <linearGradient x1="39.591161%" y1="-77.5129993%" x2="79.1029753%" y2="176.335398%" id="linearGradient-10">
            <stop stop-color="#20BADB" offset="0%"></stop>
            <stop stop-color="#0FA6D6" offset="100%"></stop>
        </linearGradient>
        <linearGradient x1="21.6913708%" y1="10.1406375%" x2="77.1913274%" y2="86.4139625%" id="linearGradient-11">
            <stop stop-color="#1DEEEE" offset="0%"></stop>
            <stop stop-color="#2DDBF3" offset="100%"></stop>
        </linearGradient>
        <linearGradient x1="21.9981474%" y1="7.89528766%" x2="81.9199426%" y2="91.5098212%" id="linearGradient-12">
            <stop stop-color="#37BEEF" offset="0%"></stop>
            <stop stop-color="#2FA9EF" offset="100%"></stop>
        </linearGradient>
        <linearGradient x1="27.21272%" y1="5.45694331%" x2="84.6968227%" y2="89.8582052%" id="linearGradient-13">
            <stop stop-color="#F6FFFE" offset="0%"></stop>
            <stop stop-color="#66D5EF" offset="100%"></stop>
        </linearGradient>
        <path d="M9.75,6.5 C9.30167411,6.5 8.9375,6.13582589 8.9375,5.6875 C8.9375,5.23917411 9.30167411,4.875 9.75,4.875 C10.1983259,4.875 10.5625,5.23917411 10.5625,5.6875 C10.5625,6.13582589 10.1997768,6.5 9.75,6.5 Z M6.5,6.5 C6.05167411,6.5 5.6875,6.13582589 5.6875,5.6875 C5.6875,5.23917411 6.05167411,4.875 6.5,4.875 C6.94832589,4.875 7.3125,5.23917411 7.3125,5.6875 C7.3125,6.13582589 6.94832589,6.5 6.5,6.5 Z M3.25,6.5 C2.80167411,6.5 2.4375,6.13582589 2.4375,5.6875 C2.4375,5.23917411 2.80022321,4.875 3.25,4.875 C3.69977679,4.875 4.0625,5.23917411 4.0625,5.6875 C4.0625,6.13582589 3.69977679,6.5 3.25,6.5 Z M6.5,0 C2.91049107,0 0,2.54631696 0,5.6875 C0,7.48225446 0.951785714,9.08113839 2.4375,10.1228795 L2.4375,13 L5.28560268,11.2719866 C5.68024554,11.3372768 6.08504464,11.375 6.5,11.375 C10.0895089,11.375 13,8.82868304 13,5.6875 C13,2.54631696 10.0909598,0 6.5,0 Z" id="path-14"></path>
        <filter x="-10.4%" y="-8.1%" width="120.8%" height="120.8%" filterUnits="objectBoundingBox" id="filter-15">
            <feOffset dx="0" dy="0.3" in="SourceAlpha" result="shadowOffsetOuter1"></feOffset>
            <feGaussianBlur stdDeviation="0.4" in="shadowOffsetOuter1" result="shadowBlurOuter1"></feGaussianBlur>
            <feColorMatrix values="0 0 0 0 0.118849801   0 0 0 0 0.509935507   0 0 0 0 0.716491284  0 0 0 1 0" type="matrix" in="shadowBlurOuter1"></feColorMatrix>
        </filter>
        <linearGradient x1="39.591161%" y1="-77.5129993%" x2="79.1029753%" y2="176.335398%" id="linearGradient-16">
            <stop stop-color="#FCA126" offset="0%"></stop>
            <stop stop-color="#FC8F0E" offset="100%"></stop>
        </linearGradient>
        <linearGradient x1="21.6913708%" y1="10.1406375%" x2="76.2179544%" y2="85.0762607%" id="linearGradient-17">
            <stop stop-color="#FFD073" offset="0%"></stop>
            <stop stop-color="#FFD052" offset="100%"></stop>
        </linearGradient>
        <linearGradient x1="21.9981474%" y1="7.89528766%" x2="81.9199426%" y2="91.5098212%" id="linearGradient-18">
            <stop stop-color="#F6A90C" offset="0%"></stop>
            <stop stop-color="#FE870F" offset="100%"></stop>
        </linearGradient>
        <linearGradient x1="15.9913748%" y1="0%" x2="88.6165803%" y2="100%" id="linearGradient-19">
            <stop stop-color="#FFFBEB" offset="0%"></stop>
            <stop stop-color="#FDCE80" offset="100%"></stop>
        </linearGradient>
        <path d="M6,1.73472248 C3.64421304,1.73472248 1.73463543,3.64438713 1.73463543,6.00008705 C1.73463543,8.35561287 3.64430008,10.2654516 6,10.2654516 C8.35569992,10.2654516 10.2654516,8.35561287 10.2654516,6.00008705 C10.2654516,3.64430008 8.35578696,1.73472248 6,1.73472248 Z M8.593951,6.60942484 L5.99573464,6.60942484 C5.90381167,6.60942484 5.8226827,6.56694529 5.7676682,6.5013109 C5.72327359,6.44890786 5.69533111,6.38240299 5.69533111,6.3090213 L5.69533111,6.30623576 C5.69533111,6.30562642 5.69515701,6.30536528 5.69515701,6.30475594 C5.69515701,6.30405955 5.69533111,6.30379841 5.69533111,6.30310202 L5.69515701,3.25354046 C5.69533111,3.08753943 5.83173572,2.95331102 6.00000001,2.95331102 C6.1682643,2.95331102 6.30484301,3.08762648 6.30484301,3.25354046 L6.30466892,6 L8.59360282,6 C8.75977794,6 8.89461569,6.13623052 8.89435454,6.3046689 C8.89435453,6.47310728 8.76003907,6.60942484 8.593951,6.60942484 Z" id="path-20"></path>
        <filter x="-19.3%" y="-15.8%" width="138.7%" height="138.7%" filterUnits="objectBoundingBox" id="filter-21">
            <feOffset dx="0" dy="0.3" in="SourceAlpha" result="shadowOffsetOuter1"></feOffset>
            <feGaussianBlur stdDeviation="0.5" in="shadowOffsetOuter1" result="shadowBlurOuter1"></feGaussianBlur>
            <feColorMatrix values="0 0 0 0 1   0 0 0 0 0.49925243   0 0 0 0 0.195963542  0 0 0 1 0" type="matrix" in="shadowBlurOuter1"></feColorMatrix>
        </filter>
        <path d="M6,0.00368084337 C2.68833613,0.00368084337 0.00368084337,2.68833613 0.00368084337,6 C0.00368084337,9.31157682 2.68833612,11.9963192 6,11.9963192 C9.31166388,11.9963192 11.9963192,9.31157683 11.9963192,6 C11.9963192,2.68833613 9.31166387,0.00368084337 6,0.00368084337 Z M6,10.8747024 C3.30759742,10.8747024 1.12529764,8.69231552 1.12529764,6.00008705 C1.12529764,3.30759742 3.30759743,1.12529764 6,1.12529764 C8.69240257,1.12529764 10.8747024,3.30759743 10.8747024,6.00008705 C10.8747024,8.69231553 8.69240258,10.8747024 6,10.8747024 Z" id="path-22"></path>
        <filter x="-13.8%" y="-11.3%" width="127.5%" height="127.5%" filterUnits="objectBoundingBox" id="filter-23">
            <feOffset dx="0" dy="0.3" in="SourceAlpha" result="shadowOffsetOuter1"></feOffset>
            <feGaussianBlur stdDeviation="0.5" in="shadowOffsetOuter1" result="shadowBlurOuter1"></feGaussianBlur>
            <feColorMatrix values="0 0 0 0 1   0 0 0 0 0.49925243   0 0 0 0 0.195963542  0 0 0 1 0" type="matrix" in="shadowBlurOuter1"></feColorMatrix>
        </filter>
        <linearGradient x1="39.591161%" y1="-77.5129993%" x2="79.1029753%" y2="176.335398%" id="linearGradient-24">
            <stop stop-color="#D969F7" offset="0%"></stop>
            <stop stop-color="#A92CDA" offset="100%"></stop>
        </linearGradient>
        <linearGradient x1="21.6913708%" y1="10.1406375%" x2="77.1913274%" y2="86.4139625%" id="linearGradient-25">
            <stop stop-color="#D969F7" offset="0%"></stop>
            <stop stop-color="#D95EF9" offset="100%"></stop>
        </linearGradient>
        <linearGradient x1="21.9981474%" y1="7.89528766%" x2="81.9199426%" y2="91.5098212%" id="linearGradient-26">
            <stop stop-color="#C641E2" offset="0%"></stop>
            <stop stop-color="#AC30E3" offset="100%"></stop>
        </linearGradient>
        <linearGradient x1="26.1751125%" y1="12.391716%" x2="71.9019075%" y2="85.1483556%" id="linearGradient-27">
            <stop stop-color="#FFFFFF" offset="0%"></stop>
            <stop stop-color="#E58CFE" offset="100%"></stop>
        </linearGradient>
        <path d="M0.055550333,4.62527972 C2.21428372,6.10192398 4.37313401,7.57856823 6.53198432,9.05521247 C6.50735301,9.32257691 6.48259181,9.58988772 6.4579735,9.85719854 C5.13439189,8.85810761 3.81073233,7.85900328 2.48713773,6.85992575 C2.39263981,6.78890205 2.22966529,6.75321592 2.11835677,6.71128271 C2.10284528,7.45460518 2.0874767,8.19792765 2.07209514,8.94123672 C3.427726,9.91293969 4.77565311,10.9769413 6.17787041,11.8714003 C6.41150401,12.0206868 6.64072059,12.0418411 6.86475371,11.875288 C8.22180062,10.8652579 9.57883455,9.85521449 10.9359984,8.84518446 C10.9359984,7.94134144 10.9359984,7.03756546 10.9359984,6.13372243 C11.5976268,5.69119835 12.2593722,5.24867429 12.9210006,4.80615021 C13.0407664,4.72698921 13.0149269,4.40849521 12.9002926,4.32764509 C10.9263979,2.91945064 8.95229535,1.51109532 6.9783227,0.102900865 C6.74298725,-0.0649660349 6.33299823,0.012210917 6.10769199,0.161792358 C4.12120883,1.48414974 2.13456977,2.80649371 0.148047631,4.12878406 C0.0986940957,4.19884255 0.0493795225,4.26882062 2.59873047e-05,4.3388791 C0.0185514189,4.43435492 0.037050876,4.52981733 0.055550333,4.62527972 L0.055550333,4.62527972 Z M4.653393,2.41436189 L6.50388437,3.61415042 L6.50388437,2.31383211 L9.57554778,4.39535758 L6.50388437,6.55164694 L6.50388437,5.2184309 L4.653393,6.57257333 L4.653393,2.41436189 Z" id="path-28"></path>
        <filter x="-12.7%" y="-11.3%" width="125.4%" height="127.5%" filterUnits="objectBoundingBox" id="filter-29">
            <feOffset dx="0" dy="0.3" in="SourceAlpha" result="shadowOffsetOuter1"></feOffset>
            <feGaussianBlur stdDeviation="0.5" in="shadowOffsetOuter1" result="shadowBlurOuter1"></feGaussianBlur>
            <feColorMatrix values="0 0 0 0 0.879030492   0 0 0 0 0.420071338   0 0 0 0 0.973107993  0 0 0 1 0" type="matrix" in="shadowBlurOuter1"></feColorMatrix>
        </filter>
    </defs>
    <g id="切图" stroke="none" stroke-width="1" fill="none" fill-rule="evenodd">
        <g id="试听">
            <g id="Group-6" transform="translate(6.000000, 28.000000)" font-size="12" font-family="PingFangSC-Regular, PingFang SC" letter-spacing="-0.1599999" fill="#666666" font-weight="normal">
                <text id="邀请">
                    <tspan x="0.1599999" y="13">邀请</tspan>
                </text>
                <text id="联系">
                    <tspan x="87.1599999" y="13">联系</tspan>
                </text>
                <text id="预约">
                    <tspan x="174.16" y="13">预约</tspan>
                </text>
                <text id="试听">
                    <tspan x="267.16" y="13">试听</tspan>
                </text>
            </g>
            <g id="Group-3">
                <rect id="Rectangle-5" fill="url(#linearGradient-1)" x="30" y="12" width="65" height="3"></rect>
                <rect id="Rectangle-5" fill="url(#linearGradient-2)" x="113" y="12" width="65" height="3"></rect>
                <rect id="Rectangle-5" fill="url(#linearGradient-3)" x="205" y="12" width="65" height="3"></rect>
                <g id="报名">
                    <path d="M0.555340148,10.1553573 L35.4500175,10.1553573 L35.4500175,10.1553573 C35.615703,10.1553573 35.7500175,10.2896719 35.7500175,10.4553573 C35.7500175,10.5137882 35.7329541,10.5709473 35.7009225,10.619816 L33.8873955,13.3866073 L35.7009225,16.1533986 L35.7009225,16.1533986 C35.7917506,16.2919697 35.7530473,16.4779343 35.6144763,16.5687624 C35.5656076,16.600794 35.5084484,16.6178574 35.4500175,16.6178574 L0.555340148,16.6178574 C0.389654723,16.6178574 0.255340148,16.4835428 0.255340148,16.3178574 C0.255340148,16.2594265 0.272403558,16.2022673 0.304435143,16.1533986 L2.11796222,13.3866073 L0.304435143,10.619816 L0.304435143,10.619816 C0.213607087,10.481245 0.252310397,10.2952803 0.390881405,10.2044523 C0.439750105,10.1724207 0.49690923,10.1553573 0.555340148,10.1553573 L0.555340148,10.1553573 Z M2.7696429,11.0785716 L2.7696429,12.0017859 L3.6928572,12.0017859 L3.6928572,11.0785716 L2.7696429,11.0785716 Z M2.7696429,14.7714288 L2.7696429,15.6946431 L3.6928572,15.6946431 L3.6928572,14.7714288 L2.7696429,14.7714288 Z M4.6160715,11.0785716 L4.6160715,12.0017859 L5.5392858,12.0017859 L5.5392858,11.0785716 L4.6160715,11.0785716 Z M4.6160715,14.7714288 L4.6160715,15.6946431 L5.5392858,15.6946431 L5.5392858,14.7714288 L4.6160715,14.7714288 Z M30.4660719,11.0785716 L30.4660719,12.0017859 L31.3892862,12.0017859 L31.3892862,11.0785716 L30.4660719,11.0785716 Z M32.3125005,11.0785716 L32.3125005,12.0017859 L33.2357148,12.0017859 L33.2357148,11.0785716 L32.3125005,11.0785716 Z M30.4660719,14.7714288 L30.4660719,15.6946431 L31.3892862,15.6946431 L31.3892862,14.7714288 L30.4660719,14.7714288 Z M32.3125005,14.7714288 L32.3125005,15.6946431 L33.2357148,15.6946431 L33.2357148,14.7714288 L32.3125005,14.7714288 Z" id="Combined-Shape" fill="url(#linearGradient-4)"></path>
                    <path d="M19.214286,0.433012702 L28.9076645,6.02948739 L28.9076645,6.02948739 C29.3717661,6.29743659 29.6576645,6.79262711 29.6576645,7.3285255 L29.6576645,18.5214749 L29.6576645,18.5214749 C29.6576645,19.0573733 29.3717661,19.5525638 28.9076645,19.820513 L19.214286,25.4169877 L19.214286,25.4169877 C18.7501844,25.6849369 18.1783876,25.6849369 17.714286,25.4169877 L8.02090748,19.820513 L8.02090748,19.820513 C7.55680586,19.5525638 7.27090748,19.0573733 7.27090748,18.5214749 L7.27090748,7.3285255 L7.27090748,7.3285255 C7.27090748,6.79262711 7.55680586,6.29743659 8.02090748,6.02948739 L17.714286,0.433012702 L17.714286,0.433012702 C18.1783876,0.165063509 18.7501844,0.165063509 19.214286,0.433012702 Z" id="Polygon" stroke="#98C900" stroke-width="0.2" fill="url(#linearGradient-5)"></path>
                    <path d="M18.964286,2.13510373 L27.3086104,6.95270169 L27.3086104,6.95270169 C27.772712,7.22065089 28.0586104,7.71584141 28.0586104,8.2517398 L28.0586104,17.5982606 L28.0586104,17.5982606 C28.0586104,18.134159 27.772712,18.6293495 27.3086104,18.8972987 L19.214286,23.5705591 L19.214286,23.5705591 C18.7501844,23.8385083 18.1783876,23.8385083 17.714286,23.5705591 L9.61996155,18.8972987 L9.61996155,18.8972987 C9.15585994,18.6293495 8.86996155,18.134159 8.86996155,17.5982606 L8.86996155,8.2517398 L8.86996155,8.2517398 C8.86996155,7.71584141 9.15585994,7.22065089 9.61996155,6.95270169 L17.964286,2.13510373 L17.964286,2.13510373 C18.2736871,1.95647094 18.6548849,1.95647094 18.964286,2.13510373 Z" id="Polygon" stroke="#80B508" stroke-width="0.2" fill="url(#linearGradient-6)"></path>
                    <g id="Shape" fill-rule="nonzero">
                        <use fill="black" fill-opacity="1" filter="url(#filter-9)" xlink:href="#path-8"></use>
                        <use fill="url(#linearGradient-7)" fill-rule="evenodd" xlink:href="#path-8"></use>
                    </g>
                </g>
                <g id="报名" transform="translate(85.000000, 0.000000)">
                    <path d="M0.555340148,10.1553573 L35.4500175,10.1553573 L35.4500175,10.1553573 C35.615703,10.1553573 35.7500175,10.2896719 35.7500175,10.4553573 C35.7500175,10.5137882 35.7329541,10.5709473 35.7009225,10.619816 L33.8873955,13.3866073 L35.7009225,16.1533986 L35.7009225,16.1533986 C35.7917506,16.2919697 35.7530473,16.4779343 35.6144763,16.5687624 C35.5656076,16.600794 35.5084484,16.6178574 35.4500175,16.6178574 L0.555340148,16.6178574 C0.389654723,16.6178574 0.255340148,16.4835428 0.255340148,16.3178574 C0.255340148,16.2594265 0.272403558,16.2022673 0.304435143,16.1533986 L2.11796222,13.3866073 L0.304435143,10.619816 L0.304435143,10.619816 C0.213607087,10.481245 0.252310397,10.2952803 0.390881405,10.2044523 C0.439750105,10.1724207 0.49690923,10.1553573 0.555340148,10.1553573 L0.555340148,10.1553573 Z M2.7696429,11.0785716 L2.7696429,12.0017859 L3.6928572,12.0017859 L3.6928572,11.0785716 L2.7696429,11.0785716 Z M2.7696429,14.7714288 L2.7696429,15.6946431 L3.6928572,15.6946431 L3.6928572,14.7714288 L2.7696429,14.7714288 Z M4.6160715,11.0785716 L4.6160715,12.0017859 L5.5392858,12.0017859 L5.5392858,11.0785716 L4.6160715,11.0785716 Z M4.6160715,14.7714288 L4.6160715,15.6946431 L5.5392858,15.6946431 L5.5392858,14.7714288 L4.6160715,14.7714288 Z M30.4660719,11.0785716 L30.4660719,12.0017859 L31.3892862,12.0017859 L31.3892862,11.0785716 L30.4660719,11.0785716 Z M32.3125005,11.0785716 L32.3125005,12.0017859 L33.2357148,12.0017859 L33.2357148,11.0785716 L32.3125005,11.0785716 Z M30.4660719,14.7714288 L30.4660719,15.6946431 L31.3892862,15.6946431 L31.3892862,14.7714288 L30.4660719,14.7714288 Z M32.3125005,14.7714288 L32.3125005,15.6946431 L33.2357148,15.6946431 L33.2357148,14.7714288 L32.3125005,14.7714288 Z" id="Combined-Shape" fill="url(#linearGradient-10)"></path>
                    <path d="M19.214286,0.433012702 L28.9076645,6.02948739 L28.9076645,6.02948739 C29.3717661,6.29743659 29.6576645,6.79262711 29.6576645,7.3285255 L29.6576645,18.5214749 L29.6576645,18.5214749 C29.6576645,19.0573733 29.3717661,19.5525638 28.9076645,19.820513 L19.214286,25.4169877 L19.214286,25.4169877 C18.7501844,25.6849369 18.1783876,25.6849369 17.714286,25.4169877 L8.02090748,19.820513 L8.02090748,19.820513 C7.55680586,19.5525638 7.27090748,19.0573733 7.27090748,18.5214749 L7.27090748,7.3285255 L7.27090748,7.3285255 C7.27090748,6.79262711 7.55680586,6.29743659 8.02090748,6.02948739 L17.714286,0.433012702 L17.714286,0.433012702 C18.1783876,0.165063509 18.7501844,0.165063509 19.214286,0.433012702 Z" id="Polygon" stroke="#00C9C8" stroke-width="0.2" fill="url(#linearGradient-11)"></path>
                    <path d="M18.964286,2.13510373 L27.3086104,6.95270169 L27.3086104,6.95270169 C27.772712,7.22065089 28.0586104,7.71584141 28.0586104,8.2517398 L28.0586104,17.5982606 L28.0586104,17.5982606 C28.0586104,18.134159 27.772712,18.6293495 27.3086104,18.8972987 L19.214286,23.5705591 L19.214286,23.5705591 C18.7501844,23.8385083 18.1783876,23.8385083 17.714286,23.5705591 L9.61996155,18.8972987 L9.61996155,18.8972987 C9.15585994,18.6293495 8.86996155,18.134159 8.86996155,17.5982606 L8.86996155,8.2517398 L8.86996155,8.2517398 C8.86996155,7.71584141 9.15585994,7.22065089 9.61996155,6.95270169 L17.964286,2.13510373 L17.964286,2.13510373 C18.2736871,1.95647094 18.6548849,1.95647094 18.964286,2.13510373 Z" id="Polygon" stroke="#1BA0D9" stroke-width="0.2" fill="url(#linearGradient-12)"></path>
                    <g id="联系" transform="translate(12.000000, 7.000000)" fill-rule="nonzero">
                        <g id="Shape">
                            <use fill="black" fill-opacity="1" filter="url(#filter-15)" xlink:href="#path-14"></use>
                            <use fill="url(#linearGradient-13)" fill-rule="evenodd" xlink:href="#path-14"></use>
                        </g>
                    </g>
                </g>
            </g>
            <g id="报名" transform="translate(173.000000, 0.000000)">
                <path d="M0.555340148,10.1553573 L35.4500175,10.1553573 L35.4500175,10.1553573 C35.615703,10.1553573 35.7500175,10.2896719 35.7500175,10.4553573 C35.7500175,10.5137882 35.7329541,10.5709473 35.7009225,10.619816 L33.8873955,13.3866073 L35.7009225,16.1533986 L35.7009225,16.1533986 C35.7917506,16.2919697 35.7530473,16.4779343 35.6144763,16.5687624 C35.5656076,16.600794 35.5084484,16.6178574 35.4500175,16.6178574 L0.555340148,16.6178574 C0.389654723,16.6178574 0.255340148,16.4835428 0.255340148,16.3178574 C0.255340148,16.2594265 0.272403558,16.2022673 0.304435143,16.1533986 L2.11796222,13.3866073 L0.304435143,10.619816 L0.304435143,10.619816 C0.213607087,10.481245 0.252310397,10.2952803 0.390881405,10.2044523 C0.439750105,10.1724207 0.49690923,10.1553573 0.555340148,10.1553573 L0.555340148,10.1553573 Z M2.7696429,11.0785716 L2.7696429,12.0017859 L3.6928572,12.0017859 L3.6928572,11.0785716 L2.7696429,11.0785716 Z M2.7696429,14.7714288 L2.7696429,15.6946431 L3.6928572,15.6946431 L3.6928572,14.7714288 L2.7696429,14.7714288 Z M4.6160715,11.0785716 L4.6160715,12.0017859 L5.5392858,12.0017859 L5.5392858,11.0785716 L4.6160715,11.0785716 Z M4.6160715,14.7714288 L4.6160715,15.6946431 L5.5392858,15.6946431 L5.5392858,14.7714288 L4.6160715,14.7714288 Z M30.4660719,11.0785716 L30.4660719,12.0017859 L31.3892862,12.0017859 L31.3892862,11.0785716 L30.4660719,11.0785716 Z M32.3125005,11.0785716 L32.3125005,12.0017859 L33.2357148,12.0017859 L33.2357148,11.0785716 L32.3125005,11.0785716 Z M30.4660719,14.7714288 L30.4660719,15.6946431 L31.3892862,15.6946431 L31.3892862,14.7714288 L30.4660719,14.7714288 Z M32.3125005,14.7714288 L32.3125005,15.6946431 L33.2357148,15.6946431 L33.2357148,14.7714288 L32.3125005,14.7714288 Z" id="Combined-Shape" fill="url(#linearGradient-16)"></path>
                <path d="M19.214286,0.433012702 L28.9076645,6.02948739 L28.9076645,6.02948739 C29.3717661,6.29743659 29.6576645,6.79262711 29.6576645,7.3285255 L29.6576645,18.5214749 L29.6576645,18.5214749 C29.6576645,19.0573733 29.3717661,19.5525638 28.9076645,19.820513 L19.214286,25.4169877 L19.214286,25.4169877 C18.7501844,25.6849369 18.1783876,25.6849369 17.714286,25.4169877 L8.02090748,19.820513 L8.02090748,19.820513 C7.55680586,19.5525638 7.27090748,19.0573733 7.27090748,18.5214749 L7.27090748,7.3285255 L7.27090748,7.3285255 C7.27090748,6.79262711 7.55680586,6.29743659 8.02090748,6.02948739 L17.714286,0.433012702 L17.714286,0.433012702 C18.1783876,0.165063509 18.7501844,0.165063509 19.214286,0.433012702 Z" id="Polygon" stroke="#FFB36B" stroke-width="0.2" fill="url(#linearGradient-17)"></path>
                <path d="M18.964286,2.13510373 L27.3086104,6.95270169 L27.3086104,6.95270169 C27.772712,7.22065089 28.0586104,7.71584141 28.0586104,8.2517398 L28.0586104,17.5982606 L28.0586104,17.5982606 C28.0586104,18.134159 27.772712,18.6293495 27.3086104,18.8972987 L19.214286,23.5705591 L19.214286,23.5705591 C18.7501844,23.8385083 18.1783876,23.8385083 17.714286,23.5705591 L9.61996155,18.8972987 L9.61996155,18.8972987 C9.15585994,18.6293495 8.86996155,18.134159 8.86996155,17.5982606 L8.86996155,8.2517398 L8.86996155,8.2517398 C8.86996155,7.71584141 9.15585994,7.22065089 9.61996155,6.95270169 L17.964286,2.13510373 L17.964286,2.13510373 C18.2736871,1.95647094 18.6548849,1.95647094 18.964286,2.13510373 Z" id="Polygon" stroke="#E6A056" stroke-width="0.2" fill="url(#linearGradient-18)"></path>
                <g id="群蜂提现处理中2" transform="translate(12.566040, 6.770630)" fill-rule="nonzero">
                    <g id="Shape">
                        <use fill="black" fill-opacity="1" filter="url(#filter-21)" xlink:href="#path-20"></use>
                        <use fill="url(#linearGradient-19)" fill-rule="evenodd" xlink:href="#path-20"></use>
                    </g>
                    <g id="Shape">
                        <use fill="black" fill-opacity="1" filter="url(#filter-23)" xlink:href="#path-22"></use>
                        <use fill="url(#linearGradient-19)" fill-rule="evenodd" xlink:href="#path-22"></use>
                    </g>
                </g>
            </g>
            <g id="报名" transform="translate(266.000000, 0.000000)">
                <path d="M0.555340148,10.1553573 L35.4500175,10.1553573 L35.4500175,10.1553573 C35.615703,10.1553573 35.7500175,10.2896719 35.7500175,10.4553573 C35.7500175,10.5137882 35.7329541,10.5709473 35.7009225,10.619816 L33.8873955,13.3866073 L35.7009225,16.1533986 L35.7009225,16.1533986 C35.7917506,16.2919697 35.7530473,16.4779343 35.6144763,16.5687624 C35.5656076,16.600794 35.5084484,16.6178574 35.4500175,16.6178574 L0.555340148,16.6178574 C0.389654723,16.6178574 0.255340148,16.4835428 0.255340148,16.3178574 C0.255340148,16.2594265 0.272403558,16.2022673 0.304435143,16.1533986 L2.11796222,13.3866073 L0.304435143,10.619816 L0.304435143,10.619816 C0.213607087,10.481245 0.252310397,10.2952803 0.390881405,10.2044523 C0.439750105,10.1724207 0.49690923,10.1553573 0.555340148,10.1553573 L0.555340148,10.1553573 Z M2.7696429,11.0785716 L2.7696429,12.0017859 L3.6928572,12.0017859 L3.6928572,11.0785716 L2.7696429,11.0785716 Z M2.7696429,14.7714288 L2.7696429,15.6946431 L3.6928572,15.6946431 L3.6928572,14.7714288 L2.7696429,14.7714288 Z M4.6160715,11.0785716 L4.6160715,12.0017859 L5.5392858,12.0017859 L5.5392858,11.0785716 L4.6160715,11.0785716 Z M4.6160715,14.7714288 L4.6160715,15.6946431 L5.5392858,15.6946431 L5.5392858,14.7714288 L4.6160715,14.7714288 Z M30.4660719,11.0785716 L30.4660719,12.0017859 L31.3892862,12.0017859 L31.3892862,11.0785716 L30.4660719,11.0785716 Z M32.3125005,11.0785716 L32.3125005,12.0017859 L33.2357148,12.0017859 L33.2357148,11.0785716 L32.3125005,11.0785716 Z M30.4660719,14.7714288 L30.4660719,15.6946431 L31.3892862,15.6946431 L31.3892862,14.7714288 L30.4660719,14.7714288 Z M32.3125005,14.7714288 L32.3125005,15.6946431 L33.2357148,15.6946431 L33.2357148,14.7714288 L32.3125005,14.7714288 Z" id="Combined-Shape" fill="url(#linearGradient-24)"></path>
                <path d="M19.214286,0.433012702 L28.9076645,6.02948739 L28.9076645,6.02948739 C29.3717661,6.29743659 29.6576645,6.79262711 29.6576645,7.3285255 L29.6576645,18.5214749 L29.6576645,18.5214749 C29.6576645,19.0573733 29.3717661,19.5525638 28.9076645,19.820513 L19.214286,25.4169877 L19.214286,25.4169877 C18.7501844,25.6849369 18.1783876,25.6849369 17.714286,25.4169877 L8.02090748,19.820513 L8.02090748,19.820513 C7.55680586,19.5525638 7.27090748,19.0573733 7.27090748,18.5214749 L7.27090748,7.3285255 L7.27090748,7.3285255 C7.27090748,6.79262711 7.55680586,6.29743659 8.02090748,6.02948739 L17.714286,0.433012702 L17.714286,0.433012702 C18.1783876,0.165063509 18.7501844,0.165063509 19.214286,0.433012702 Z" id="Polygon" stroke="#CD48F0" stroke-width="0.2" fill="url(#linearGradient-25)"></path>
                <path d="M18.964286,2.13510373 L27.3086104,6.95270169 L27.3086104,6.95270169 C27.772712,7.22065089 28.0586104,7.71584141 28.0586104,8.2517398 L28.0586104,17.5982606 L28.0586104,17.5982606 C28.0586104,18.134159 27.772712,18.6293495 27.3086104,18.8972987 L19.214286,23.5705591 L19.214286,23.5705591 C18.7501844,23.8385083 18.1783876,23.8385083 17.714286,23.5705591 L9.61996155,18.8972987 L9.61996155,18.8972987 C9.15585994,18.6293495 8.86996155,18.134159 8.86996155,17.5982606 L8.86996155,8.2517398 L8.86996155,8.2517398 C8.86996155,7.71584141 9.15585994,7.22065089 9.61996155,6.95270169 L17.964286,2.13510373 L17.964286,2.13510373 C18.2736871,1.95647094 18.6548849,1.95647094 18.964286,2.13510373 Z" id="Polygon" stroke="#AB27D1" stroke-width="0.2" fill="url(#linearGradient-26)"></path>
                <g id="课堂" transform="translate(12.000000, 7.000000)" fill-rule="nonzero">
                    <g id="Shape">
                        <use fill="black" fill-opacity="1" filter="url(#filter-29)" xlink:href="#path-28"></use>
                        <use fill="url(#linearGradient-27)" fill-rule="evenodd" xlink:href="#path-28"></use>
                    </g>
                </g>
            </g>
        </g>
    </g>
</svg>