<?xml version="1.0" encoding="UTF-8"?>
<svg width="355px" height="7px" viewBox="0 0 355 7" version="1.1" xmlns="http://www.w3.org/2000/svg" xmlns:xlink="http://www.w3.org/1999/xlink">
    <defs></defs>
    <g id="切图" stroke="none" stroke-width="1" fill="none" fill-rule="evenodd">
        <g id="已提现" transform="translate(-10.000000, -431.000000)" fill="#FFFFFF">
            <g id="Group-4" transform="translate(10.000000, 20.000000)">
                <g id="Group">
                    <path d="M349.88869,413.463014 L350,413.463014 L350,4 L5,4 L5,413.463014 L5.11131048,413.463014 C5.62688553,416.051637 7.87245007,418 10.5645161,418 C13.2565822,418 15.5021467,416.051637 16.0177218,413.463014 L16.2403427,413.463014 C16.7559178,416.051637 19.0014823,418 21.6935484,418 C24.3856144,418 26.631179,416.051637 27.146754,413.463014 L27.369375,413.463014 C27.88495,416.051637 30.1305146,418 32.8225806,418 C35.5146467,418 37.7602112,416.051637 38.2757863,413.463014 L38.4984073,413.463014 C39.0139823,416.051637 41.2595468,418 43.9516129,418 C46.643679,418 48.8892435,416.051637 49.4048185,413.463014 L49.6274395,413.463014 C50.1430146,416.051637 52.3885791,418 55.0806452,418 C57.7727112,418 60.0182758,416.051637 60.5338508,413.463014 L60.7564718,413.463014 C61.2720468,416.051637 63.5176114,418 66.2096774,418 C68.9017435,418 71.147308,416.051637 71.6628831,413.463014 L71.885504,413.463014 C72.4010791,416.051637 74.6466436,418 77.3387097,418 C80.0307757,418 82.2763403,416.051637 82.7919153,413.463014 L83.0145363,413.463014 C83.5301113,416.051637 85.7756759,418 88.4677419,418 C91.159808,418 93.4053725,416.051637 93.9209476,413.463014 L94.1435685,413.463014 C94.6591436,416.051637 96.9047081,418 99.5967742,418 C102.28884,418 104.534405,416.051637 105.04998,413.463014 L105.272601,413.463014 C105.788176,416.051637 108.03374,418 110.725806,418 C113.417873,418 115.663437,416.051637 116.179012,413.463014 L116.401633,413.463014 C116.917208,416.051637 119.162773,418 121.854839,418 C124.546905,418 126.792469,416.051637 127.308044,413.463014 L127.530665,413.463014 C128.04624,416.051637 130.291805,418 132.983871,418 C135.675937,418 137.921502,416.051637 138.437077,413.463014 L138.659698,413.463014 C139.175273,416.051637 141.420837,418 144.112903,418 C146.804969,418 149.050534,416.051637 149.566109,413.463014 L149.78873,413.463014 C150.304305,416.051637 152.549869,418 155.241935,418 C157.934002,418 160.179566,416.051637 160.695141,413.463014 L160.917762,413.463014 C161.433337,416.051637 163.678902,418 166.370968,418 C169.063034,418 171.308598,416.051637 171.824173,413.463014 L172.046794,413.463014 C172.562369,416.051637 174.807934,418 177.5,418 C180.192066,418 182.437631,416.051637 182.953206,413.463014 L183.175827,413.463014 C183.691402,416.051637 185.936966,418 188.629032,418 C191.321098,418 193.566663,416.051637 194.082238,413.463014 L194.304859,413.463014 C194.820434,416.051637 197.065998,418 199.758065,418 C202.450131,418 204.695695,416.051637 205.21127,413.463014 L205.433891,413.463014 C205.949466,416.051637 208.195031,418 210.887097,418 C213.579163,418 215.824727,416.051637 216.340302,413.463014 L216.562923,413.463014 C217.078498,416.051637 219.324063,418 222.016129,418 C224.708195,418 226.95376,416.051637 227.469335,413.463014 L227.691956,413.463014 C228.207531,416.051637 230.453095,418 233.145161,418 C235.837227,418 238.082792,416.051637 238.598367,413.463014 L238.820988,413.463014 C239.336563,416.051637 241.582127,418 244.274194,418 C246.96626,418 249.211824,416.051637 249.727399,413.463014 L249.95002,413.463014 C250.465595,416.051637 252.71116,418 255.403226,418 C258.095292,418 260.340856,416.051637 260.856431,413.463014 L261.079052,413.463014 C261.594627,416.051637 263.840192,418 266.532258,418 C269.224324,418 271.469889,416.051637 271.985464,413.463014 L272.208085,413.463014 C272.72366,416.051637 274.969224,418 277.66129,418 C280.353356,418 282.598921,416.051637 283.114496,413.463014 L283.337117,413.463014 C283.852692,416.051637 286.098257,418 288.790323,418 C291.482389,418 293.727953,416.051637 294.243528,413.463014 L294.466149,413.463014 C294.981724,416.051637 297.227289,418 299.919355,418 C302.611421,418 304.856985,416.051637 305.37256,413.463014 L305.595181,413.463014 C306.110757,416.051637 308.356321,418 311.048387,418 C313.740453,418 315.986018,416.051637 316.501593,413.463014 L316.724214,413.463014 C317.239789,416.051637 319.485353,418 322.177419,418 C324.869485,418 327.11505,416.051637 327.630625,413.463014 L327.853246,413.463014 C328.368821,416.051637 330.614386,418 333.306452,418 C335.998518,418 338.244082,416.051637 338.759657,413.463014 L338.982278,413.463014 C339.497853,416.051637 341.743418,418 344.435484,418 C347.12755,418 349.373114,416.051637 349.88869,413.463014 Z" id="Combined-Shape"></path>
                </g>
            </g>
        </g>
    </g>
</svg>