<?xml version="1.0" encoding="UTF-8"?>
<svg width="169px" height="225px" viewBox="0 0 169 225" version="1.1" xmlns="http://www.w3.org/2000/svg" xmlns:xlink="http://www.w3.org/1999/xlink">
    <!-- Generator: Sketch 44.1 (41455) - http://www.bohemiancoding.com/sketch -->
    <title>缺省图01 copy</title>
    <desc>Created with Sketch.</desc>
    <defs>
        <polygon id="path-1" points="6.1294964 20.942446 6.1294964 114.417266 18.8992806 121.568345 18.8992806 27.0719424"></polygon>
        <path d="M6.1294964,20.942446 C38.1390887,11.7482014 56.8681055,5.78896882 62.3165468,3.0647482 C62.3165468,3.0647482 66.4028777,4.08633094 66.4028777,5.10791367 C66.4028777,6.1294964 55.676259,15.8345324 18.8992806,27.5827338 C18.8992806,27.5827338 14.6426859,25.3693046 6.1294964,20.942446 Z" id="path-2"></path>
    </defs>
    <g id="切图" stroke="none" stroke-width="1" fill="none" fill-rule="evenodd">
        <g id="缺省图01-copy">
            <g id="Group" transform="translate(15.000000, 22.000000)">
                <g id="活动缺省图">
                    <path d="M7.1830036,114.417266 C2.07508993,116.119904 -0.308603118,117.482014 0.0319244604,118.503597 C0.542715827,120.035971 2.58588129,125.143885 5.13983813,124.122302 C6.84247602,123.441247 10.2477518,121.568345 15.3556655,118.503597 C21.4851619,123.270983 25.0607014,125.654676 26.0822842,125.654676 C27.1038669,125.654676 36.2981115,121.398082 53.665018,112.884892 C57.0702938,115.438849 59.9647782,117.141487 62.3484712,117.992806 C62.3484712,117.992806 65.5834832,120.376499 72.0535072,125.143885 L71.5427158,132.294964 C71.8832434,135.359712 72.9048261,136.892086 74.607464,136.892086 C77.1614209,136.892086 76.6506295,137.913669 78.1830036,137.913669 C79.2045863,137.913669 80.3964329,137.06235 81.7585432,135.359712 L76.6506295,126.165468 L76.1398381,117.992806 L67.4563849,113.395683 L83.8017086,104.71223 C94.836635,110.040305 102.498505,113.615844 106.78732,115.438849 C118.991481,120.626353 126.55002,122.877735 127.218975,123.100719 C128.751349,123.611511 133.348471,127.18705 135.902428,125.654676 C138.456385,124.122302 143.053507,121.568345 141.521133,120.035971 C140.49955,119.014388 138.456385,117.822542 135.391637,116.460432 L110.36286,105.223022 L17.3988309,100.115108 L7.1830036,114.417266 Z" id="Path-32" fill="#E3E1E4"></path>
                    <g id="书本" transform="translate(8.172662, 0.000000)">
                        <path d="M61.294964,1.5323741 C51.4196643,5.61870504 30.9880096,11.0671463 0,17.8776978 C0,17.8776978 0,51.2494005 0,117.992806 L16.8561151,111.352518 L66.4028777,72.0215827 L105.223022,113.906475 L127.18705,122.079137 L129.741007,20.942446 C110.671463,17.1966427 91.4316547,10.8968825 72.0215827,2.04316547 C72.0215827,2.04316547 71,2.04316547 70.4892086,0.510791367 C70.4892086,0.510791367 67.5947242,0.510791367 61.8057554,0.510791367 L61.294964,1.5323741 Z" id="Path-21" stroke="#CCCCCC" stroke-width="2" fill="#E7E7E7" stroke-linecap="round" stroke-linejoin="round"></path>
                        <path d="M66.4028777,5.10791367 C86.8345324,16.6858513 104.882494,23.3261391 120.546763,25.028777 C120.546763,25.028777 124.122302,24.0071942 125.143885,22.9856115 C125.654676,22.9856115 104.71223,18.3884892 96.028777,15.323741 C87.3453237,12.2589928 72.5323741,5.10791367 69.4676259,3.57553957 C69.4676259,3.23501199 68.4460432,3.74580336 66.4028777,5.10791367 Z" id="Path-22" stroke="#CCCCCC" stroke-width="1.5" fill="#F0F0F0"></path>
                        <path d="M120.546763,25.028777 L119.52518,120.035971 C121.227818,120.035971 122.930456,119.354916 124.633094,117.992806 C124.633094,117.992806 124.803357,86.323741 125.143885,22.9856115 L120.546763,25.028777 Z" id="Path-23" stroke="#CCCCCC" stroke-width="1.5" fill="#F0F0F0" stroke-linecap="round" stroke-linejoin="round"></path>
                        <g id="Path">
                            <use fill="#F0F0F0" fill-rule="evenodd" xlink:href="#path-1"></use>
                            <path stroke="#CCCCCC" stroke-width="1.4" d="M6.8294964,22.0549098 L6.8294964,114.006979 L18.1992806,120.374059 L18.1992806,27.5124062 L6.8294964,22.0549098 Z"></path>
                        </g>
                        <g id="Path">
                            <use fill="#F0F0F0" fill-rule="evenodd" xlink:href="#path-2"></use>
                            <path stroke="#CCCCCC" stroke-width="1.5" d="M8.14259686,21.1439181 C12.36972,23.3420221 12.7209642,23.5246691 16.0528491,25.2572493 C18.1888043,26.367946 18.609847,26.5868882 18.9682169,26.7732405 C35.0854553,21.6099695 47.3947591,16.4659729 56.0796815,11.6664106 C59.3438158,9.86254688 61.9049956,8.20519496 63.6898916,6.8079279 C64.4051729,6.24798549 64.959423,5.75653099 65.32523,5.36973512 C65.4138433,5.27603743 65.4883912,5.19152599 65.5479114,5.11832225 C65.4981439,5.07983359 65.437543,5.03784618 65.3668893,4.99368758 C65.065663,4.80542115 64.6282408,4.60493598 64.0963696,4.40548429 C63.6688929,4.2451805 63.2072077,4.09513283 62.745036,3.96033273 C62.6132208,3.92188664 62.4956442,3.88874641 62.3957915,3.86136431 C56.6904462,6.61557609 38.6410847,12.3625164 8.14259686,21.1439181 Z"></path>
                        </g>
                        <path d="M65.8920863,99.0935252 C96.1990408,113.395683 114.076739,120.376499 119.52518,120.035971 C119.52518,120.035971 119.695444,88.3669065 120.035971,25.028777 C108.117506,23.3261391 98.0719424,20.6019185 89.8992806,16.8561151 C81.7266187,13.1103118 73.8944844,9.1942446 66.4028777,5.10791367 L65.8920863,99.0935252 Z" id="Path-24" stroke="#CCCCCC" stroke-width="1.5" fill="#F0F0F0" stroke-linecap="round" stroke-linejoin="round"></path>
                        <path d="M18.8992806,120.546763 C39.6714628,113.055156 55.1654676,105.563549 65.381295,98.0719424 C65.7218225,98.0719424 65.8920863,66.9136691 65.8920863,4.5971223 C59.0815348,10.3860911 51.2494005,14.9832134 42.3956835,18.3884892 C33.5419664,21.793765 25.7098321,24.5179856 18.8992806,26.5611511 L18.8992806,120.546763 Z" id="Path-25" stroke="#CCCCCC" stroke-width="1.5" fill="#F0F0F0" stroke-linecap="round" stroke-linejoin="round"></path>
                        <path d="M27.5827338,42.6172282 L27.5827338,45.0779569 L27.5827338,45.0779569 C27.5827338,45.2436423 27.7170484,45.3779569 27.8827338,45.3779569 C27.9069461,45.3779569 27.9310694,45.3750257 27.9545772,45.3692274 C41.7349582,41.970226 52.3376292,37.2332413 59.7625899,31.1582734 C59.7625899,31.1582734 59.7625899,30.08945 59.7625899,27.9518033 L59.7625899,27.9518033 C59.7625899,27.8413464 59.6730469,27.7518033 59.5625899,27.7518033 C59.5238362,27.7518033 59.4859172,27.7630624 59.4534431,27.7842116 C51.7958991,32.77131 46.7910344,35.7688989 44.4388489,36.7769784 C42.0742108,37.7903948 36.5260743,39.6415738 27.7944395,42.3305156 L27.7944395,42.3305156 C27.6685966,42.3692694 27.5827338,42.4855533 27.5827338,42.6172282 Z" id="Path-26" fill="#D8D8D8"></path>
                        <path d="M27.5827338,53.6819229 L27.5827338,56.1426516 L27.5827338,56.1426516 C27.5827338,56.308337 27.7170484,56.4426516 27.8827338,56.4426516 C27.9069461,56.4426516 27.9310694,56.4397204 27.9545772,56.4339221 C41.7349582,53.0349207 52.3376292,48.297936 59.7625899,42.2229681 C59.7625899,42.2229681 59.7625899,41.1541447 59.7625899,39.016498 L59.7625899,39.016498 C59.7625899,38.9060411 59.6730469,38.816498 59.5625899,38.816498 C59.5238362,38.816498 59.4859172,38.8277571 59.4534431,38.8489063 C51.7958991,43.8360047 46.7910344,46.8335936 44.4388489,47.8416731 C42.0742108,48.8550895 36.5260743,50.7062685 27.7944395,53.3952103 L27.7944395,53.3952103 C27.6685966,53.4339641 27.5827338,53.550248 27.5827338,53.6819229 Z" id="Path-26" fill="#D8D8D8"></path>
                        <path d="M27.5827338,64.9380966 L27.5827338,67.3681786 L27.5827338,67.3681786 C27.5827338,67.533864 27.7170484,67.6681786 27.8827338,67.6681786 C27.9098674,67.6681786 27.9368755,67.6644975 27.9630194,67.6572361 C39.6606866,64.4082146 47.0255315,61.4361383 50.057554,58.7410072 C50.057554,58.7410072 50.057554,57.681476 50.057554,55.5624137 L50.057554,55.5624137 C50.057554,55.4519567 49.9680109,55.3624137 49.857554,55.3624137 C49.815115,55.3624137 49.7737762,55.3759134 49.7395166,55.4009603 C47.0698199,57.3527561 43.7705565,59.1471602 39.8417266,60.7841727 C35.8333942,62.4543112 31.8250618,63.7414028 27.8167294,64.6454477 L27.8167294,64.6454476 C27.6799115,64.6763057 27.5827338,64.7978421 27.5827338,64.9380966 Z" id="Path-26" fill="#D8D8D8"></path>
                    </g>
                    <g id="圆脸" transform="translate(41.884892, 76.618705)">
                        <ellipse id="Oval" stroke="#CCCCCC" stroke-width="1.5" fill="#D8D8D8" cx="25.5395683" cy="19.4100719" rx="20.4316547" ry="19.4100719"></ellipse>
                        <ellipse id="Oval" stroke="#CCCCCC" stroke-width="1.5" fill="#F0F0F0" cx="27.0719424" cy="19.9208633" rx="17.8776978" ry="18.8992806"></ellipse>
                        <g id="金币阴影" transform="translate(14.116048, 20.390795) scale(-1, 1) rotate(-16.000000) translate(-14.116048, -20.390795) translate(4.411012, 3.023889)" stroke="#CCCCCC">
                            <path d="M1.02158273,31.6690647 L1.70561862,33.8301591" id="Path-9" stroke-width="2"></path>
                            <path d="M4.5971223,31.1582734 L5.2148164,32.7109015" id="Path-10" stroke-width="2"></path>
                            <path d="M10.2158273,26.0503597 L12.7697842,28.0935252" id="Path-12" stroke-width="2"></path>
                            <path d="M12.7697842,23.4964029 L15.8867468,25.1435089" id="Path-13" stroke-width="2"></path>
                            <path d="M14.3021583,20.4316547 L17.9951006,21.4970618" id="Path-14" stroke-width="2"></path>
                            <path d="M15.323741,17.3669065 L18.8398597,18.5510368" id="Path-15" stroke-width="2"></path>
                            <path d="M15.8345324,10.2158273 L18.3884892,9.70503597" id="Path-17" stroke-width="2"></path>
                            <path d="M14.5000786,7.74185709 L17.8776978,6.64028777" id="Path-18" stroke-width="2"></path>
                            <path d="M13.7310319,4.86445666 L16.3453237,3.57553957" id="Path-19" stroke-width="2"></path>
                            <path d="M12.680399,2.96906459 L14.22558,1.28663425" id="Path-20" stroke-width="2"></path>
                            <path d="M7.15107914,29.6258993 L8.68345324,31.6690647" id="Path-11"></path>
                            <path d="M15.8345324,13.7913669 L18.8992806,13.7913669" id="Path-16"></path>
                        </g>
                        <ellipse id="Oval" stroke="#E7E7E7" stroke-width="0.4" fill="#F0F0F0" cx="27.5827338" cy="19.4100719" rx="15.323741" ry="16.3453237"></ellipse>
                    </g>
                    <g id="手脚" transform="translate(35.755396, 90.920863)" stroke="#CCCCCC" fill="#CCCCCC">
                        <path d="M11.5472297,11.2374101 C10.8661746,11.9184652 10.0148556,11.9184652 8.9932729,11.2374101 C7.4608988,10.2158273 5.41773333,4.08633094 4.3961506,4.08633094 C3.37456786,4.08633094 -1.22255444,4.08633094 0.309819662,5.61870504 C1.84219376,7.15107914 2.8637765,7.15107914 2.8637765,7.15107914 C2.8637765,7.15107914 4.90694196,10.7266187 6.43931606,12.2589928 C7.97169017,13.7913669 7.97169017,14.3021583 12.5688125,13.7913669 C12.90934,13.7913669 12.5688125,12.940048 11.5472297,11.2374101 Z" id="Path-27"></path>
                        <path d="M34.7338129,25.028777 C38.8201439,27.7529976 40.8633094,29.2853717 40.8633094,29.6258993 C40.8633094,30.1366906 38.3093525,41.8848921 38.8201439,42.9064748 C39.3309353,43.9280576 40.352518,45.4604317 41.3741007,44.4388489 C42.3956835,43.4172662 48.0143885,38.8201439 46.9928058,37.2877698 C46.6522782,36.6067146 45.6306954,36.6067146 43.9280576,37.2877698 C42.9064748,36.9472422 42.5659472,36.0959233 42.9064748,34.7338129 C43.4172662,32.6906475 43.4172662,28.0935252 42.9064748,27.5827338 C42.5659472,27.2422062 41.2038369,26.2206235 38.8201439,24.5179856 L34.7338129,25.028777 Z" id="Path-29"></path>
                        <path d="M53.1223022,7.37809752 C54.1438849,7.37809752 54.9952038,7.03756994 55.676259,6.35651479 C56.6978417,5.33493205 59.2517986,0.227018385 60.2733813,0.227018385 C61.294964,0.227018385 64.3597122,-0.283772982 64.8705036,0.227018385 C65.381295,0.737809752 64.8705036,2.27018385 62.3165468,2.78097522 C61.8057554,2.78097522 60.4397794,4.82414069 59.7625899,5.84572342 C59.0854004,6.86730616 56.6978417,9.93205436 54.6546763,9.93205436 C53.2925659,9.93205436 52.441247,9.93205436 52.1007194,9.93205436 L53.1223022,7.37809752 Z" id="Path-28"></path>
                        <path d="M25.5395683,24.5179856 C33.3717026,29.6258993 37.4580336,32.5203837 37.7985612,33.2014388 C38.3093525,34.2230216 41.8848921,42.9064748 43.4172662,43.4172662 C43.4172662,43.4172662 44.4388489,45.4604317 44.9496403,45.4604317 C45.4604317,45.4604317 47.5035971,44.4388489 49.0359712,41.8848921 C50.5683453,39.3309353 49.5467626,37.7985612 49.0359712,37.7985612 C48.5251799,37.7985612 48.0143885,37.7985612 46.4820144,39.3309353 C44.9496403,40.8633094 42.9064748,36.2661871 42.9064748,35.2446043 C42.9064748,34.2230216 39.8417266,30.647482 39.3309353,30.1366906 C38.9904077,29.7961631 36.6067146,28.0935252 32.1798561,25.028777 L25.5395683,24.5179856 Z" id="Path-30"></path>
                    </g>
                    <g id="五官" transform="translate(61.294964, 88.877698)" fill="#CCCCCC">
                        <ellipse id="Oval-3" transform="translate(1.883770, 2.036889) rotate(-13.000000) translate(-1.883770, -2.036889) " cx="1.88376985" cy="2.0368886" rx="1.5323741" ry="1.7366907"></ellipse>
                        <ellipse id="Oval-3-Copy" transform="translate(16.185928, 2.036889) rotate(-13.000000) translate(-16.185928, -2.036889) " cx="16.1859281" cy="2.0368886" rx="1.5323741" ry="1.7366907"></ellipse>
                        <path d="M5.10791367,16.3453237 C8.17266187,17.3669065 10.7266187,17.5371703 12.7697842,16.8561151 C13.7913669,16.3453237 14.3021583,17.3669065 13.7913669,17.8776978 C13.2805755,18.3884892 9.70503597,18.8992806 6.64028777,17.8776978 C5.95923261,17.5371703 5.44844125,17.0263789 5.10791367,16.3453237 Z" id="Path-31"></path>
                    </g>
                    <polygon id="Star" stroke="#CCCCCC" fill="#F0F0F0" stroke-linecap="round" stroke-linejoin="round" transform="translate(40.133314, 83.039789) rotate(-45.000000) translate(-40.133314, -83.039789) " points="40.535676 84.9898625 35.5727913 87.5600498 38.1429787 82.5971651 36.475134 78.5366231 40.535676 80.2044678 44.6938365 78.5195277 42.9283734 82.5971651 44.3706324 86.4321215"></polygon>
                </g>
                <text id="暂无新活动" font-family="PingFangSC-Medium, PingFang SC" font-size="18" font-weight="400" letter-spacing="-0.186666697" fill="#C0C0C0">
                    <tspan x="24.9666667" y="184">暂无新活动</tspan>
                </text>
            </g>
        </g>
    </g>
</svg>