<?xml version="1.0" encoding="UTF-8"?>
<svg width="110px" height="80px" viewBox="0 0 110 80" version="1.1" xmlns="http://www.w3.org/2000/svg" xmlns:xlink="http://www.w3.org/1999/xlink">
    <defs>
        <linearGradient x1="20.3107217%" y1="-19.0977717%" x2="100%" y2="100%" id="linearGradient-1">
            <stop stop-color="#FFAE08" offset="0%"></stop>
            <stop stop-color="#FF738C" offset="100%"></stop>
        </linearGradient>
    </defs>
    <g id="切图" stroke="none" stroke-width="1" fill="none" fill-rule="evenodd">
        <g id="邀请奖励">
            <g id="Group" transform="translate(18.000000, 12.000000)">
                <g id="icon_最贵-+-Path" fill="url(#linearGradient-1)">
                    <path d="M1.1327622,12.0353132 C1.67571864,11.3589841 2.87126306,11.0284495 4.74601292,11.0284495 L16.2752708,11.0284495 L16.2752708,59.329412 L11.3251276,59.329412 C9.99894322,59.329412 8.69866249,59.3195322 7.40908993,59.2894035 C6.1088092,59.269546 5.23165508,59.2492973 4.75111214,59.2492973 C3.12734194,59.3096523 1.98360481,59.0439726 1.32071658,58.4480517 C0.662621556,57.8622063 0.323222807,56.7354149 0.323222807,55.0923284 L0.32322275,40.2977172 C0.32322275,39.6515167 0.437953417,39.1605569 0.641919029,38.8502711 C0.845476716,38.5297142 1.28410473,38.3042386 1.94699295,38.1838218 C2.19236356,38.1838218 2.51105984,38.0936316 2.94448673,37.9186312 C3.35680322,37.7332618 3.77982787,37.4478224 4.19775341,37.0669103 C4.61527102,36.6862918 4.98098134,36.1957233 5.27856717,35.5693803 C5.576153,34.9583951 5.73269658,34.2121244 5.73269658,33.3206886 C5.73269658,31.9683238 5.36219307,30.9167562 4.6100699,30.1503346 C3.85835466,29.3890975 3.05401627,28.938244 2.20827289,28.8331851 C1.55537898,28.7181485 1.06973687,28.5175191 0.772151047,28.2573173 C0.469466052,27.9819533 0.318123583,27.531002 0.318123583,26.8852906 L0.318123583,15.4407293 C0.318123583,13.8534002 0.600208004,12.7212288 1.1327622,12.0353132 Z M67.8948867,27.30343 C67.5084738,27.8627303 67.3049161,28.4166753 67.2631032,29.0086424 C67.2424007,29.584758 67.3937432,30.1659076 67.7124394,30.7525195 C68.0570393,31.3231728 68.5374803,31.7398097 69.2106688,31.9976105 C69.8010473,32.2662288 70.2603778,32.6501989 70.5579636,33.1543402 C70.8659517,33.6810807 71.0280024,34.2237797 71.0591071,34.8053577 C71.0906198,35.3865072 70.9758892,35.9404522 70.7408188,36.445022 C70.5057484,36.9605165 70.1400381,37.3554111 69.660005,37.6018589 C68.1613677,38.386293 67.3729387,39.3184243 67.3259246,40.409606 C67.252599,41.501109 67.8270681,42.3671568 69.0281195,43.0253146 C69.571076,43.2830082 70.009704,43.6780101 70.3331935,44.2263856 C70.6673911,44.7749754 70.8451471,45.3506626 70.8817589,45.9702627 C70.9128637,46.5681206 70.798133,47.1274209 70.5526604,47.5990024 C70.3175901,48.1035722 69.920877,48.4214587 69.3882208,48.6298843 C68.6624092,48.8219228 68.1142516,49.1670138 67.7071362,49.6883991 C67.3310237,50.1925404 67.127466,50.7463783 67.0960553,51.3167104 C67.0542423,51.9145682 67.2055848,52.4847931 67.5449836,53.0609088 C67.8740821,53.6474136 68.4014351,54.1298128 69.1165385,54.5193522 C69.6076877,54.7770458 69.9415794,55.1828652 70.1558453,55.7205303 C70.3698052,56.2795092 70.4430289,56.8007873 70.3909157,57.3161746 C70.3175901,57.8316691 70.1558453,58.3031435 69.878962,58.7089629 C69.6128888,59.1364173 69.2367763,59.3394877 68.746035,59.3394877 L21.5959177,59.3394875 L21.5959177,11.0385252 L69.2891956,11.0385252 C69.7696366,11.0385252 70.1560494,11.236026 70.4325248,11.66905 C70.6990059,12.0861153 70.8400481,12.5467722 70.881861,13.0677289 C70.9129658,13.5885786 70.7982351,14.0986108 70.5527625,14.6085357 C70.3176921,15.1185679 69.920979,15.4804743 69.3883228,15.6670505 C68.8453664,15.864123 68.4067383,16.1879002 68.0725407,16.6377396 C67.7383431,17.081581 67.5502868,17.5916131 67.4825702,18.1291712 C67.4303549,18.6826877 67.5554879,19.2039659 67.8478726,19.7249226 C68.1561666,20.2457723 68.6625112,20.6298494 69.3883228,20.8817595 C69.920979,21.1398815 70.3699073,21.5235303 70.6938047,22.0443799 C71.0172941,22.5652296 71.2160586,23.0865077 71.2367611,23.6292067 C71.2682738,24.1939692 71.142733,24.698539 70.881861,25.1922913 C70.61538,25.6637657 70.1767519,26.0093922 69.5660789,26.2010024 C68.8505675,26.3930409 68.2921097,26.7716557 67.8948867,27.30343 Z" id="icon_最贵"></path>
                    <path d="M81.2828832,26.1989993 C80.8132524,26.3239157 80.4578423,26.5696402 80.2438824,26.9601386 C80.050625,27.3307795 79.9251861,27.761482 79.9251861,28.2223132 C79.9251861,28.7030018 80.0455258,29.1538553 80.2438824,29.5895466 C80.4578423,30.0404001 80.8131504,30.3509794 81.2828832,30.5210888 C81.7633242,30.7064581 82.149737,31.0571437 82.4162181,31.5779387 C82.6926935,32.113798 82.8440359,32.6647215 82.8651464,33.2608381 C82.8962512,33.8465857 82.8129312,34.412867 82.6404783,34.9337598 C82.4576231,35.4595436 82.19155,35.8450532 81.8365478,36.0853975 C80.6354963,36.7915618 80.0403247,37.5829276 80.0403247,38.4643858 C80.0403247,39.3458439 80.6302952,40.2373776 81.8365478,41.1039671 C82.0819184,41.2893365 82.2958783,41.6148823 82.5098383,42.0703333 C82.7138039,42.5514132 82.8181323,43.0172332 82.8181323,43.4979219 C82.8181323,43.9687307 82.7086027,44.3695002 82.4628242,44.7198923 C82.2174536,45.0806534 81.799936,45.2559472 81.1995632,45.2559472 L76.3330458,45.2559472 C75.9884459,45.2559472 75.7844803,45.2257208 75.7637778,45.1558771 C75.7322651,45.0955221 75.77418,45.000343 75.8837096,44.8601665 C76.0040493,44.7050236 76.1501907,44.5445006 76.3330458,44.3592291 C76.5154931,44.1842287 76.6617364,43.9786105 76.7923764,43.7432551 C77.0899622,42.9220542 77.0899622,42.2158898 76.7923764,41.6298487 C76.4843883,41.0336344 75.9884459,40.5431637 75.2519261,40.1323187 C74.771893,39.8969632 74.4165849,39.5263223 74.2233275,39.0154072 C74.0093676,38.5247408 73.9257417,38.0089347 73.9572544,37.4777708 C73.9779569,36.9420094 74.0771862,36.4811782 74.2652425,36.070431 C74.4480976,35.6496084 74.7249809,35.3543869 75.0695809,35.1789952 C75.5604241,35.0036035 75.9153242,34.6780578 76.1503946,34.2122377 C76.3957652,33.7514066 76.515697,33.2458716 76.515697,32.7147077 C76.515697,32.1839351 76.4113686,31.6978663 76.2496239,31.2573817 C76.0667687,30.8167994 75.8006956,30.5061223 75.424583,30.3357194 C74.9545443,30.0902884 74.5788396,29.7499718 74.3019563,29.2688919 C74.0302742,28.8183319 73.9000421,28.292548 73.9000421,27.7015182 C73.9000421,27.1054016 74.0095716,26.5396093 74.2549422,25.9785124 C74.5003128,25.4176111 74.8764255,24.9617688 75.4193819,24.6113767 C75.7954945,24.3759234 76.0929783,24.0553665 76.3280487,23.6446193 C76.5838215,23.2238944 76.6933511,22.7932897 76.7455663,22.3224809 C76.777079,21.846781 76.6619404,21.3959275 76.468683,20.9553452 C76.254723,20.5093827 75.8787124,20.1487195 75.335756,19.8533024 C74.7457855,19.5628741 74.2967552,19.1268893 74.0302742,18.5762592 C73.764201,18.0153579 73.6231588,17.4342079 73.6231588,16.8533513 C73.6231588,16.2572347 73.764201,15.7063111 74.0302742,15.1705496 C74.2967552,14.6497547 74.6728678,14.2290298 75.1529008,13.9283304 C76.1710971,13.4075355 76.7455663,12.6811224 76.8240931,11.77472 C76.9181212,10.8634266 76.8447956,10.0165968 76.5994249,9.26543523 C76.4061675,8.66970994 76.0564685,8.14353489 75.5290134,7.67282393 C74.9808558,7.19702629 74.2864549,6.96665963 73.4507059,6.96665963 L30.1748131,6.96665969 L30.1748131,0 L80.9382833,0 C81.3562089,0 81.7008087,0.150154055 81.9983946,0.440582351 C82.3063826,0.736292959 82.5099403,1.08668505 82.5987673,1.50242105 C82.6927955,1.91326606 82.6616907,2.33888192 82.5047392,2.77946428 C82.363697,3.21544907 82.0769214,3.59606762 81.6485936,3.89138696 C81.2828833,4.18719536 80.9645949,4.55783625 80.6981138,5.0335361 C80.4216385,5.50434491 80.2909985,5.98503359 80.2387833,6.49086205 C80.2176729,6.99678835 80.3012988,7.48745464 80.4738537,7.99338094 C80.6460006,8.48932954 80.9749972,8.85997043 81.4606393,9.09532597 C82.1342357,9.44581591 82.625079,9.93178684 82.9485684,10.542772 C83.282766,11.1587461 83.4553209,11.7747202 83.4553209,12.3857054 C83.4553209,13.0120484 83.282868,13.5828295 82.9541774,14.1086133 C82.6250789,14.6443747 82.1705416,15.0302756 81.5650697,15.2557512 C80.9017735,15.5010844 80.4110323,15.831619 80.1185456,16.2722014 C79.8105575,16.718066 79.6592151,17.2037435 79.6174021,17.7245385 C79.5858894,18.2557024 79.701028,18.7715085 79.962002,19.2671636 C80.2388853,19.7730899 80.6775133,20.2090747 81.2777841,20.5594668 C81.8781569,20.8998813 82.3274931,21.3706901 82.5935662,21.9668066 C82.8600473,22.5479567 82.9696788,23.1337043 82.9484664,23.7298208 C82.9173616,24.3155684 82.7660191,24.8566121 82.4995381,25.3625384 C82.2230626,25.8532047 81.8310408,26.1386442 81.2828832,26.1989993 L81.2828832,26.1989993 L81.2828832,26.1989993 L81.2828832,26.1989993 Z M7.80070384,7.06174093 L7.80070384,5.99990223 L7.80070384,5.90971197 L7.80070384,5.81991299 L7.80070384,4.76296533 C7.80070384,3.59606768 8.27553578,2.49901369 9.1998059,1.5024211 C10.1239741,0.505926306 11.1370713,0 12.217885,0 L24.66611,0 L24.66611,7.06174093 L7.80070384,7.06174093 L7.80070384,7.06174093 L7.80070384,7.06174093 L7.80070384,7.06174093 Z" id="Path"></path>
                </g>
                <text id="¥" font-family="PingFangSC-Medium, PingFang SC" font-size="32" font-weight="400" fill="#FFFFFF">
                    <tspan x="36.6382979" y="45.4">¥</tspan>
                </text>
            </g>
        </g>
    </g>
</svg>