<?xml version="1.0" encoding="UTF-8"?>
<svg width="110px" height="80px" viewBox="0 0 110 80" version="1.1" xmlns="http://www.w3.org/2000/svg" xmlns:xlink="http://www.w3.org/1999/xlink">
    <!-- Generator: Sketch 45.2 (43514) - http://www.bohemiancoding.com/sketch -->
    <title>佣金奖励</title>
    <desc>Created with Sketch.</desc>
    <defs>
        <linearGradient x1="6.95949802%" y1="0%" x2="84.8958928%" y2="88.9881602%" id="linearGradient-1">
            <stop stop-color="#FFAB0E" offset="0%"></stop>
            <stop stop-color="#FF7587" offset="100%"></stop>
        </linearGradient>
        <path d="M61.1626016,31.2579431 C65.6001464,27.3749286 71.4117481,25.0216426 77.7733333,25.0216426 C91.7056366,25.0216426 103,36.3089366 103,50.2325194 C103,64.1561022 91.7056366,75.4433962 77.7733333,75.4433962 C69.8913479,75.4433962 62.8536499,71.8308347 58.2276277,66.1721189 C57.8745281,66.2401698 57.5098865,66.2758047 57.1369219,66.2758047 L22.7297447,66.2758047 C19.5652941,66.2758047 17,63.7105106 17,60.5460599 C17,57.3816093 19.5652941,54.8163152 22.7297447,54.8163152 L22.7297447,54.8163152 L52.9626228,54.8163152 C52.892947,54.437231 52.8317559,54.0551801 52.7792536,53.6703663 L22.7297447,53.6703663 C19.5652941,53.6703663 17,51.1050722 17,47.9406215 C17,44.7761709 19.5652941,42.2108768 22.7297447,42.2108768 L22.7297447,42.2108768 L53.850478,42.2108768 C53.9800979,41.8246354 54.1188211,41.4425676 54.2663929,41.0649279 L22.7297447,41.0649279 C19.5652941,41.0649279 17,38.4996338 17,35.3351831 C17,32.1707325 19.5652941,29.6054384 22.7297447,29.6054384 L22.7297447,29.6054384 L57.1369219,29.6054384 L57.1369219,29.6054384 C58.7060341,29.6054384 60.1278297,30.2361757 61.1626016,31.2579431 Z M22.7297447,17 L57.1369219,17 L57.1369219,17 C60.3013726,17 62.8666667,19.5652941 62.8666667,22.7297447 L62.8666667,22.7297447 C62.8666667,25.8941954 60.3013726,28.4594895 57.1369219,28.4594895 L22.7297447,28.4594895 C19.5652941,28.4594895 17,25.8941954 17,22.7297447 L17,22.7297447 L17,22.7297447 C17,19.5652941 19.5652941,17 22.7297447,17 L22.7297447,17 Z M23.6500925,19.2918979 L23.6500925,19.2918979 C23.1437804,19.2918979 22.7333333,19.702345 22.7333333,20.2086571 C22.7333333,20.7149692 23.1437804,21.1254162 23.6500925,21.1254162 L32.1365742,21.1254162 C32.6428863,21.1254162 33.0533333,20.7149692 33.0533333,20.2086571 C33.0533333,19.702345 32.6428863,19.2918979 32.1365742,19.2918979 L32.1365742,19.2918979 L23.6500925,19.2918979 Z M23.6500925,31.8973363 C23.1437804,31.8973363 22.7333333,32.3077834 22.7333333,32.8140955 C22.7333333,33.3204076 23.1437804,33.7308546 23.6500925,33.7308546 L32.1365742,33.7308546 C32.6428863,33.7308546 33.0533333,33.3204076 33.0533333,32.8140955 C33.0533333,32.3077834 32.6428863,31.8973363 32.1365742,31.8973363 L23.6500925,31.8973363 Z M23.6500925,44.5027747 C23.1437804,44.5027747 22.7333333,44.9132218 22.7333333,45.4195339 C22.7333333,45.925846 23.1437804,46.336293 23.6500925,46.336293 L32.1365742,46.336293 C32.6428863,46.336293 33.0533333,45.925846 33.0533333,45.4195339 C33.0533333,44.9132218 32.6428863,44.5027747 32.1365742,44.5027747 L23.6500925,44.5027747 Z M23.6500925,57.1082131 L23.6500925,57.1082131 C23.1437804,57.1082131 22.7333333,57.5186602 22.7333333,58.0249723 C22.7333333,58.5312844 23.1437804,58.9417314 23.6500925,58.9417314 L32.1365742,58.9417314 C32.6428863,58.9417314 33.0533333,58.5312844 33.0533333,58.0249723 C33.0533333,57.5186602 32.6428863,57.1082131 32.1365742,57.1082131 L23.6500925,57.1082131 Z" id="path-2"></path>
        <filter x="-2.3%" y="-3.4%" width="104.7%" height="106.8%" filterUnits="objectBoundingBox" id="filter-3">
            <feGaussianBlur stdDeviation="2" in="SourceAlpha" result="shadowBlurInner1"></feGaussianBlur>
            <feOffset dx="0" dy="0" in="shadowBlurInner1" result="shadowOffsetInner1"></feOffset>
            <feComposite in="shadowOffsetInner1" in2="SourceAlpha" operator="arithmetic" k2="-1" k3="1" result="shadowInnerInner1"></feComposite>
            <feColorMatrix values="0 0 0 0 0.964705882   0 0 0 0 0.650980392   0 0 0 0 0.137254902  0 0 0 1 0" type="matrix" in="shadowInnerInner1"></feColorMatrix>
        </filter>
    </defs>
    <g id="切图" stroke="none" stroke-width="1" fill="none" fill-rule="evenodd">
        <g id="佣金奖励">
            <g id="Combined-Shape">
                <use fill="url(#linearGradient-1)" fill-rule="evenodd" xlink:href="#path-2"></use>
                <use fill="black" fill-opacity="1" filter="url(#filter-3)" xlink:href="#path-2"></use>
            </g>
            <text id="¥" font-family="PingFangSC-Medium, PingFang SC" font-size="31" font-weight="400" fill="#FFFFFF">
                <tspan x="69" y="62">¥</tspan>
            </text>
        </g>
    </g>
</svg>