<?xml version="1.0" encoding="UTF-8"?>
<svg width="110px" height="80px" viewBox="0 0 110 80" version="1.1" xmlns="http://www.w3.org/2000/svg" xmlns:xlink="http://www.w3.org/1999/xlink">
    <defs>
        <linearGradient x1="10.2991946%" y1="9.16270648%" x2="89.2056979%" y2="93.1728894%" id="linearGradient-1">
            <stop stop-color="#FFB200" offset="0%"></stop>
            <stop stop-color="#FF738D" offset="100%"></stop>
        </linearGradient>
    </defs>
    <g id="切图" stroke="none" stroke-width="1" fill="none" fill-rule="evenodd">
        <g id="活动奖励" fill-rule="nonzero" fill="url(#linearGradient-1)">
            <g id="活动-管理" transform="translate(27.000000, 13.000000)">
                <path d="M2.47462035,51.1967859 L2.47462035,55.104924 C2.47462035,55.9594565 3.16873325,56.6522997 4.02514764,56.6522997 L26.4272084,56.6522997 L26.4272084,27.4261312 L2.47462035,27.4261312 L2.47462035,51.1967859 Z M49.2195707,56.6522291 L52.8655906,56.6522291 C53.722005,56.6522291 54.4160471,55.9594565 54.4160471,55.1048534 L54.4160471,54.5695355 C54.4615906,54.3679709 54.4864839,54.157796 54.4864839,53.9409869 L54.4864839,27.4260606 L30.5361588,27.4260606 L30.5361588,56.6519468 L49.2069826,56.6519468 C49.2110844,56.6519468 49.2153275,56.6522291 49.2195707,56.6522291 L49.2195707,56.6522291 Z M5.24937469,11.8525096 L1.6032134,11.8525096 C0.746869727,11.8525096 0.0526861042,12.5452822 0.0526861042,13.3998147 L0.0526861042,25.3150662 L26.2486414,25.3150662 L26.2486414,12.2639668 C27.2129032,12.1705949 28.0665596,12.0573913 28.7621576,11.9640194 C28.7825248,11.9640194 28.8027506,11.9451051 28.805438,11.9423526 L28.8061452,11.9430584 L28.8965955,11.9430584 L28.8965955,11.9182157 L28.7843635,11.9182157 L28.7831613,11.9173688 L28.8975856,11.9173688 L28.8975856,11.9414351 C29.4348424,12.0317722 30.0644591,12.1053123 30.7157866,12.1705949 L30.7157866,25.3136546 L56.910469,25.3136546 L56.910469,17.6366951 C56.9333821,17.5306902 56.9458288,17.420733 56.9458288,17.3079528 L56.9458288,13.3998147 C56.9458288,12.5452822 56.2517159,11.8525096 55.3953722,11.8525096 L51.7492816,11.8525096 C51.6721266,11.8525096 51.5962444,11.8582968 51.5220596,11.8691655 L42.2517804,11.8691655 C45.3722829,11.174699 47.8213734,9.735869 48.2234851,7.09492041 C48.6953263,4.08147243 45.0376377,-0.48626766 40.612005,0.0929484047 C35.3160968,0.813033882 31.4336613,5.38084455 28.6943375,8.92586988 C25.9785633,5.44859737 22.4328945,1.39013267 17.3581973,0.211162966 C12.4423362,-0.926166982 9.07530521,4.05804125 9.1658263,7.1417122 C9.25380149,9.75915904 11.6591166,11.1766046 14.8651191,11.8701535 L5.48416377,11.8701535 C5.40645814,11.8583756 5.32797144,11.8524775 5.24937469,11.8525096 Z M39.5145782,1.08710649 C43.0610955,-1.49523848 46.3603772,5.49105702 44.676897,8.8469037 C43.3756563,11.3942587 39.2679789,11.6370614 37.0450496,11.7773404 C35.2259293,11.9148542 33.3838958,11.8500855 31.56817,11.6035604 C33.6778772,7.61810695 36.1235732,3.57022458 39.5145782,1.08710649 L39.5145782,1.08710649 Z M12.7125558,8.7180362 C11.8169628,7.27754286 12.4209082,5.31838411 12.9827047,3.84506914 C14.0150695,1.23606299 15.4496166,-0.348469225 17.8987072,1.12839968 C21.3097965,3.19114517 23.8230298,7.55600409 25.8673921,11.4639734 C21.5323511,12.1540638 15.0686501,12.4276123 12.7125558,8.7180362 Z" id="Shape"></path>
            </g>
        </g>
    </g>
</svg>