<?xml version="1.0" encoding="UTF-8"?>
<svg width="110px" height="80px" viewBox="0 0 110 80" version="1.1" xmlns="http://www.w3.org/2000/svg" xmlns:xlink="http://www.w3.org/1999/xlink">
    <defs>
        <linearGradient x1="6.95949802%" y1="0%" x2="84.8958928%" y2="88.9881602%" id="linearGradient-1">
            <stop stop-color="#FFAB0E" offset="0%"></stop>
            <stop stop-color="#FF7587" offset="100%"></stop>
        </linearGradient>
        <path d="M44.1626016,14.2579431 C48.6001464,10.3749286 54.4117481,8.02164262 60.7733333,8.02164262 C74.7056366,8.02164262 86,19.3089366 86,33.2325194 C86,47.1561022 74.7056366,58.4433962 60.7733333,58.4433962 C52.8913479,58.4433962 45.8536499,54.8308347 41.2276277,49.1721189 C40.8745281,49.2401698 40.5098865,49.2758047 40.1369219,49.2758047 L5.72974473,49.2758047 C2.56529409,49.2758047 3.87533434e-16,46.7105106 0,43.5460599 C-3.87533434e-16,40.3816093 2.56529409,37.8163152 5.72974473,37.8163152 L5.72974473,37.8163152 L35.9626228,37.8163152 C35.892947,37.437231 35.8317559,37.0551801 35.7792536,36.6703663 L5.72974473,36.6703663 C2.56529409,36.6703663 3.87533434e-16,34.1050722 0,30.9406215 C-3.87533434e-16,27.7761709 2.56529409,25.2108768 5.72974473,25.2108768 L5.72974473,25.2108768 L36.850478,25.2108768 C36.9800979,24.8246354 37.1188211,24.4425676 37.2663929,24.0649279 L5.72974473,24.0649279 C2.56529409,24.0649279 3.87533434e-16,21.4996338 0,18.3351831 C-3.87533434e-16,15.1707325 2.56529409,12.6054384 5.72974473,12.6054384 L5.72974473,12.6054384 L40.1369219,12.6054384 L40.1369219,12.6054384 C41.7060341,12.6054384 43.1278297,13.2361757 44.1626016,14.2579431 Z M5.72974473,0 L40.1369219,0 L40.1369219,-1.0658141e-14 C43.3013726,-5.61824766e-15 45.8666667,2.56529409 45.8666667,5.72974473 L45.8666667,5.72974473 C45.8666667,8.89419536 43.3013726,11.4594895 40.1369219,11.4594895 L5.72974473,11.4594895 C2.56529409,11.4594895 3.87533434e-16,8.89419536 0,5.72974473 L0,5.72974473 L0,5.72974473 C-3.87533434e-16,2.56529409 2.56529409,5.81300151e-16 5.72974473,0 L5.72974473,0 Z M6.6500925,2.29189789 L6.6500925,2.29189789 C6.14378039,2.29189789 5.73333333,2.70234495 5.73333333,3.20865706 C5.73333333,3.71496917 6.14378039,4.12541623 6.6500925,4.12541623 L15.1365742,4.12541623 C15.6428863,4.12541623 16.0533333,3.71496917 16.0533333,3.20865706 C16.0533333,2.70234495 15.6428863,2.29189789 15.1365742,2.29189789 L15.1365742,2.29189789 L6.6500925,2.29189789 Z M6.6500925,14.8973363 C6.14378039,14.8973363 5.73333333,15.3077834 5.73333333,15.8140955 C5.73333333,16.3204076 6.14378039,16.7308546 6.6500925,16.7308546 L15.1365742,16.7308546 C15.6428863,16.7308546 16.0533333,16.3204076 16.0533333,15.8140955 C16.0533333,15.3077834 15.6428863,14.8973363 15.1365742,14.8973363 L6.6500925,14.8973363 Z M6.6500925,27.5027747 C6.14378039,27.5027747 5.73333333,27.9132218 5.73333333,28.4195339 C5.73333333,28.925846 6.14378039,29.336293 6.6500925,29.336293 L15.1365742,29.336293 C15.6428863,29.336293 16.0533333,28.925846 16.0533333,28.4195339 C16.0533333,27.9132218 15.6428863,27.5027747 15.1365742,27.5027747 L6.6500925,27.5027747 Z M6.6500925,40.1082131 L6.6500925,40.1082131 C6.14378039,40.1082131 5.73333333,40.5186602 5.73333333,41.0249723 C5.73333333,41.5312844 6.14378039,41.9417314 6.6500925,41.9417314 L15.1365742,41.9417314 C15.6428863,41.9417314 16.0533333,41.5312844 16.0533333,41.0249723 C16.0533333,40.5186602 15.6428863,40.1082131 15.1365742,40.1082131 L6.6500925,40.1082131 Z" id="path-2"></path>
        <filter x="-2.3%" y="-3.4%" width="104.7%" height="106.8%" filterUnits="objectBoundingBox" id="filter-3">
            <feGaussianBlur stdDeviation="2" in="SourceAlpha" result="shadowBlurInner1"></feGaussianBlur>
            <feOffset dx="0" dy="0" in="shadowBlurInner1" result="shadowOffsetInner1"></feOffset>
            <feComposite in="shadowOffsetInner1" in2="SourceAlpha" operator="arithmetic" k2="-1" k3="1" result="shadowInnerInner1"></feComposite>
            <feColorMatrix values="0 0 0 0 0.964705882   0 0 0 0 0.650980392   0 0 0 0 0.137254902  0 0 0 1 0" type="matrix" in="shadowInnerInner1"></feColorMatrix>
        </filter>
    </defs>
    <g id="切图" stroke="none" stroke-width="1" fill="none" fill-rule="evenodd">
        <g id="佣金奖励">
            <g id="Group-8" transform="translate(17.000000, 17.000000)">
                <g id="Combined-Shape">
                    <use fill="url(#linearGradient-1)" fill-rule="evenodd" xlink:href="#path-2"></use>
                    <use fill="black" fill-opacity="1" filter="url(#filter-3)" xlink:href="#path-2"></use>
                    <path stroke="#FFB800" stroke-width="0.4" d="M44.2943057,14.4084557 L44.15438,14.5308958 L44.0220773,14.4002559 C42.9937421,13.3848442 41.6113661,12.8054384 40.1369219,12.8054384 L5.72974473,12.8054384 C2.67575104,12.8054384 0.2,15.2811894 0.2,18.3351831 C0.2,21.3891768 2.67575104,23.8649279 5.72974473,23.8649279 L37.5592758,23.8649279 L37.452675,24.137722 C37.3059999,24.5130671 37.1684223,24.8920906 37.0400857,25.2745078 L36.9943212,25.4108768 L5.72974473,25.4108768 C2.67575104,25.4108768 0.2,27.8866278 0.2,30.9406215 C0.2,33.9946152 2.67575104,36.4703663 5.72974473,36.4703663 L35.7792536,36.4703663 L35.9538194,36.4703663 L35.9774178,36.6433296 C36.0293799,37.0241847 36.0900424,37.4032006 36.1593278,37.7801607 L36.2027331,38.0163152 L5.72974473,38.0163152 C2.67575104,38.0163152 0.2,40.4920662 0.2,43.5460599 C0.2,46.6000536 2.67575104,49.0758047 5.72974473,49.0758047 L40.1369219,49.0758047 C40.493367,49.0758047 40.8453851,49.0421059 41.1897793,48.9757328 L41.3824706,49.0455343 C46.1074378,54.8252831 53.1600781,58.2433962 60.7733333,58.2433962 C74.5952077,58.2433962 85.8,47.0456172 85.8,33.2325194 C85.8,19.4194216 74.5952077,8.22164262 60.7733333,8.22164262 C54.626376,8.22164262 48.8247725,10.444131 44.2943057,14.4084557 Z M5.72974473,0.2 C2.67575104,0.2 0.2,2.67575104 0.2,5.72974473 C0.2,8.78373841 2.67575104,11.2594895 5.72974473,11.2594895 L40.1369219,11.2594895 C43.1909156,11.2594895 45.6666667,8.78373841 45.6666667,5.72974473 C45.6666667,2.67575104 43.1909156,0.2 40.1369219,0.2 L5.72974473,0.2 Z M6.6500925,2.09189789 L15.1365742,2.09189789 C15.7533432,2.09189789 16.2533333,2.591888 16.2533333,3.20865706 C16.2533333,3.82542612 15.7533432,4.32541623 15.1365742,4.32541623 L6.6500925,4.32541623 C6.03332344,4.32541623 5.53333333,3.82542612 5.53333333,3.20865706 C5.53333333,2.591888 6.03332344,2.09189789 6.6500925,2.09189789 Z M6.6500925,14.6973363 L15.1365742,14.6973363 C15.7533432,14.6973363 16.2533333,15.1973264 16.2533333,15.8140955 C16.2533333,16.4308645 15.7533432,16.9308546 15.1365742,16.9308546 L6.6500925,16.9308546 C6.03332344,16.9308546 5.53333333,16.4308645 5.53333333,15.8140955 C5.53333333,15.1973264 6.03332344,14.6973363 6.6500925,14.6973363 Z M6.6500925,27.3027747 L15.1365742,27.3027747 C15.7533432,27.3027747 16.2533333,27.8027648 16.2533333,28.4195339 C16.2533333,29.0363029 15.7533432,29.536293 15.1365742,29.536293 L6.6500925,29.536293 C6.03332344,29.536293 5.53333333,29.0363029 5.53333333,28.4195339 C5.53333333,27.8027648 6.03332344,27.3027747 6.6500925,27.3027747 Z M6.6500925,39.9082131 L15.1365742,39.9082131 C15.7533432,39.9082131 16.2533333,40.4082032 16.2533333,41.0249723 C16.2533333,41.6417413 15.7533432,42.1417314 15.1365742,42.1417314 L6.6500925,42.1417314 C6.03332344,42.1417314 5.53333333,41.6417413 5.53333333,41.0249723 C5.53333333,40.4082032 6.03332344,39.9082131 6.6500925,39.9082131 Z"></path>
                </g>
                <text id="¥" font-family="PingFangSC-Medium, PingFang SC" font-size="31" font-weight="400" fill="#FFFFFF">
                    <tspan x="52" y="45">¥</tspan>
                </text>
            </g>
        </g>
    </g>
</svg>