<?xml version="1.0" encoding="UTF-8"?>
<svg width="62px" height="40px" viewBox="0 0 62 40" version="1.1" xmlns="http://www.w3.org/2000/svg" xmlns:xlink="http://www.w3.org/1999/xlink">
    <defs>
        <path d="M3.10765816,0 L21.9590085,0 L21.9590085,-3.55271368e-15 C23.6753207,-2.34360365e-15 25.0666667,1.39134595 25.0666667,3.10765816 L25.0666667,3.10765816 C25.0666667,4.82397037 23.6753207,6.21531632 21.9590085,6.21531632 L3.10765816,6.21531632 L3.10765816,6.21531632 C1.39134595,6.21531632 2.10187625e-16,4.82397037 0,3.10765816 C-2.10187625e-16,1.39134595 1.39134595,-1.28807772e-16 3.10765816,-4.4408921e-16 L3.10765816,0 Z M3.63055865,1.24306326 C3.35594869,1.24306326 3.13333333,1.46567862 3.13333333,1.74028858 C3.13333333,2.01489853 3.35594869,2.23751389 3.63055865,2.23751389 L3.63055865,2.23751389 L8.27610802,2.23751389 C8.55071798,2.23751389 8.77333333,2.01489853 8.77333333,1.74028858 C8.77333333,1.46567862 8.55071798,1.24306326 8.27610802,1.24306326 L8.27610802,1.24306326 L3.63055865,1.24306326 Z" id="path-1"></path>
        <path d="M3.10765816,6.83684795 L21.9590085,6.83684795 L21.9590085,6.83684795 C23.6753207,6.83684795 25.0666667,8.2281939 25.0666667,9.9445061 L25.0666667,9.9445061 L25.0666667,9.9445061 C25.0666667,11.6608183 23.6753207,13.0521643 21.9590085,13.0521643 L3.10765816,13.0521643 L3.10765816,13.0521643 C1.39134595,13.0521643 2.10187625e-16,11.6608183 0,9.9445061 L0,9.9445061 L0,9.9445061 C-2.10187625e-16,8.2281939 1.39134595,6.83684795 3.10765816,6.83684795 Z M3.63055865,8.07991121 C3.35594869,8.07991121 3.13333333,8.30252656 3.13333333,8.57713652 C3.13333333,8.85174648 3.35594869,9.07436184 3.63055865,9.07436184 L3.63055865,9.07436184 L8.27610802,9.07436184 C8.55071798,9.07436184 8.77333333,8.85174648 8.77333333,8.57713652 L8.77333333,8.57713652 C8.77333333,8.30252656 8.55071798,8.07991121 8.27610802,8.07991121 L8.27610802,8.07991121 L3.63055865,8.07991121 Z" id="path-2"></path>
        <path d="M3.10765816,13.6736959 L21.9590085,13.6736959 L21.9590085,13.6736959 C23.6753207,13.6736959 25.0666667,15.0650418 25.0666667,16.7813541 L25.0666667,16.7813541 C25.0666667,18.4976663 23.6753207,19.8890122 21.9590085,19.8890122 L3.10765816,19.8890122 C1.39134595,19.8890122 2.10187625e-16,18.4976663 0,16.7813541 L0,16.7813541 L0,16.7813541 C-2.10187625e-16,15.0650418 1.39134595,13.6736959 3.10765816,13.6736959 L3.10765816,13.6736959 Z M3.63055865,14.9167592 C3.35594869,14.9167592 3.13333333,15.1393745 3.13333333,15.4139845 C3.13333333,15.6885944 3.35594869,15.9112098 3.63055865,15.9112098 L3.63055865,15.9112098 L8.27610802,15.9112098 C8.55071798,15.9112098 8.77333333,15.6885944 8.77333333,15.4139845 L8.77333333,15.4139845 C8.77333333,15.1393745 8.55071798,14.9167592 8.27610802,14.9167592 L8.27610802,14.9167592 L3.63055865,14.9167592 Z" id="path-3"></path>
        <path d="M3.10765816,20.5105438 L21.9590085,20.5105438 L21.9590085,20.5105438 C23.6753207,20.5105438 25.0666667,21.9018898 25.0666667,23.618202 L25.0666667,23.618202 C25.0666667,25.3345142 23.6753207,26.7258602 21.9590085,26.7258602 L3.10765816,26.7258602 C1.39134595,26.7258602 2.10187625e-16,25.3345142 0,23.618202 L0,23.618202 L0,23.618202 C-2.10187625e-16,21.9018898 1.39134595,20.5105438 3.10765816,20.5105438 L3.10765816,20.5105438 Z M3.63055865,21.7536071 L3.63055865,21.7536071 C3.35594869,21.7536071 3.13333333,21.9762225 3.13333333,22.2508324 C3.13333333,22.5254424 3.35594869,22.7480577 3.63055865,22.7480577 L3.63055865,22.7480577 L8.27610802,22.7480577 C8.55071798,22.7480577 8.77333333,22.5254424 8.77333333,22.2508324 L8.77333333,22.2508324 C8.77333333,21.9762225 8.55071798,21.7536071 8.27610802,21.7536071 L8.27610802,21.7536071 L3.63055865,21.7536071 Z" id="path-4"></path>
        <ellipse id="path-5" cx="33.2133333" cy="18.0244173" rx="13.7866667" ry="13.6736959"></ellipse>
        <filter x="-18.1%" y="-18.3%" width="136.3%" height="136.6%" filterUnits="objectBoundingBox" id="filter-6">
            <feGaussianBlur stdDeviation="4.5" in="SourceAlpha" result="shadowBlurInner1"></feGaussianBlur>
            <feOffset dx="0" dy="0" in="shadowBlurInner1" result="shadowOffsetInner1"></feOffset>
            <feComposite in="shadowOffsetInner1" in2="SourceAlpha" operator="arithmetic" k2="-1" k3="1" result="shadowInnerInner1"></feComposite>
            <feColorMatrix values="0 0 0 0 0.923203656   0 0 0 0 0.433965421   0 0 0 0 0.106002314  0 0 0 0.327841938 0" type="matrix" in="shadowInnerInner1"></feColorMatrix>
        </filter>
    </defs>
    <g id="切图" stroke="none" stroke-width="1" fill="none" fill-rule="evenodd">
        <g id="佣金奖励">
            <g id="Group-8" transform="translate(7.000000, 4.000000)">
                <g id="Combined-Shape">
                    <use fill="#FFC50F" fill-rule="evenodd" xlink:href="#path-1"></use>
                    <path stroke="#FFB800" stroke-width="0.4" d="M3.10765816,0.2 C1.5018029,0.2 0.2,1.5018029 0.2,3.10765816 C0.2,4.71351342 1.5018029,6.01531632 3.10765816,6.01531632 L21.9590085,6.01531632 C23.5648638,6.01531632 24.8666667,4.71351342 24.8666667,3.10765816 C24.8666667,1.5018029 23.5648638,0.2 21.9590085,0.2 L3.10765816,0.2 Z M3.63055865,1.04306326 L8.27610802,1.04306326 C8.66117493,1.04306326 8.97333333,1.35522167 8.97333333,1.74028858 C8.97333333,2.12535548 8.66117493,2.43751389 8.27610802,2.43751389 L3.63055865,2.43751389 C3.24549174,2.43751389 2.93333333,2.12535548 2.93333333,1.74028858 C2.93333333,1.35522167 3.24549174,1.04306326 3.63055865,1.04306326 Z"></path>
                </g>
                <g id="Combined-Shape">
                    <use fill="#FFC50F" fill-rule="evenodd" xlink:href="#path-2"></use>
                    <path stroke="#FFB800" stroke-width="0.4" d="M3.10765816,7.03684795 C1.5018029,7.03684795 0.2,8.33865085 0.2,9.9445061 C0.2,11.5503614 1.5018029,12.8521643 3.10765816,12.8521643 L21.9590085,12.8521643 C23.5648638,12.8521643 24.8666667,11.5503614 24.8666667,9.9445061 C24.8666667,8.33865085 23.5648638,7.03684795 21.9590085,7.03684795 L3.10765816,7.03684795 Z M3.63055865,7.87991121 L8.27610802,7.87991121 C8.66117493,7.87991121 8.97333333,8.19206962 8.97333333,8.57713652 C8.97333333,8.96220343 8.66117493,9.27436184 8.27610802,9.27436184 L3.63055865,9.27436184 C3.24549174,9.27436184 2.93333333,8.96220343 2.93333333,8.57713652 C2.93333333,8.19206962 3.24549174,7.87991121 3.63055865,7.87991121 Z"></path>
                </g>
                <g id="Combined-Shape">
                    <use fill="#FFC50F" fill-rule="evenodd" xlink:href="#path-3"></use>
                    <path stroke="#FFB800" stroke-width="0.4" d="M3.10765816,13.8736959 C1.5018029,13.8736959 0.2,15.1754988 0.2,16.7813541 C0.2,18.3872093 1.5018029,19.6890122 3.10765816,19.6890122 L21.9590085,19.6890122 C23.5648638,19.6890122 24.8666667,18.3872093 24.8666667,16.7813541 C24.8666667,15.1754988 23.5648638,13.8736959 21.9590085,13.8736959 L3.10765816,13.8736959 Z M3.63055865,14.7167592 L8.27610802,14.7167592 C8.66117493,14.7167592 8.97333333,15.0289176 8.97333333,15.4139845 C8.97333333,15.7990514 8.66117493,16.1112098 8.27610802,16.1112098 L3.63055865,16.1112098 C3.24549174,16.1112098 2.93333333,15.7990514 2.93333333,15.4139845 C2.93333333,15.0289176 3.24549174,14.7167592 3.63055865,14.7167592 Z"></path>
                </g>
                <g id="Combined-Shape">
                    <use fill="#FFC50F" fill-rule="evenodd" xlink:href="#path-4"></use>
                    <path stroke="#FFB800" stroke-width="0.4" d="M3.10765816,20.7105438 C1.5018029,20.7105438 0.2,22.0123467 0.2,23.618202 C0.2,25.2240573 1.5018029,26.5258602 3.10765816,26.5258602 L21.9590085,26.5258602 C23.5648638,26.5258602 24.8666667,25.2240573 24.8666667,23.618202 C24.8666667,22.0123467 23.5648638,20.7105438 21.9590085,20.7105438 L3.10765816,20.7105438 Z M3.63055865,21.5536071 L8.27610802,21.5536071 C8.66117493,21.5536071 8.97333333,21.8657655 8.97333333,22.2508324 C8.97333333,22.6358993 8.66117493,22.9480577 8.27610802,22.9480577 L3.63055865,22.9480577 C3.24549174,22.9480577 2.93333333,22.6358993 2.93333333,22.2508324 C2.93333333,21.8657655 3.24549174,21.5536071 3.63055865,21.5536071 Z"></path>
                </g>
                <g id="Oval-11">
                    <use fill="#FFC50F" fill-rule="evenodd" xlink:href="#path-5"></use>
                    <use fill="black" fill-opacity="1" filter="url(#filter-6)" xlink:href="#path-5"></use>
                    <use stroke="#F7AD34" stroke-width="1" xlink:href="#path-5"></use>
                </g>
                <text id="¥" font-family="PingFangSC-Medium, PingFang SC" font-size="17" font-weight="400" fill="#FFFFFF">
                    <tspan x="28.4186047" y="24.5084746">¥</tspan>
                </text>
            </g>
        </g>
    </g>
</svg>