<?xml version="1.0" encoding="UTF-8"?>
<svg width="84px" height="84px" viewBox="0 0 84 84" version="1.1" xmlns="http://www.w3.org/2000/svg" xmlns:xlink="http://www.w3.org/1999/xlink">
    <defs>
        <linearGradient x1="50%" y1="2.44140625%" x2="50%" y2="100%" id="linearGradient-1">
            <stop stop-color="#F79B5D" offset="0%"></stop>
            <stop stop-color="#F7AF76" offset="100%"></stop>
        </linearGradient>
        <rect id="path-2" x="0" y="0" width="82" height="82" rx="41"></rect>
        <filter x="-243.1%" y="-217.5%" width="586.1%" height="534.9%" filterUnits="objectBoundingBox" id="filter-4">
            <feGaussianBlur stdDeviation="45.4547991" in="SourceGraphic"></feGaussianBlur>
        </filter>
        <filter x="-243.1%" y="-217.5%" width="586.1%" height="534.9%" filterUnits="objectBoundingBox" id="filter-5">
            <feGaussianBlur stdDeviation="45.4547991" in="SourceGraphic"></feGaussianBlur>
        </filter>
        <filter x="-243.1%" y="-217.5%" width="586.1%" height="534.9%" filterUnits="objectBoundingBox" id="filter-6">
            <feGaussianBlur stdDeviation="45.4547991" in="SourceGraphic"></feGaussianBlur>
        </filter>
    </defs>
    <g id="切图" stroke="none" stroke-width="1" fill="none" fill-rule="evenodd">
        <g id="优享">
            <g id="头像" transform="translate(1.000000, 1.000000)">
                <g id="底圆">
                    <mask id="mask-3" fill="white">
                        <use xlink:href="#path-2"></use>
                    </mask>
                    <use id="Mask" fill="url(#linearGradient-1)" xlink:href="#path-2"></use>
                    <ellipse id="Oval" fill="#FF6F6F" filter="url(#filter-4)" mask="url(#mask-3)" cx="-28.0526316" cy="8.61344538" rx="28.0526316" ry="31.3529412"></ellipse>
                    <ellipse id="Oval-Copy" fill="#FFDC6F" filter="url(#filter-5)" mask="url(#mask-3)" cx="110.052632" cy="71.3193277" rx="28.0526316" ry="31.3529412"></ellipse>
                    <ellipse id="Oval-Copy-2" fill-opacity="0.2" fill="#D0011B" filter="url(#filter-6)" mask="url(#mask-3)" cx="23.7368421" cy="-0.344537815" rx="28.0526316" ry="31.3529412"></ellipse>
                </g>
                <g id="优享-1" transform="translate(10.000000, 22.000000)" fill-rule="nonzero" fill="#FFFFFF">
                    <path d="M24.798375,9.37372695 C25.08975,9.60464894 25.80375,9.72273404 26.940375,9.72273404 L30.190125,9.72273404 L29.035125,6.09883333 C28.76475,5.2355 28.4655,4.6713156 28.142625,4.40103191 C27.80925,4.10975532 27.237,3.96542908 26.42325,3.96542908 L22.861125,3.96542908 L23.968875,7.71003901 C24.231375,8.59698936 24.507,9.1506773 24.798375,9.37372695 Z" id="Shape"></path>
                    <path d="M26.70675,30.2879113 L26.70675,17.3195426 L21.154875,17.3195426 L21.154875,32.6863511 C21.154875,33.4788333 21.2230988,34.0561383 21.359625,34.418266 C21.63,35.1530177 22.110375,35.6725922 22.798125,35.9769894 C23.1315,36.1160674 23.67225,36.1869184 24.423,36.1869184 L28.798875,36.1869184 C29.48925,36.1869184 29.988,35.9979823 30.300375,35.6253582 C30.62325,35.252734 30.786,34.6570603 30.786,33.840961 L30.786,31.1617411 L27.454875,31.1617411 C26.956125,31.1617411 26.70675,30.8704645 26.70675,30.2879113 Z" id="Shape"></path>
                    <path d="M30.457875,10.8064929 L19.57725,10.8064929 L20.28075,3.33301773 L16.324875,3.33301773 C15.710625,3.33301773 15.26175,3.47996809 14.980875,3.77124468 C14.6895,4.05202482 14.511,4.52961348 14.450625,5.20663475 L13.8705,10.8064929 L9.87,10.8064929 L9.87,16.3040106 L13.30875,16.3040106 L11.2455,36.6408901 L15.26175,36.6408901 C15.981,36.6408901 16.492875,36.478195 16.79475,36.1501809 C17.117625,35.7880532 17.3145,35.2002518 17.388,34.3841525 L19.075875,16.3040106 L30.457875,16.3040106 L30.457875,10.8064929 L30.457875,10.8064929 Z" id="Shape"></path>
                    <path d="M7.55475,3.33301773 C6.52309875,3.33301773 5.830125,3.50358511 5.47575,3.84209574 C5.194875,4.10975532 4.8405,4.90223759 4.412625,6.22216667 L0.70751625,16.9936014 L0.70420875,16.9924206 L0.69208125,17.0384738 L0.64546125,17.173983 L0.65548875,17.1774468 L0.32389875,18.4369688 L0.23480625,24.9037291 L0.65856,25.276327 L3.194625,21.7775702 L3.194625,36.9741787 L8.743875,36.9741787 L8.743875,11.5780085 L11.088,3.33304397 L7.55475,3.33304397 L7.55475,3.33301773 Z M5.43375,4.18585461 C5.473125,4.0861383 5.746125,3.71351418 6.055875,3.71876241 C6.4155,3.71876241 6.64125,3.81060638 6.454875,4.50337234 L2.254875,16.8760674 L1.220625,16.4929468 L1.2075,16.5401809 L1.183875,16.5296844 L5.43375,4.18585461 Z M0.88517625,17.3357858 L3.85809375,18.4012284 L3.4719825,19.3641993 L2.659755,18.4010709 L1.57665375,18.6665 L1.90378125,17.7012199 L1.655115,17.6171695 L1.3256775,18.5956752 L0.84942375,18.0482064 L0.68583375,18.093 L0.88517625,17.3357858 Z M0.5271525,22.6377809 L0.58177875,18.4882177 L0.60860625,18.3862972 L0.759675,18.3449674 L1.25089125,18.9098603 L0.74437125,22.5886837 C0.66388875,22.6020404 0.59086125,22.6197007 0.5271525,22.6377809 Z M1.012305,22.5653816 L1.50751125,18.9537617 L2.56412625,18.6947355 L3.35283375,19.6302057 L1.6154775,22.7404362 C1.4282625,22.6104638 1.2139575,22.5653816 1.012305,22.5653816 Z M1.9189275,23.0902567 C1.886115,23.0294035 1.8504675,22.9748745 1.81211625,22.9265645 L3.593835,19.7349603 L4.4484825,19.6004482 L1.9189275,23.0902567 Z M4.66549125,19.3010631 L4.6654125,19.3005383 L3.71970375,19.4493255 L4.10529,18.4898184 L5.01671625,18.8164681 L4.66549125,19.3010631 Z M5.614875,18.117273 L4.557,17.7262801 L9.18225,3.49833688 L10.6785,3.49833688 L5.614875,18.117273 Z" id="Shape"></path>
                    <path d="M54.093375,26.4383369 L58.4535,23.9506773 L58.4535,20.7308901 L36.834,20.7308901 L36.834,24.7930177 L50.40525,24.7930177 L47.074125,26.4383369 L33.161625,26.4383369 L33.161625,30.741883 L46.82475,30.741883 L46.82475,31.4608901 C46.82475,31.9489752 46.62,32.2428759 46.21575,32.3347199 L40.165125,32.3347199 L40.165125,34.6465638 C40.165125,35.8116702 40.679625,36.3968475 41.713875,36.3968475 L49.434,36.3968475 C50.38425,36.3968475 51.072,36.1633014 51.49725,35.6962092 C51.935625,35.229117 52.156125,34.489117 52.156125,33.4735851 L52.156125,30.741883 L62.94225,30.741883 L62.94225,26.4383369 L54.093375,26.4383369 L54.093375,26.4383369 Z" id="Shape"></path>
                    <path d="M62.81625,5.52152837 L52.5,5.52155461 L52.5,8.62060638 L52.3349662,8.62060638 C52.5024675,8.3272305 52.4961675,7.96714965 52.4864025,7.58864752 C52.4835937,7.4805078 52.4804962,7.36365603 52.4810212,7.23832837 L52.4938312,3.19939787 L50.8396087,2.95645745 L52.076745,2.01392837 L50.0600625,0.152959574 L48.1877025,1.3550922 L46.5168375,0.177048936 L44.26149,1.89552837 L45.3935212,2.90339787 L43.5557587,3.08789929 L43.55085,5.52152837 L33.287625,5.52150213 L33.287625,9.82767234 L62.81625,9.82767234 L62.81625,5.52152837 Z M47.6260575,8.09901135 L44.5955212,8.12422908 L44.599695,6.04391064 L47.6260575,6.04391064 L47.6260575,8.09901135 L47.6260575,8.09901135 Z M47.6260575,5.2594844 L44.60127,5.2594844 L44.6037112,4.03764468 L47.6260575,3.7343234 L47.6260575,5.2594844 Z M45.91083,1.95858582 L46.540935,1.47834681 L48.160035,2.6204922 L49.9442212,1.47475177 L50.4453862,1.93704184 L48.21978,3.63298014 L51.4407862,4.1055305 L51.43719,5.2594844 L48.4107487,5.2594844 L48.4107487,3.67937447 L47.8436437,3.67937447 L45.91083,1.95858582 Z M51.4323075,8.06043688 C51.3935887,8.06634113 51.3259162,8.07195674 51.2156925,8.06914894 L48.4107487,8.09250355 L48.4107487,6.04391064 L51.4347487,6.04391064 L51.4310475,7.23525816 C51.4305225,7.37134468 51.4338562,7.49819433 51.4369537,7.61580709 C51.44076,7.7649617 51.4456425,7.9597234 51.4323075,8.06043688 Z" id="Shape"></path>
                    <path d="M36.1305,10.6490461 L36.1305,19.733727 L56.5635,19.733727 C57.374625,19.733727 57.90225,19.6864929 58.141125,19.5946489 C58.695,19.3715993 59.086125,18.9753582 59.3145,18.4033014 C59.451,18.0884078 59.516625,17.4113865 59.516625,16.3722376 L59.516625,10.6490461 L43.26,10.6490461 C42.54075,10.6490461 42.049875,10.8484787 41.79,11.2447199 C41.635125,11.478266 41.456625,11.9112447 41.25975,12.5410319 L41.25975,10.6490461 L36.1305,10.6490461 Z M54.39,14.4645071 L54.39,15.4459518 C54.39,15.7608454 54.24825,15.9182922 53.967375,15.9182922 L41.25975,15.9182922 L41.25975,14.4645333 L54.39,14.4645333 L54.39,14.4645071 Z" id="Shape"></path>
                </g>
            </g>
        </g>
    </g>
</svg>