<?xml version="1.0" encoding="UTF-8"?>
<svg width="22px" height="22px" viewBox="0 0 22 22" version="1.1" xmlns="http://www.w3.org/2000/svg" xmlns:xlink="http://www.w3.org/1999/xlink">
    <defs></defs>
    <g id="切图" stroke="none" stroke-width="1" fill="none" fill-rule="evenodd">
        <g id="验证码" fill-rule="nonzero" fill="#F87B4C">
            <g id="验证码图标" transform="translate(3.000000, 3.000000)">
                <path d="M4.77649963,16.9905127 C3.72418995,16.7305547 2.75651982,16.2023495 1.96710258,15.4569961 C0.750588252,14.3051546 0.0598016029,12.7516171 0.0211888357,11.0830657 C-0.0174239316,9.41707027 0.600380344,7.83371431 1.76173357,6.62819982 C2.95957799,5.38349546 4.57537379,4.6980987 6.31167537,4.6980987 C7.22692525,4.6980987 8.14726692,4.90001173 8.97425904,5.28168699 L9.08585418,5.33323019 L11.211678,3.12411423 L11.1000828,3.00356278 C10.6618002,2.52736957 10.6705555,1.79035253 11.1200257,1.32478801 C11.3550033,1.07985335 11.6795721,0.942098945 12.0183029,0.943538727 C12.3106567,0.943538727 12.5940999,1.04619915 12.8177145,1.23235103 L12.9327042,1.32904778 L14.1530373,0.22874957 C14.1644939,0.218952102 14.4084756,0 14.8234568,0 C15.2257085,0 15.6440842,0.204042912 16.066703,0.607868968 C17.4945268,1.97142087 16.8521122,2.71645439 16.8241073,2.7475507 L11.834574,7.93722668 L11.893554,8.04798067 C13.1456854,10.4183966 12.7320928,13.3290059 10.8696792,15.2533791 C10.1939504,15.9579396 9.36270407,16.4931634 8.44301526,16.8158622 L8.42519398,16.0525117 C9.14885495,15.7623882 9.80297964,15.3214526 10.3443758,14.75882 C11.9436233,13.0975103 12.3399345,10.6771098 11.3538239,8.59280506 L10.9146567,7.85245729 L15.8163565,2.76033 C15.8609097,2.71602841 16.0955565,2.46299816 16.0874945,2.09026841 C16.0807055,1.78526899 15.9147979,1.4887891 15.5935906,1.20764438 C15.3169365,0.965689524 15.0407067,0.842582213 14.7746605,0.842582213 C14.3864112,0.842582213 14.1564319,1.0985943 14.1144246,1.1501375 L12.9556172,2.35437406 L12.3743041,1.80358599 C12.2780789,1.7120596 12.1504341,1.66125951 12.0178786,1.6617357 C11.8795957,1.66125902 11.7469384,1.71666426 11.6497977,1.81546731 C11.552657,1.91427036 11.499205,2.04815907 11.5014859,2.18696516 C11.5048804,2.3241297 11.5621631,2.45192276 11.6618774,2.54734158 L12.2406446,3.09514781 L9.1915089,6.26356363 L8.46423106,5.84738425 C7.78080847,5.56286166 7.04813847,5.41665167 6.30828084,5.41714763 C4.77352942,5.41714763 3.34570566,6.02331269 2.2861883,7.12318492 C1.25891897,8.19025693 0.711126853,9.5912948 0.745496459,11.0673046 C0.779441748,12.5445923 1.3913056,13.9196456 2.4677956,14.9394342 C3.1166255,15.5523738 3.901897,16.0008746 4.75825404,16.2476091 L4.77649963,16.9905127 Z M6.31464558,13.6981376 C5.5967027,13.6981376 4.91440237,13.4263644 4.39546375,12.9343611 C3.86168834,12.4333742 3.55201058,11.7372513 3.53664792,11.003834 C3.51855542,10.2715025 3.79562451,9.56283308 4.30508442,9.03837685 C4.83094278,8.48932317 5.5580673,8.18076787 6.31676716,8.18471923 C7.03428573,8.18471923 7.71658605,8.45521454 8.23594899,8.94764378 C8.76972094,9.44867297 9.07952408,10.1447337 9.09518914,10.8781709 C9.11322389,11.6109518 8.83601556,12.3200468 8.32632832,12.844906 C7.80025373,13.3935927 7.07323263,13.7019502 6.31464558,13.6981376 L6.31464558,13.6981376 Z M6.31591853,8.90163828 C5.75555803,8.89891506 5.21854616,9.12675294 4.82996346,9.53208402 C4.45279904,9.92052838 4.2477838,10.4453634 4.26137986,10.9876469 C4.27297245,11.5303858 4.50213595,12.0454877 4.89700541,12.4163733 C5.28028384,12.7797814 5.78787124,12.9816593 6.3150699,12.9803666 C6.87534756,12.9831013 7.41231261,12.7554372 7.80102496,12.3503469 C8.17820346,11.9617079 8.38334092,11.436798 8.37003288,10.894358 C8.35780414,10.3516748 8.12857045,9.83675882 7.73398301,9.46563163 C7.35070458,9.1022235 6.84311719,8.90034557 6.31591853,8.90163828 L6.31591853,8.90163828 Z" id="Shape"></path>
            </g>
        </g>
    </g>
</svg>