<?xml version="1.0" encoding="UTF-8"?>
<svg width="170px" height="42px" viewBox="0 0 170 42" version="1.1" xmlns="http://www.w3.org/2000/svg" xmlns:xlink="http://www.w3.org/1999/xlink">
    <defs>
        <linearGradient x1="0%" y1="50%" x2="100%" y2="50%" id="linearGradient-1">
            <stop stop-color="#F07A4F" offset="0%"></stop>
            <stop stop-color="#F96278" offset="100%"></stop>
        </linearGradient>
        <rect id="path-2" x="0" y="0" width="335" height="46" rx="23"></rect>
        <filter x="-3.0%" y="-17.4%" width="106.0%" height="143.5%" filterUnits="objectBoundingBox" id="filter-3">
            <feOffset dx="0" dy="2" in="SourceAlpha" result="shadowOffsetOuter1"></feOffset>
            <feGaussianBlur stdDeviation="3" in="shadowOffsetOuter1" result="shadowBlurOuter1"></feGaussianBlur>
            <feColorMatrix values="0 0 0 0 0.995057398   0 0 0 0 0.621164895   0 0 0 0 0.649529154  0 0 0 1 0" type="matrix" in="shadowBlurOuter1"></feColorMatrix>
        </filter>
    </defs>
    <g id="补充标注" stroke="none" stroke-width="1" fill="none" fill-rule="evenodd">
        <g id="绑定失败标注" transform="translate(-102.000000, -365.000000)">
            <rect id="背景" fill="#F0F0F0" x="0" y="0" width="375" height="667"></rect>
            <g id="绑定" transform="translate(20.000000, 364.000000)">
                <g id="Rectangle-3">
                    <use fill="black" fill-opacity="1" filter="url(#filter-3)" xlink:href="#path-2"></use>
                    <use fill="url(#linearGradient-1)" fill-rule="evenodd" xlink:href="#path-2"></use>
                </g>
                <text font-family="PingFangSC-Medium, PingFang SC" font-size="20" font-weight="400" letter-spacing="-0.207407445" fill="#FFFFFF">
                    <tspan x="147.707407" y="29">绑定</tspan>
                </text>
            </g>
            <rect id="蒙版" fill-opacity="0.5" fill="#000000" x="0" y="0" width="375" height="667"></rect>
            <g id="弹窗背景" transform="translate(20.000000, 140.000000)" fill="#FFFFFF">
                <rect id="Rectangle-12" opacity="0.5" x="5" y="5" width="325" height="284" rx="6"></rect>
                <rect id="Rectangle-12" opacity="0.200000003" x="10" y="0" width="315" height="314" rx="6"></rect>
                <rect id="Mask" x="0" y="10" width="335" height="332" rx="6"></rect>
            </g>
            <g id="小提示" transform="translate(103.000000, 365.000000)">
                <text id="是不是验证码输错了？" font-family="PingFangSC-Regular, PingFang SC" font-size="14" font-weight="normal" letter-spacing="-0.145185173" fill="#999999">
                    <tspan x="32.2259259" y="33">是不是验证码输错了？</tspan>
                </text>
                <g id="Group" opacity="0.800000012">
                    <path d="M19.3809145,30.3960232 C19.3809145,30.3960232 19.1784451,32.6976114 17.1548939,34.1178097 C12.4501844,37.5453198 14.4737356,36.0762236 10.0217353,39.4553015 C5.56973497,36.0762236 7.5430463,37.4963796 2.88857661,34.1178097 C0.865025445,32.6487559 0.662556054,30.3960232 0.662556054,30.3960232 L0.662556054,20.2597632 C8.3523525,19.6227781 10.0216945,15.9503551 10.0216945,15.9503551 C10.0216945,15.9503551 11.6910772,19.6227781 19.3808329,20.2103996 L19.3808329,30.3960232 L19.3809145,30.3960232 Z" id="Shape" fill="#FED8C9" fill-rule="nonzero"></path>
                    <path d="M10.0216537,39.9662952 C9.91702313,39.9662824 9.81510506,39.9317679 9.73062176,39.8677374 C8.27693153,38.7642112 7.50774374,38.1721444 6.9689409,37.7574648 C5.85293092,36.8984281 5.73604474,36.8086338 2.60611528,34.5364266 C0.420743689,32.9498484 0.18142087,30.5449183 0.172278934,30.4433546 L0.170115887,20.2597632 C0.170115887,19.9933014 0.367565375,19.7715039 0.623498766,19.7502936 C7.94398549,19.144002 9.56080214,15.7665328 9.57618834,15.7325795 C9.47867323,15.5180086 9.53640366,15.2620341 9.71556075,15.1146077 C9.89471783,14.9671812 10.1481431,14.9671089 10.3273783,15.1144332 C10.5066135,15.2617575 10.5644795,15.517699 10.4670781,15.7323255 C10.4815257,15.763019 12.1651519,19.1467538 19.4168701,19.7008877 C19.6742319,19.7203622 19.8733955,19.9426677 19.8733955,20.2103573 L19.8733955,30.3959808 C19.8623354,30.5461884 19.6222779,33.0027682 17.4311518,34.5409142 C14.2153943,36.8839916 14.1465849,36.936615 13.0012309,37.8158459 C12.4711211,38.2227781 11.7110752,38.8061237 10.3126855,39.8677374 C10.2281996,39.9317626 10.1262833,39.9662766 10.0216537,39.9662952 L10.0216537,39.9662952 Z M1.15532272,30.3956845 C1.15822039,30.3956845 1.38334056,32.4011758 3.17087469,33.6990659 C6.3123132,35.9794862 6.43017887,36.0700849 7.55631027,36.9368267 C8.05658639,37.3220406 8.75651585,37.8607219 10.0216537,38.822042 C11.2348375,37.9003906 11.9241558,37.3714465 12.4153308,36.9941918 C13.5698267,36.1079755 13.639085,36.0548017 16.871698,33.6995316 C18.6881272,32.4245876 18.8882295,30.3699443 18.8901476,30.3494961 L18.8882295,20.6808355 C13.2960992,20.1509177 10.9058094,17.9899691 10.0221434,16.859475 C9.1389671,17.9917049 6.74912632,20.1623484 1.15532272,20.7274896 L1.15532272,30.3956845 Z" id="Shape" fill="#F87B4C" fill-rule="nonzero"></path>
                    <path d="M6.61469089,25.3864648 C6.61469087,25.7515706 6.84940729,26.0889423 7.23042473,26.2714952 C7.61144218,26.4540481 8.08087504,26.4540481 8.46189249,26.2714952 C8.84290994,26.0889423 9.07762636,25.7515706 9.07762634,25.3864648 C9.07762636,25.021359 8.84290994,24.6839874 8.46189249,24.5014345 C8.08087504,24.3188816 7.61144218,24.3188816 7.23042473,24.5014345 C6.84940729,24.6839874 6.61469087,25.021359 6.61469089,25.3864648 L6.61469089,25.3864648 Z" id="Shape" fill="#F87B4C" fill-rule="nonzero"></path>
                    <path d="M11.7047493,25.405897 C11.7047493,25.7710028 11.9394657,26.1083744 12.3204832,26.2909273 C12.7015006,26.4734803 13.1709335,26.4734803 13.5519509,26.2909273 C13.9329684,26.1083744 14.1676848,25.7710028 14.1676848,25.405897 C14.1676848,25.0407912 13.9329684,24.7034195 13.5519509,24.5208666 C13.1709335,24.3383137 12.7015006,24.3383137 12.3204832,24.5208666 C11.9394657,24.7034195 11.7047493,25.0407912 11.7047493,25.405897 L11.7047493,25.405897 Z" id="Shape" fill="#F87B4C" fill-rule="nonzero"></path>
                    <path d="M6.86095178,23.3814391 L8.83132463,23.3814391" id="Shape" fill="#FFC1D1" fill-rule="nonzero"></path>
                    <path d="M8.83152869,23.6941663 L6.86119665,23.6941663 C6.7958601,23.6942163 6.73318711,23.6643015 6.68698718,23.6110133 C6.64078725,23.5577251 6.6148516,23.4854364 6.61489495,23.4100755 C6.6148516,23.3347146 6.64078725,23.2624259 6.68698718,23.2091377 C6.73318711,23.1558495 6.7958601,23.1259347 6.86119665,23.1259847 L8.83152869,23.1259847 C8.89686525,23.1259347 8.95953824,23.1558495 9.00573817,23.2091377 C9.0519381,23.2624259 9.07787375,23.3347146 9.0778304,23.4100755 C9.07787375,23.4854364 9.0519381,23.5577251 9.00573817,23.6110133 C8.95953824,23.6643015 8.89686525,23.6942163 8.83152869,23.6941663 L8.83152869,23.6941663 Z" id="Shape" fill="#F87B4C" fill-rule="nonzero"></path>
                    <path d="M11.951051,23.4397356 L13.9213831,23.4397356" id="Shape" fill="#FFC1D1" fill-rule="nonzero"></path>
                    <path d="M13.9214647,23.7522935 L11.9511327,23.7522935 C11.8857961,23.7523435 11.8231231,23.7224286 11.7769232,23.6691404 C11.7307233,23.6158522 11.7047876,23.5435635 11.704831,23.4682026 C11.7047876,23.3928417 11.7307233,23.3205531 11.7769232,23.2672648 C11.8231231,23.2139766 11.8857961,23.1840618 11.9511327,23.1841118 L13.9214647,23.1841118 C13.9868013,23.1840618 14.0494743,23.2139766 14.0956742,23.2672648 C14.1418741,23.3205531 14.1678098,23.3928417 14.1677664,23.4682026 C14.1677989,23.5435597 14.1418598,23.6158411 14.0956622,23.6691266 C14.0494646,23.7224121 13.9867979,23.752331 13.9214647,23.7522935 L13.9214647,23.7522935 Z" id="Shape" fill="#F87B4C" fill-rule="nonzero"></path>
                    <path d="M9.32388724,29.5325836 L12.2794261,29.5325836" id="Shape" fill="#F87B4C" fill-rule="nonzero"></path>
                    <path d="M12.279671,29.8453532 L9.32413211,29.8453532 C9.18798257,29.8453532 9.0778304,29.7183008 9.0778304,29.5612623 C9.0778304,29.4042238 9.18798257,29.2771714 9.32413211,29.2771714 L12.279671,29.2771714 C12.4158205,29.2771714 12.5259727,29.4042238 12.5259727,29.5612623 C12.5259727,29.7183008 12.4157797,29.8453532 12.279671,29.8453532 Z" id="Shape" fill="#F87B4C" fill-rule="nonzero"></path>
                    <path d="M4.89061974,28.1712321 C4.89061974,28.5945297 5.55223965,28.9376803 6.36838918,28.9376803 C7.1845387,28.9376803 7.84615861,28.5945297 7.84615861,28.1712321 C7.84615861,27.7479345 7.1845387,27.404784 6.36838918,27.404784 C5.55223965,27.404784 4.89061974,27.7479345 4.89061974,28.1712321 Z" id="Shape" fill="#FFD6E0" fill-rule="nonzero"></path>
                    <path d="M13.6340243,28.1712321 C13.6340243,28.5945297 14.2956442,28.9376803 15.1117937,28.9376803 C15.9279432,28.9376803 16.5895632,28.5945297 16.5895632,28.1712321 C16.5895632,27.7479345 15.9279432,27.404784 15.1117937,27.404784 C14.2956442,27.404784 13.6340243,27.7479345 13.6340243,28.1712321 Z" id="Shape" fill="#FFD6E0" fill-rule="nonzero"></path>
                    <text id="？" transform="translate(25.848727, 14.905394) rotate(36.000000) translate(-25.848727, -14.905394) " font-family="PingFangSC-Regular, PingFang SC" font-size="12" font-weight="normal" letter-spacing="-0.124444455" fill="#F87B4C">
                        <tspan x="19.9109491" y="19.4053942">？</tspan>
                    </text>
                    <text id="？" transform="translate(19.000000, 10.500000) rotate(-345.000000) translate(-19.000000, -10.500000) " font-family="PingFangSC-Regular, PingFang SC" font-size="12" font-weight="normal" letter-spacing="-0.124444455" fill="#F87B4C">
                        <tspan x="13.0622222" y="15">？</tspan>
                    </text>
                </g>
            </g>
        </g>
    </g>
</svg>