<?xml version="1.0" encoding="UTF-8"?>
<svg width="170px" height="170px" viewBox="0 0 170 170" version="1.1" xmlns="http://www.w3.org/2000/svg" xmlns:xlink="http://www.w3.org/1999/xlink">
    <defs>
        <rect id="path-1" x="0" y="0" width="339" height="55" rx="6"></rect>
        <rect id="path-2" x="0" y="0" width="339" height="55" rx="6"></rect>
        <linearGradient x1="50%" y1="2.44140625%" x2="50%" y2="100%" id="linearGradient-3">
            <stop stop-color="#F79B5D" offset="0%"></stop>
            <stop stop-color="#F7AF76" offset="100%"></stop>
        </linearGradient>
        <rect id="path-4" x="0" y="0" width="82" height="82" rx="41"></rect>
        <filter x="-243.1%" y="-217.5%" width="586.1%" height="534.9%" filterUnits="objectBoundingBox" id="filter-6">
            <feGaussianBlur stdDeviation="45.4547991" in="SourceGraphic"></feGaussianBlur>
        </filter>
    </defs>
    <g id="补充标注" stroke="none" stroke-width="1" fill="none" fill-rule="evenodd">
        <g id="绑定失败标注" transform="translate(-102.000000, -171.000000)">
            <rect id="背景" fill="#F0F0F0" x="0" y="0" width="375" height="667"></rect>
            <g id="获取验证码" transform="translate(18.000000, 279.000000)">
                <g id="Rectangle">
                    <use fill="#FFFFFF" fill-rule="evenodd" xlink:href="#path-1"></use>
                    <rect stroke="#E6E6E6" stroke-width="1" x="0.5" y="0.5" width="338" height="54" rx="6"></rect>
                </g>
                <g transform="translate(216.000000, 12.000000)">
                    <rect id="Rectangle-2" stroke="#F87B4C" x="0.5" y="0.5" width="104" height="31" rx="4"></rect>
                    <text font-family="PingFangSC-Regular, PingFang SC" font-size="16" font-weight="normal" letter-spacing="-0.165925905" fill="#F87B4C">
                        <tspan x="13" y="22">获取验证码</tspan>
                    </text>
                </g>
                <text id="155453" font-family="PingFangSC-Regular, PingFang SC" font-size="16" font-weight="normal" letter-spacing="-0.1659259" fill="#333333">
                    <tspan x="60" y="34">155453</tspan>
                </text>
            </g>
            <g id="手机号" transform="translate(18.000000, 210.000000)">
                <g id="Rectangle">
                    <use fill="#FFFFFF" fill-rule="evenodd" xlink:href="#path-2"></use>
                    <rect stroke="#E6E6E6" stroke-width="1" x="0.5" y="0.5" width="338" height="54" rx="6"></rect>
                </g>
                <text id="15587258742" font-family="PingFangSC-Regular, PingFang SC" font-size="16" font-weight="normal" letter-spacing="-0.1659259" fill="#333333">
                    <tspan x="60" y="34">15587258742</tspan>
                </text>
            </g>
            <g id="头像" transform="translate(147.000000, 93.000000)">
                <g id="底圆">
                    <mask id="mask-5" fill="white">
                        <use xlink:href="#path-4"></use>
                    </mask>
                    <use id="Mask" fill="url(#linearGradient-3)" xlink:href="#path-4"></use>
                    <ellipse id="Oval-Copy" fill="#FFDC6F" filter="url(#filter-6)" mask="url(#mask-5)" cx="110.052632" cy="71.3193277" rx="28.0526316" ry="31.3529412"></ellipse>
                </g>
            </g>
            <rect id="蒙版" fill-opacity="0.5" fill="#000000" x="0" y="0" width="375" height="667"></rect>
            <g id="弹窗背景" transform="translate(20.000000, 140.000000)" fill="#FFFFFF">
                <rect id="Rectangle-12" opacity="0.5" x="5" y="5" width="325" height="284" rx="6"></rect>
                <rect id="Rectangle-12" opacity="0.200000003" x="10" y="0" width="315" height="314" rx="6"></rect>
                <rect id="Mask" x="0" y="10" width="335" height="332" rx="6"></rect>
            </g>
            <g id="绑定失败图标" transform="translate(106.000000, 174.000000)">
                <text id="绑定失败！" font-family="PingFangSC-Medium, PingFang SC" font-size="20" font-weight="400" letter-spacing="-0.2074074" fill="#F87B4C">
                    <tspan x="44.0185185" y="153">绑定失败！</tspan>
                </text>
                <g id="失败-(1)">
                    <path d="M146.276374,52.4501711 C146.276374,48.825823 149.194009,45.8876814 152.793061,45.8876814 L155.483132,45.8876814 C159.082184,45.8876814 161.999818,42.9495398 161.999818,39.3251917 L161.999818,39.2055811 C161.999818,35.581233 159.082184,32.6430914 155.483132,32.6430914 L18.2553296,32.6430914 C14.656278,32.6430914 11.7386435,35.581233 11.7386435,39.2055811 L11.7386435,39.3251917 C11.7386435,42.9495398 14.656278,45.8876814 18.2553296,45.8876814 L27.9994843,45.8876814 C31.5985359,45.8876814 34.5161704,48.825823 34.5161704,52.4501711 C34.5161704,56.0745192 31.5985359,59.0126608 27.9994843,59.0126608 L24.723343,59.0126608 C21.1242915,59.0126608 18.206657,61.9508024 18.206657,65.5751504 L18.206657,65.6947611 C18.206657,69.3191091 15.2890224,72.2572507 11.6899709,72.2572507 L6.5166861,72.2572507 C2.91763453,72.2572507 0,75.1953923 0,78.8197404 L0,78.939351 C0,82.5636991 2.91763453,85.5018407 6.5166861,85.5018407 L141.657013,85.5018407 C145.256065,85.5018407 148.1737,82.5636991 148.1737,78.939351 L148.1737,78.8197404 C148.1737,75.1953923 145.256065,72.2572507 141.657013,72.2572507 L136.483547,72.2572507 C132.884496,72.2572507 129.966861,69.3191091 129.966861,65.6947611 L129.966861,65.5751504 C129.966861,61.9508024 132.884496,59.0126608 136.483547,59.0126608 L139.759688,59.0126608 C143.358922,59.0126608 146.276374,56.0747021 146.276374,52.4501711 L146.276374,52.4501711 Z" id="Shape" fill-opacity="0.2" fill="#F87B4C" fill-rule="nonzero"></path>
                    <path d="M125.24507,66.5108201 C125.24507,66.5108201 124.344081,76.4536814 115.339278,82.5889381 C94.4033206,97.3957817 103.408123,91.0492861 83.596722,105.646903 C63.7853206,91.0492861 72.5665561,97.1843599 51.8541659,82.5889381 C42.8493632,76.2426254 41.9483744,66.5108201 41.9483744,66.5108201 L41.9483744,22.722177 C76.1679686,19.9704012 83.5965404,4.10553392 83.5965404,4.10553392 C83.5965404,4.10553392 91.0252937,19.9704012 125.244706,22.5089263 L125.244706,66.5108201 L125.24507,66.5108201 Z" id="Shape" fill="#FED8C9" fill-rule="nonzero"></path>
                    <path d="M83.5963587,107.854395 C83.130753,107.85434 82.6772175,107.705237 82.3012668,107.428625 C75.8323453,102.661392 72.4094596,100.103664 70.011787,98.3122478 C65.0455426,94.6012094 64.5253991,94.2132979 50.597213,84.3973628 C40.8723094,77.5433451 39.8073229,67.1540472 39.7666413,66.715292 L39.7570157,22.722177 C39.7570157,21.5710619 40.6356659,20.6128968 41.7745695,20.5212684 C74.3507354,17.9020885 81.5455695,3.31142183 81.6140381,3.16474336 C81.1800959,2.23779716 81.4369963,1.13198744 82.2342453,0.495105063 C83.0314944,-0.141777316 84.1592367,-0.14208947 84.9568333,0.494351462 C85.7544299,1.13079239 86.0119339,2.23645973 85.5784978,3.16364602 C85.6427892,3.29624189 93.134926,17.9139764 125.405072,20.3078348 C126.550332,20.3919646 127.43661,21.3523245 127.43661,22.5087434 L127.43661,66.5106372 C127.387392,67.1595339 126.319137,77.7719587 116.568626,84.4167493 C102.258504,94.5388437 101.952303,94.766177 96.8554776,98.5644543 C94.4964888,100.322401 91.1142848,102.842454 84.8914507,107.428625 C84.5154884,107.705215 84.0619605,107.854315 83.5963587,107.854395 L83.5963587,107.854395 Z M44.1411861,66.5093569 C44.1540807,66.5093569 45.1558655,75.1730796 53.1103924,80.7799646 C67.0897937,90.6313805 67.614296,91.022767 72.6255807,94.7670914 C74.8518094,96.4312153 77.9664955,98.7583186 83.5963587,102.911221 C88.9950269,98.9296873 92.0624933,96.644649 94.248222,95.0149086 C99.3857287,91.1864543 99.6939283,90.9567434 114.079056,80.7819764 C122.162166,75.2742183 123.052621,66.3981593 123.061157,66.309823 L123.052621,24.5412094 C98.1676413,22.2519646 87.530852,12.9166667 83.5985381,8.03293215 C79.6684036,12.9241652 69.0336121,22.3013451 44.1411861,24.7427552 L44.1411861,66.5093569 Z" id="Shape" fill="#F87B4C" fill-rule="nonzero"></path>
                    <path d="M68.4353744,44.869528 C68.4353744,46.446785 69.4798624,47.9042306 71.1753901,48.6928592 C72.8709177,49.4814877 74.9598939,49.4814877 76.6554216,48.6928592 C78.3509492,47.9042306 79.3954373,46.446785 79.3954372,44.869528 C79.3954373,43.292271 78.3509492,41.8348254 76.6554216,41.0461969 C74.9598939,40.2575683 72.8709177,40.2575683 71.1753901,41.0461969 C69.4798624,41.8348254 68.4353744,43.292271 68.4353744,44.869528 L68.4353744,44.869528 Z" id="Shape" fill="#F87B4C" fill-rule="nonzero"></path>
                    <path d="M91.0861345,44.9534749 C91.0861344,46.530732 92.1306225,47.9881776 93.8261501,48.7768061 C95.5216778,49.5654347 97.610654,49.5654347 99.3061817,48.7768061 C101.001709,47.9881776 102.046197,46.530732 102.046197,44.9534749 C102.046197,43.3762179 101.001709,41.9187723 99.3061817,41.1301437 C97.610654,40.3415152 95.5216778,40.3415152 93.8261501,41.1301437 C92.1306225,41.9187723 91.0861344,43.3762179 91.0861345,44.9534749 L91.0861345,44.9534749 Z" id="Shape" fill="#F87B4C" fill-rule="nonzero"></path>
                    <path d="M69.5312354,36.2078171 L78.2993946,36.2078171" id="Shape" fill="#FFC1D1" fill-rule="nonzero"></path>
                    <path d="M78.3003027,37.3117463 L69.5323251,37.3117463 C69.2415774,37.3119406 68.9626826,37.1957157 68.7570929,36.988681 C68.5515033,36.7816463 68.4360896,36.5007912 68.4362825,36.208 C68.4360896,35.9152088 68.5515033,35.6343537 68.7570929,35.427319 C68.9626826,35.2202843 69.2415774,35.1040594 69.5323251,35.1042537 L78.3003027,35.1042537 C78.5910504,35.1040594 78.8699452,35.2202843 79.0755349,35.427319 C79.2811246,35.6343537 79.3965382,35.9152088 79.3963453,36.208 C79.3965382,36.5007912 79.2811246,36.7816463 79.0755349,36.988681 C78.8699452,37.1957157 78.5910504,37.3119406 78.3003027,37.3117463 L78.3003027,37.3117463 Z" id="Shape" fill="#F87B4C" fill-rule="nonzero"></path>
                    <path d="M100.950518,37.5628555 L92.1825404,37.5628555 C91.8917927,37.5630497 91.6128979,37.4468249 91.4073082,37.2397902 C91.2017185,37.0327554 91.0863049,36.7519004 91.0864978,36.4591091 C91.0863049,36.1663179 91.2017185,35.8854628 91.4073082,35.6784281 C91.6128979,35.4713934 91.8917927,35.3551686 92.1825404,35.3553628 L100.950518,35.3553628 C101.241266,35.3551686 101.52016,35.4713934 101.72575,35.6784281 C101.93134,35.8854628 102.046753,36.1663179 102.046561,36.4591091 C102.046705,36.7518855 101.931276,37.0327123 101.725697,37.2397365 C101.520118,37.4467607 101.241251,37.5630011 100.950518,37.5628555 L100.950518,37.5628555 Z" id="Shape" fill="#F87B4C" fill-rule="nonzero"></path>
                    <path d="M80.4912982,62.7807611 L93.6434462,62.7807611" id="Shape" fill="#F87B4C" fill-rule="nonzero"></path>
                    <path d="M93.1821771,65.4128776 C91.2552341,63.9198246 88.6219705,63 85.7184279,63 C82.684812,63 79.9462335,64.0040834 78,65.6169555" id="Oval-2" stroke="#F87B4C" stroke-width="2" stroke-linecap="round"></path>
                    <path d="M60.7632578,56.8997227 C60.7632578,58.7283685 63.7074665,60.2107788 67.3393318,60.2107788 C70.9711972,60.2107788 73.9154058,58.7283685 73.9154058,56.8997227 C73.9154058,55.071077 70.9711972,53.5886667 67.3393318,53.5886667 C63.7074665,53.5886667 60.7632578,55.071077 60.7632578,56.8997227 Z" id="Shape" fill="#FFD6E0" fill-rule="nonzero"></path>
                    <path d="M99.6714081,56.8997227 C99.6714081,58.7283685 102.615617,60.2107788 106.247482,60.2107788 C109.879347,60.2107788 112.823556,58.7283685 112.823556,56.8997227 C112.823556,55.071077 109.879347,53.5886667 106.247482,53.5886667 C102.615617,53.5886667 99.6714081,55.071077 99.6714081,56.8997227 Z" id="Shape" fill="#FFD6E0" fill-rule="nonzero"></path>
                    <path d="M44.1406413,119.437971 C44.1406413,121.876199 61.8058116,123.852773 83.5969036,123.852773 C105.387996,123.852773 123.053166,121.876199 123.053166,119.437971 C123.053166,116.999742 105.387996,115.023168 83.5969036,115.023168 C61.8058116,115.023168 44.1406413,116.999742 44.1406413,119.437971 L44.1406413,119.437971 Z" id="Shape" fill="#FEE5DB" fill-rule="nonzero"></path>
                </g>
            </g>
            <g id="#spacing-top-F0821212-7ADA-437B-A5C7-4DD90807265F-146436E8-D5BA-4E60-996F-2E72CD746F03" transform="translate(146.000000, 150.000000)" fill="#50E3C2">
                <rect id="box" x="0" y="0" width="35" height="22" rx="2"></rect>
            </g>
        </g>
    </g>
</svg>