<?xml version="1.0" encoding="UTF-8"?>
<svg width="22px" height="22px" viewBox="0 0 22 22" version="1.1" xmlns="http://www.w3.org/2000/svg" xmlns:xlink="http://www.w3.org/1999/xlink">
    <defs></defs>
    <g id="切图" stroke="none" stroke-width="1" fill="none" fill-rule="evenodd">
        <g id="手机号" fill-rule="nonzero" fill="#F87B4C">
            <g id="手机图标" transform="translate(5.000000, 1.000000)">
                <path d="M9.43216,0.0120733198 L1.56784,0.0120733198 C0.70768,0.0120733198 0.01136,0.685702648 0.01136,1.51783299 L0.01136,17.4868106 C0.01136,18.3189409 0.70768,18.9925703 1.56784,18.9925703 L9.43216,18.9925703 C10.29232,18.9925703 10.98864,18.3189409 10.98864,17.4868106 L10.98864,1.51783299 C10.98864,0.685702648 10.29232,0.0120733198 9.43216,0.0120733198 Z M0.7896,1.51783299 C0.7896,1.08195519 1.15824,0.764953157 1.56784,0.764953157 L9.43216,0.764953157 C9.88272,0.764953157 10.2104,1.12158045 10.2104,1.51783299 L10.2104,2.27071283 L0.7896,2.27071283 L0.7896,1.51783299 Z M10.2104,15.9810509 L0.7896,15.9810509 L0.7896,3.02359267 L10.2104,3.02359267 L10.2104,15.9810509 L10.2104,15.9810509 Z M10.2104,17.4868106 C10.2104,17.9226884 9.84176,18.2396904 9.43216,18.2396904 L1.56784,18.2396904 C1.11728,18.2396904 0.7896,17.8830631 0.7896,17.4868106 L0.7896,16.7339308 L10.2104,16.7339308 L10.2104,17.4868106 Z" id="Shape"></path>
            </g>
        </g>
    </g>
</svg>